<?xml version="1.0" encoding="UTF-8"?>
<svg version="1.1" xmlns="http://www.w3.org/2000/svg" width="512" height="512">
<path d="M0 0 C6.44813291 5.54839344 9.09890452 12.73675089 9.9765625 21.05078125 C10.15452994 26.77000769 9.31042872 31.62403926 7.44140625 37.0234375 C6.64759307 39.43366818 6.14144085 41.81802892 5.6875 44.3125 C13.73055557 51.91281857 21.03845241 53.59296639 31.62109375 55.3984375 C62.84975839 60.74923487 91.5376423 79.3813305 110.125 104.875 C119.66941259 118.95191903 126.54698611 133.78682616 131.4375 150.0625 C131.63633789 150.72306396 131.83517578 151.38362793 132.04003906 152.06420898 C134.65689194 161.17718593 135.98210989 170.213994 136.12133789 179.68505859 C136.15272386 181.20248594 136.15272386 181.20248594 136.18474388 182.75056839 C136.25056783 186.1955962 136.30014749 189.64061061 136.34765625 193.0859375 C136.3674309 194.32270611 136.38720554 195.55947472 136.40757942 196.83372116 C136.78906356 221.43276482 136.64520714 246.0273539 136.47694016 270.62775421 C136.43245899 277.19970471 136.39544289 283.77168419 136.36001587 290.34368896 C136.34786384 292.5666593 136.33571084 294.78962962 136.3235569 297.01259995 C136.30523505 300.37437972 136.2870587 303.73615998 136.26930881 307.09794283 C136.20255627 319.66265589 136.11790425 332.22678405 135.98803711 344.79101562 C135.88313197 354.95539547 135.81464942 365.11931993 135.78728539 375.28421342 C135.77160646 380.60622296 135.73887412 385.92672889 135.66076469 391.24821854 C135.07357812 422.92743595 135.07357812 422.92743595 146.01152134 452.26704979 C146.6875 454.3125 146.6875 454.3125 145.93469906 456.48583412 C144.33662758 458.82639285 142.70116852 459.83420506 140.25 461.25 C139.46753906 461.71277344 138.68507813 462.17554688 137.87890625 462.65234375 C67.88907363 499.06076341 -55.57134478 495.49727524 -129.3125 472.3125 C-152.70698554 464.74461247 -152.70698554 464.74461247 -159.54321289 456.20361328 C-161.2394377 452.03383945 -158.76103588 447.68657153 -157.1875 443.75 C-156.4953497 441.89529355 -155.80517872 440.039847 -155.1171875 438.18359375 C-154.79733887 437.36818115 -154.47749023 436.55276855 -154.14794922 435.71264648 C-152.75717546 431.71711848 -152.18735434 427.92803728 -152.19059467 423.7065773 C-152.18882042 422.80635668 -152.18704617 421.90613606 -152.18521816 420.97863603 C-152.18833277 419.99860667 -152.19144738 419.01857731 -152.19465637 418.0088501 C-152.19395179 416.96049351 -152.19324721 415.91213691 -152.19252127 414.83201194 C-152.19121108 411.31279625 -152.19689017 407.79362519 -152.20239258 404.27441406 C-152.20263471 401.75269572 -152.20235751 399.23097728 -152.20159912 396.70925903 C-152.2006355 391.97669294 -152.20112129 387.24413487 -152.20379993 382.51156959 C-152.20893959 373.18817279 -152.20054739 363.86482981 -152.18717957 354.54144287 C-152.18513286 353.07074555 -152.18309052 351.60004823 -152.18105251 350.1293509 C-152.17689606 347.15124251 -152.17268092 344.1731342 -152.16844499 341.19502592 C-152.15764318 333.53822168 -152.14783981 325.8814166 -152.1394043 318.22460938 C-152.13855305 317.4564348 -152.1377018 316.68826023 -152.13682475 315.89680764 C-152.1236553 303.49826206 -152.12859255 291.0997811 -152.13947586 278.70123628 C-152.15016258 265.93740208 -152.137757 253.17372685 -152.10539359 240.40992904 C-152.08626162 232.55941747 -152.08492106 224.70933374 -152.10754987 216.85882959 C-152.12311696 210.81008178 -152.106682 204.76182258 -152.07925415 198.71310043 C-152.07295779 196.25638913 -152.07657054 193.79962582 -152.09165001 191.34295273 C-152.28120524 157.94138116 -142.81008084 123.80686285 -120.3125 98.3125 C-119.60351562 97.48363281 -118.89453125 96.65476562 -118.1640625 95.80078125 C-99.0117719 73.85964834 -73.56900165 60.30760523 -45.07714844 54.8828125 C-36.40723199 53.22377687 -30.63915592 50.86170161 -24.3125 44.3125 C-24.80066981 42.2223749 -25.34706422 40.21525455 -26.06640625 38.19140625 C-29.5762551 28.13662186 -29.55994701 18.48347566 -25.4375 8.62109375 C-22.85527727 3.32215751 -19.83996105 0.41027545 -14.52734375 -2.0234375 C-9.24901246 -3.60600596 -4.79523575 -2.44285595 0 0 Z M-12.98046875 8.703125 C-13.48191406 9.31671875 -13.98335937 9.9303125 -14.5 10.5625 C-15.00917969 11.16578125 -15.51835937 11.7690625 -16.04296875 12.390625 C-19.6188477 17.80395559 -18.77424781 25.10199194 -18.3125 31.3125 C-17.56873776 33.72972728 -16.75120986 35.21438146 -15.3125 37.3125 C-12.33398438 37.26367188 -12.33398438 37.26367188 -9.35546875 37.21484375 C-7.3125 37.3125 -7.3125 37.3125 -4.3125 38.3125 C-0.05287849 31.25750187 1.02832676 25.09059516 -0.85546875 16.97265625 C-2.21532474 12.93816639 -3.84820364 9.83198826 -7.3125 7.3125 C-11.16238838 6.88559246 -11.16238838 6.88559246 -12.98046875 8.703125 Z M20.6875 63.3125 C24.37459338 66.38507781 28.24119488 68.9779277 32.3125 71.5 C59.75966058 88.92693934 78.78338639 113.18286057 86.24194336 144.9140625 C87.65236202 152.50636549 87.87492693 159.94712417 87.96875 167.65234375 C88.00650883 170.0371094 88.0442693 172.42187502 88.08203125 174.80664062 C88.13587903 178.54856722 88.1880596 182.29051366 88.23974609 186.0324707 C88.29126871 189.65583436 88.34854914 193.27907408 88.40625 196.90234375 C88.41982544 198.03139633 88.43340088 199.16044891 88.4473877 200.32371521 C88.46410522 201.358918 88.48082275 202.39412079 88.49804688 203.46069336 C88.51057495 204.37588242 88.52310303 205.29107147 88.53601074 206.23399353 C88.45902933 208.30197464 88.45902933 208.30197464 89.6875 209.3125 C91.56380132 209.65869425 93.45051848 209.94874765 95.33984375 210.21484375 C96.50966797 210.38306641 97.67949219 210.55128906 98.88476562 210.72460938 C100.11904297 210.89798828 101.35332031 211.07136719 102.625 211.25 C110.69826018 212.39092823 118.71458404 213.59375316 126.6875 215.3125 C126.7629997 210.08792094 126.81672164 204.86367561 126.85229492 199.63867188 C126.86716123 197.87006077 126.88746029 196.10148498 126.91381836 194.33300781 C127.45339529 157.13393925 115.68673243 123.26150411 90.17675781 95.84033203 C72.64693323 77.85645625 48.12299034 67.4638333 23.6875 63.3125 C22.6975 63.3125 21.7075 63.3125 20.6875 63.3125 Z M-45.26171875 64.0625 C-46.39722168 64.35108887 -46.39722168 64.35108887 -47.55566406 64.64550781 C-48.36229492 64.86561523 -49.16892578 65.08572266 -50 65.3125 C-50.84143555 65.5403418 -51.68287109 65.76818359 -52.54980469 66.00292969 C-70.12384062 70.94212403 -86.89352948 78.48791261 -100.1640625 91.26953125 C-102.3125 93.3125 -102.3125 93.3125 -104.8203125 95.26953125 C-125.78928621 112.45883102 -137.63595224 144.27337004 -141.3125 170.3125 C-141.54505728 173.88452436 -141.54859715 177.43339321 -141.5078125 181.01171875 C-141.5049826 181.9727803 -141.50215271 182.93384186 -141.49923706 183.92402649 C-141.48817314 186.94948567 -141.46309573 189.97463253 -141.4375 193 C-141.42745233 195.06965714 -141.41832964 197.13931899 -141.41015625 199.20898438 C-141.38827923 204.24360723 -141.3538472 209.27800094 -141.3125 214.3125 C-140.35742554 214.13182983 -140.35742554 214.13182983 -139.38305664 213.94750977 C-130.68317188 212.33046851 -121.94634983 211.01761016 -113.19335938 209.72460938 C-112.07638672 209.55638672 -110.95941406 209.38816406 -109.80859375 209.21484375 C-108.79982178 209.06523193 -107.7910498 208.91562012 -106.75170898 208.76147461 C-104.31570336 208.42989819 -104.31570336 208.42989819 -102.3125 207.3125 C-101.9825 201.0425 -101.6525 194.7725 -101.3125 188.3125 C-99.0025 187.9825 -96.6925 187.6525 -94.3125 187.3125 C-93.9825 193.9125 -93.6525 200.5125 -93.3125 207.3125 C-88.42096529 207.2729321 -88.42096529 207.2729321 -83.52954102 207.22241211 C-81.79028283 207.21525087 -80.05104696 207.26225298 -78.3125 207.3125 C-77.3125 208.3125 -77.3125 208.3125 -77.25 210.875 C-77.270625 211.679375 -77.29125 212.48375 -77.3125 213.3125 C-82.64222673 215.70941549 -87.5190517 215.89369651 -93.3125 216.3125 C-93.3125 221.5925 -93.3125 226.8725 -93.3125 232.3125 C-91.0142333 233.46163335 -89.33385085 233.58773007 -86.77734375 233.8125 C-85.88595703 233.895 -84.99457031 233.9775 -84.07617188 234.0625 C-82.18818134 234.22950953 -80.30016032 234.3961748 -78.41210938 234.5625 C-77.52201172 234.645 -76.63191406 234.7275 -75.71484375 234.8125 C-74.89491943 234.8846875 -74.07499512 234.956875 -73.23022461 235.03125 C-71.3125 235.3125 -71.3125 235.3125 -70.3125 236.3125 C-70.3125 238.6225 -70.3125 240.9325 -70.3125 243.3125 C-81.6975 242.8175 -81.6975 242.8175 -93.3125 242.3125 C-93.3125 279.2725 -93.3125 316.2325 -93.3125 354.3125 C-71.0375 352.3325 -71.0375 352.3325 -48.3125 350.3125 C-47.9825 336.4525 -47.6525 322.5925 -47.3125 308.3125 C-45.3325 308.3125 -43.3525 308.3125 -41.3125 308.3125 C-39.15470242 310.47029758 -40.05223706 315.37970038 -39.99609375 318.37890625 C-39.97744263 319.1838855 -39.9587915 319.98886475 -39.9395752 320.8182373 C-39.87106593 323.83704221 -39.81105259 326.85603508 -39.75 329.875 C-39.5334375 339.9915625 -39.5334375 339.9915625 -39.3125 350.3125 C-20.1725 350.3125 -1.0325 350.3125 18.6875 350.3125 C19.0175 343.7125 19.3475 337.1125 19.6875 330.3125 C22.3275 330.3125 24.9675 330.3125 27.6875 330.3125 C28.0175 336.9125 28.3475 343.5125 28.6875 350.3125 C30.94464844 350.44527344 33.20179688 350.57804687 35.52734375 350.71484375 C45.68205261 351.31217957 45.68205261 351.31217957 55.83676147 351.90951538 C56.58269562 351.95339386 57.32862976 351.99727234 58.09716797 352.04248047 C62.00147502 352.27214559 65.90578206 352.50181071 69.81008911 352.73147583 C71.05071609 352.80445389 71.05071609 352.80445389 72.31640625 352.87890625 C74.74886719 353.02199219 77.18132812 353.16507812 79.6875 353.3125 C80.0175 347.0425 80.3475 340.7725 80.6875 334.3125 C82.6675 334.3125 84.6475 334.3125 86.6875 334.3125 C87.80573815 336.54897631 87.88146061 337.96141529 88.00390625 340.4453125 C88.06674805 341.65380859 88.06674805 341.65380859 88.13085938 342.88671875 C88.17017578 343.72847656 88.20949219 344.57023437 88.25 345.4375 C88.29318359 346.28699219 88.33636719 347.13648438 88.38085938 348.01171875 C88.48704236 350.11178223 88.58778497 352.21211948 88.6875 354.3125 C94.79961673 356.1567435 100.95376981 357.43655667 107.22070312 358.63671875 C114.04517522 360.01167382 119.92673017 362.05891006 126.6875 364.3125 C126.6875 321.0825 126.6875 277.8525 126.6875 233.3125 C123.7175 233.9725 120.7475 234.6325 117.6875 235.3125 C115.21064414 235.76254623 112.73011874 236.19293501 110.24609375 236.6015625 C109.26637352 236.76378799 109.26637352 236.76378799 108.26686096 236.92929077 C106.21994943 237.26768695 104.17249624 237.60266191 102.125 237.9375 C100.72066546 238.16904251 99.31636826 238.40081161 97.91210938 238.6328125 C94.5043325 239.19531969 91.09606147 239.75476437 87.6875 240.3125 C87.67719254 240.86151474 87.66688507 241.41052948 87.65626526 241.97618103 C87.54842053 247.66971281 87.43380551 253.36307921 87.31518555 259.05639648 C87.27176577 261.18364007 87.23009607 263.3109201 87.19018555 265.43823242 C87.13265293 268.48888151 87.06891033 271.53934589 87.00390625 274.58984375 C86.98719376 275.54712875 86.97048126 276.50441376 86.95326233 277.4907074 C86.93331711 278.37154495 86.91337189 279.25238251 86.89282227 280.15991211 C86.87727798 280.93934677 86.8617337 281.71878143 86.84571838 282.52183533 C86.6875 284.3125 86.6875 284.3125 85.6875 285.3125 C83.1875 285.4375 83.1875 285.4375 80.6875 285.3125 C79.15958917 283.78458917 79.52566543 282.38260592 79.48217773 280.25170898 C79.46223251 279.39089218 79.44228729 278.53007538 79.42173767 277.64317322 C79.39666893 276.24005638 79.39666893 276.24005638 79.37109375 274.80859375 C79.35031265 273.85557877 79.32953156 272.90256378 79.30812073 271.92066956 C79.24251823 268.8638559 79.18369082 265.80695344 79.125 262.75 C79.08182494 260.68293337 79.03821099 258.61587586 78.99414062 256.54882812 C78.88599664 251.47014192 78.7870031 246.39139239 78.6875 241.3125 C70.7675 241.3125 62.8475 241.3125 54.6875 241.3125 C53.6875 237.3125 53.6875 237.3125 54.6875 234.3125 C55.30794189 234.25715088 55.92838379 234.20180176 56.56762695 234.14477539 C59.37876637 233.89189652 62.18937322 233.63351166 65 233.375 C65.97646484 233.28798828 66.95292969 233.20097656 67.95898438 233.11132812 C68.89677734 233.02431641 69.83457031 232.93730469 70.80078125 232.84765625 C71.66485596 232.769104 72.52893066 232.69055176 73.41918945 232.60961914 C75.84836712 232.36462023 75.84836712 232.36462023 78.6875 231.3125 C78.6875 226.0325 78.6875 220.7525 78.6875 215.3125 C66.4973498 214.09820071 54.34471215 213.08535135 42.09912109 212.65454102 C27.48856215 212.11356215 27.48856215 212.11356215 25.6875 210.3125 C25.5625 207.8125 25.5625 207.8125 25.6875 205.3125 C27.64156056 203.35843944 31.21954727 204.14297997 33.83984375 204.12304688 C34.86207031 204.12369141 35.88429688 204.12433594 36.9375 204.125 C37.98550781 204.12435547 39.03351563 204.12371094 40.11328125 204.12304688 C53.34135626 204.20813976 66.50760907 205.2517896 79.6875 206.3125 C79.73878172 199.6088391 79.77347399 192.90522994 79.79736328 186.20141602 C79.80733673 183.92730825 79.82092032 181.65321301 79.83837891 179.37915039 C80.08917774 145.83849415 73.89836757 118.72373845 50 94.1875 C36.89289583 81.2310766 20.69110088 71.29612179 3.6875 64.3125 C2.38256013 67.16471887 2.38256013 67.16471887 3.47265625 69.33935547 C3.89417969 70.11166504 4.31570313 70.88397461 4.75 71.6796875 C5.4459729 72.99199341 5.4459729 72.99199341 6.15600586 74.33081055 C6.66139893 75.27351807 7.16679199 76.21622559 7.6875 77.1875 C18.91833679 98.92500721 24.58421378 122.01868447 26.6875 146.3125 C26.85572266 148.24416016 26.85572266 148.24416016 27.02734375 150.21484375 C27.8115488 160.75251938 27.79081972 171.31416717 27.8125 181.875 C27.81517883 182.62966553 27.81785767 183.38433105 27.82061768 184.16186523 C27.82642653 186.31759554 27.82476541 188.47317533 27.8203125 190.62890625 C27.81918457 191.89162354 27.81805664 193.15434082 27.81689453 194.45532227 C27.6875 197.3125 27.6875 197.3125 26.6875 198.3125 C24.68791636 198.35330783 22.68704746 198.35504356 20.6875 198.3125 C20.66910568 197.75191895 20.65071136 197.19133789 20.63175964 196.61376953 C20.43356616 190.64060473 20.2197211 184.66813001 19.99780273 178.69580078 C19.91749877 176.48337056 19.84084987 174.27080388 19.76831055 172.05810547 C18.52013502 134.23408301 13.11571325 98.45481988 -8.3125 66.3125 C-12.00915253 67.75944578 -13.25468627 69.39317846 -15.08203125 72.87109375 C-15.82138916 74.27041138 -15.82138916 74.27041138 -16.57568359 75.69799805 C-17.08695801 76.70515869 -17.59823242 77.71231934 -18.125 78.75 C-18.65689941 79.79260986 -19.18879883 80.83521973 -19.73681641 81.90942383 C-28.51671749 99.43579659 -33.05484114 116.69138917 -36.75927734 135.93017578 C-37.3125 138.3125 -37.3125 138.3125 -38.3125 139.3125 C-40.8125 139.4375 -40.8125 139.4375 -43.3125 139.3125 C-44.3125 138.3125 -44.3125 138.3125 -44.3671875 136.109375 C-42.91430482 111.47353824 -33.29220736 89.04783905 -22.3125 67.3125 C-27.52215421 68.80915105 -31.8714286 71.13112258 -36.5 73.875 C-37.25031494 74.31900146 -38.00062988 74.76300293 -38.77368164 75.22045898 C-45.11504326 79.05142871 -50.77558056 83.38691236 -56.3125 88.3125 C-57.15039062 89.01890625 -57.98828125 89.7253125 -58.8515625 90.453125 C-80.55703884 109.13461857 -90.04944064 132.47723009 -94.3125 160.3125 C-96.125 161 -96.125 161 -98.3125 161.3125 C-100.06640625 160.23046875 -100.06640625 160.23046875 -101.3125 158.3125 C-102.96941275 138.45967268 -92.50789563 114.67282178 -80.02978516 99.78173828 C-76.90290808 96.1812628 -73.62114031 92.74563329 -70.3125 89.3125 C-69.61769531 88.54292969 -68.92289062 87.77335937 -68.20703125 86.98046875 C-59.53862722 77.67492864 -48.40118213 70.43892412 -37.3125 64.3125 C-40.30030367 63.38050164 -42.23679321 63.29064513 -45.26171875 64.0625 Z M-124.1875 220.6875 C-125.32703125 220.90921875 -126.4665625 221.1309375 -127.640625 221.359375 C-128.72601563 221.57851562 -129.81140625 221.79765625 -130.9296875 222.0234375 C-131.91565918 222.22243652 -132.90163086 222.42143555 -133.91748047 222.62646484 C-136.47207253 223.14870287 -136.47207253 223.14870287 -138.3125 225.3125 C-131.05733729 227.99475825 -123.95078345 229.36266579 -116.3125 230.5 C-115.16910156 230.67724609 -114.02570313 230.85449219 -112.84765625 231.03710938 C-108.10311218 231.91479155 -108.10311218 231.91479155 -103.3125 232.3125 C-103.3125 227.6925 -103.3125 223.0725 -103.3125 218.3125 C-110.52072482 217.97764359 -117.14179062 219.23930569 -124.1875 220.6875 Z M88.6875 218.3125 C88.6875 222.9325 88.6875 227.5525 88.6875 232.3125 C96.74971842 231.92858484 104.40327876 230.9374211 112.3125 229.375 C113.62782715 229.12024902 113.62782715 229.12024902 114.96972656 228.86035156 C115.79698242 228.69116211 116.62423828 228.52197266 117.4765625 228.34765625 C118.21600098 228.1969165 118.95543945 228.04617676 119.71728516 227.89086914 C121.97934566 227.33306955 121.97934566 227.33306955 124.6875 225.3125 C117.87496271 222.40947739 111.17800975 221.21304261 103.875 220.125 C102.17827148 219.85913086 102.17827148 219.85913086 100.44726562 219.58789062 C94.59292952 218.64572895 94.59292952 218.64572895 88.6875 218.3125 Z M-142.3125 233.3125 C-142.3125 276.2125 -142.3125 319.1125 -142.3125 363.3125 C-138.73514364 362.59702873 -135.21415119 361.83039397 -131.671875 360.97265625 C-130.60066406 360.71419922 -129.52945313 360.45574219 -128.42578125 360.18945312 C-127.31589844 359.92068359 -126.20601562 359.65191406 -125.0625 359.375 C-122.86997354 358.84430013 -120.67726802 358.31433942 -118.484375 357.78515625 C-117.0317627 357.43336304 -117.0317627 357.43336304 -115.54980469 357.07446289 C-111.4793277 356.11639662 -107.39462832 355.21963963 -103.3125 354.3125 C-103.3125 317.0225 -103.3125 279.7325 -103.3125 241.3125 C-111.7275 239.8275 -111.7275 239.8275 -120.3125 238.3125 C-123.4148653 237.63706011 -126.48612762 236.95505798 -129.5625 236.1875 C-133.80264465 235.15312579 -138.03049627 234.16890075 -142.3125 233.3125 Z M-39.3125 359.3125 C-39.3125 369.5425 -39.3125 379.7725 -39.3125 390.3125 C-19.82206532 391.38046902 -0.81222358 391.18889207 18.6875 390.3125 C18.6875 380.0825 18.6875 369.8525 18.6875 359.3125 C15.06522216 358.58804443 12.3792246 358.18655749 8.79296875 358.18310547 C7.84848877 358.17995331 6.90400879 358.17680115 5.9309082 358.17355347 C4.9224585 358.1755777 3.91400879 358.17760193 2.875 358.1796875 C1.82852295 358.17873077 0.7820459 358.17777405 -0.29614258 358.17678833 C-2.50504619 358.17610891 -4.71395181 358.1779466 -6.92285156 358.18212891 C-10.30017591 358.18748047 -13.67736728 358.18217583 -17.0546875 358.17578125 C-19.20312529 358.17644207 -21.351563 358.17772332 -23.5 358.1796875 C-24.50844971 358.17766327 -25.51689941 358.17563904 -26.5559082 358.17355347 C-27.50038818 358.17670563 -28.44486816 358.17985779 -29.41796875 358.18310547 C-30.65776489 358.18429886 -30.65776489 358.18429886 -31.92260742 358.18551636 C-34.77000813 358.27936502 -34.77000813 358.27936502 -39.3125 359.3125 Z M27.6875 359.3125 C27.6875 369.5425 27.6875 379.7725 27.6875 390.3125 C44.81785762 389.76345008 61.66716547 388.30091528 78.6875 386.3125 C78.6875 378.7225 78.6875 371.1325 78.6875 363.3125 C61.6845818 361.49931154 44.78552402 359.93199362 27.6875 359.3125 Z M-60.03125 359.93359375 C-60.88553589 359.99781021 -61.73982178 360.06202667 -62.61999512 360.12818909 C-64.42558733 360.26456502 -66.23112826 360.40162134 -68.03662109 360.53930664 C-70.8015032 360.74916533 -73.5667469 360.95372268 -76.33203125 361.15820312 C-78.08596248 361.29133794 -79.83986961 361.4247908 -81.59375 361.55859375 C-82.83602356 361.64928383 -82.83602356 361.64928383 -84.10339355 361.74180603 C-87.34851924 361.99432198 -90.21157142 362.27885714 -93.3125 363.3125 C-93.3125 370.9025 -93.3125 378.4925 -93.3125 386.3125 C-78.18606351 388.30282059 -63.66147373 389.3125 -48.3125 389.3125 C-48.3125 379.4125 -48.3125 369.5125 -48.3125 359.3125 C-52.23477755 359.3125 -56.1225336 359.6386909 -60.03125 359.93359375 Z M-118.375 366 C-119.20684814 366.17499023 -120.03869629 366.34998047 -120.89575195 366.53027344 C-128.02128563 368.10380877 -134.62005011 370.38079843 -141.3125 373.3125 C-140.65554656 376.38105716 -140.65554656 376.38105716 -138.484375 377.38378906 C-131.54703746 380.08879124 -124.62255468 381.69989895 -117.3125 383.0625 C-116.18199219 383.28292969 -115.05148438 383.50335938 -113.88671875 383.73046875 C-108.63665386 384.85940502 -108.63665386 384.85940502 -103.3125 385.3125 C-103.3125 378.3825 -103.3125 371.4525 -103.3125 364.3125 C-108.73716573 364.3125 -113.14240378 364.88648088 -118.375 366 Z M88.6875 365.3125 C88.6875 371.9125 88.6875 378.5125 88.6875 385.3125 C92.6273663 384.5735858 96.56403936 383.82172083 100.5 383.0625 C101.60021484 382.85753906 102.70042969 382.65257812 103.83398438 382.44140625 C110.97585965 381.05095266 118.08494057 379.46327265 124.6875 376.3125 C125.0175 375.6525 125.3475 374.9925 125.6875 374.3125 C119.28848443 371.19036017 112.99284744 369.15028853 106.0625 367.5625 C105.16015625 367.34207031 104.2578125 367.12164062 103.328125 366.89453125 C98.11306524 365.67058865 94.23221128 365.3125 88.6875 365.3125 Z M-142.3125 385.3125 C-142.3125 396.8625 -142.3125 408.4125 -142.3125 420.3125 C-134.3925 417.8375 -134.3925 417.8375 -126.3125 415.3125 C-122.12505523 414.44673091 -118.0257914 413.65145269 -113.8125 413 C-112.78769531 412.83177734 -111.76289063 412.66355469 -110.70703125 412.49023438 C-108.24384667 412.08737708 -105.77840797 411.698337 -103.3125 411.3125 C-103.3125 405.7025 -103.3125 400.0925 -103.3125 394.3125 C-104.97796875 393.99796875 -106.6434375 393.6834375 -108.359375 393.359375 C-110.59383159 392.92750524 -112.82820203 392.49518964 -115.0625 392.0625 C-116.15433594 391.85753906 -117.24617188 391.65257812 -118.37109375 391.44140625 C-125.10797234 390.12592108 -131.49112234 388.39812263 -137.95800781 386.09082031 C-140.21568906 385.20787869 -140.21568906 385.20787869 -142.3125 385.3125 Z M119.8359375 386.88793945 C109.62369085 390.29243239 99.2624662 392.37303386 88.6875 394.3125 C88.6875 399.9225 88.6875 405.5325 88.6875 411.3125 C90.34136719 411.62703125 91.99523437 411.9415625 93.69921875 412.265625 C95.92455113 412.69754605 98.14980751 413.12985882 100.375 413.5625 C101.45845703 413.76746094 102.54191406 413.97242188 103.65820312 414.18359375 C105.28725586 414.50263672 105.28725586 414.50263672 106.94921875 414.828125 C107.92850342 415.01665039 108.90778809 415.20517578 109.91674805 415.39941406 C115.5783246 416.77036235 121.11989667 418.59939128 126.6875 420.3125 C126.6875 408.7625 126.6875 397.2125 126.6875 385.3125 C124.20254732 385.3125 122.17255385 386.10589703 119.8359375 386.88793945 Z M-93.3125 396.3125 C-93.3125 400.6025 -93.3125 404.8925 -93.3125 409.3125 C-78.2934452 408.56645545 -63.30570119 407.45927457 -48.3125 406.3125 C-48.3125 404.0025 -48.3125 401.6925 -48.3125 399.3125 C-53.27424703 398.88034413 -58.23639861 398.45329208 -63.19897461 398.03076172 C-64.88366257 397.88662247 -66.56823629 397.74114079 -68.25268555 397.59423828 C-70.68769263 397.38212211 -73.12308326 397.17499614 -75.55859375 396.96875 C-76.67010048 396.87031799 -76.67010048 396.87031799 -77.80406189 396.76989746 C-82.98945194 396.33737368 -88.1089157 396.25850691 -93.3125 396.3125 Z M60.5 396.96875 C59.55688965 397.03533813 58.6137793 397.10192627 57.64208984 397.17053223 C54.65703281 397.38189328 51.67227049 397.59713399 48.6875 397.8125 C46.65236204 397.95728858 44.61720594 398.1018224 42.58203125 398.24609375 C37.61697284 398.59861661 32.65217481 398.954617 27.6875 399.3125 C27.6875 401.6225 27.6875 403.9325 27.6875 406.3125 C34.30757655 406.8845401 40.92787693 407.45393339 47.54833984 408.02148438 C49.80067099 408.21488437 52.05295013 408.40889094 54.30517578 408.60351562 C57.54185737 408.88310557 60.77871949 409.16051595 64.015625 409.4375 C65.02304749 409.52499512 66.03046997 409.61249023 67.06842041 409.70263672 C68.47943024 409.82276123 68.47943024 409.82276123 69.91894531 409.9453125 C70.74501282 410.01637207 71.57108032 410.08743164 72.42218018 410.16064453 C74.50655545 410.3003704 76.59844672 410.3125 78.6875 410.3125 C78.6875 405.6925 78.6875 401.0725 78.6875 396.3125 C72.58978538 396.23813763 66.58037325 396.52506034 60.5 396.96875 Z M-39.3125 399.3125 C-39.3125 401.2925 -39.3125 403.2725 -39.3125 405.3125 C-20.1725 405.3125 -1.0325 405.3125 18.6875 405.3125 C18.6875 403.3325 18.6875 401.3525 18.6875 399.3125 C-0.4525 399.3125 -19.5925 399.3125 -39.3125 399.3125 Z M-39.3125 415.3125 C-39.3125 425.5425 -39.3125 435.7725 -39.3125 446.3125 C-35.95786132 447.15115967 -33.6112788 447.43886033 -30.22436523 447.44189453 C-28.70775551 447.44662277 -28.70775551 447.44662277 -27.1605072 447.45144653 C-26.07500076 447.4494223 -24.98949432 447.44739807 -23.87109375 447.4453125 C-22.75187027 447.44626923 -21.63264679 447.44722595 -20.47950745 447.44821167 C-18.11499983 447.44889183 -15.75049035 447.44704895 -13.38598633 447.44287109 C-9.76053695 447.43751557 -6.13521117 447.44282423 -2.50976562 447.44921875 C-0.21354139 447.44855804 2.08268276 447.44727702 4.37890625 447.4453125 C5.46643692 447.44733673 6.55396759 447.44936096 7.67445374 447.45144653 C8.68237473 447.44829437 9.69029572 447.44514221 10.72875977 447.44189453 C11.61604263 447.44109894 12.5033255 447.44030334 13.41749573 447.43948364 C15.85424325 447.40288992 15.85424325 447.40288992 18.6875 446.3125 C18.6875 436.0825 18.6875 425.8525 18.6875 415.3125 C-0.4525 415.3125 -19.5925 415.3125 -39.3125 415.3125 Z M27.6875 415.3125 C27.6875 425.5425 27.6875 435.7725 27.6875 446.3125 C53.48549603 446.62904079 53.48549603 446.62904079 78.6875 441.3125 C78.6875 434.0525 78.6875 426.7925 78.6875 419.3125 C69.05181164 417.83676395 59.54213295 416.80962538 49.8125 416.1875 C48.55953125 416.10113281 47.3065625 416.01476562 46.015625 415.92578125 C39.86785071 415.51636288 33.86394091 415.3125 27.6875 415.3125 Z M-58.46606445 415.57202148 C-59.601726 415.65727333 -59.601726 415.65727333 -60.7603302 415.74424744 C-61.55742905 415.80673172 -62.35452789 415.869216 -63.17578125 415.93359375 C-64.0083696 415.99781021 -64.84095795 416.06202667 -65.69877625 416.12818909 C-67.44779906 416.26399735 -69.196725 416.40105844 -70.94555664 416.53930664 C-73.63326156 416.75064963 -76.32146634 416.9545775 -79.00976562 417.15820312 C-80.71097286 417.29121513 -82.41214608 417.42466313 -84.11328125 417.55859375 C-84.92050125 417.6190538 -85.72772125 417.67951385 -86.55940247 417.74180603 C-90.24433697 417.72267188 -90.24433697 417.72267188 -93.3125 419.3125 C-93.39950342 420.94722882 -93.41951063 422.58564055 -93.41015625 424.22265625 C-93.40693359 425.21201172 -93.40371094 426.20136719 -93.40039062 427.22070312 C-93.39201172 428.26162109 -93.38363281 429.30253906 -93.375 430.375 C-93.37048828 431.41978516 -93.36597656 432.46457031 -93.36132812 433.54101562 C-93.34949913 436.1315666 -93.33301689 438.72200559 -93.3125 441.3125 C-78.79794915 445.27101387 -63.31768375 446.3125 -48.3125 446.3125 C-48.3125 436.0825 -48.3125 425.8525 -48.3125 415.3125 C-53.41077455 415.31176424 -53.41077455 415.31176424 -58.46606445 415.57202148 Z M88.6875 420.3125 C88.6875 426.5825 88.6875 432.8525 88.6875 439.3125 C96.5056444 438.45228987 96.5056444 438.45228987 103.96484375 436.75390625 C105.05474609 436.45033203 106.14464844 436.14675781 107.26757812 435.83398438 C108.37552734 435.51751953 109.48347656 435.20105469 110.625 434.875 C111.76001953 434.56240234 112.89503906 434.24980469 114.06445312 433.92773438 C119.89047711 432.55533295 119.89047711 432.55533295 124.6875 429.3125 C117.15933627 425.92222087 109.72331354 424.06586468 101.625 422.5625 C100.48611328 422.34207031 99.34722656 422.12164062 98.17382812 421.89453125 C93.46595041 420.80848892 93.46595041 420.80848892 88.6875 420.3125 Z M-119.0625 422.625 C-120.12210938 422.83833984 -121.18171875 423.05167969 -122.2734375 423.27148438 C-128.20551108 424.50426642 -133.70843846 426.00454712 -139.3125 428.3125 C-136.95508501 430.66991499 -135.40085466 431.04604976 -132.21875 431.96875 C-131.1875 432.26910156 -130.15625 432.56945312 -129.09375 432.87890625 C-128.0109375 433.18699219 -126.928125 433.49507813 -125.8125 433.8125 C-124.760625 434.12058594 -123.70875 434.42867188 -122.625 434.74609375 C-116.22636619 436.59124434 -109.86049364 438.09990859 -103.3125 439.3125 C-103.3125 433.0425 -103.3125 426.7725 -103.3125 420.3125 C-108.74349188 420.3125 -113.7608083 421.51571319 -119.0625 422.625 Z " fill="#000000" transform="translate(262.3125,14.6875)"/>
<path d="M0 0 C8.07626264 7.61113757 10.86294428 16.228355 11.5625 27.0625 C11.58763672 28.10664063 11.58763672 28.10664063 11.61328125 29.171875 C13.21117707 34.54394192 18.60159648 37.31202686 23.1875 39.9375 C36.51786392 47.83661926 51.24053119 58.65054384 60.25 71.3125 C60.4375 74.125 60.4375 74.125 59.25 76.3125 C56.8125 77.4375 56.8125 77.4375 54.25 78.3125 C53.59 79.3025 52.93 80.2925 52.25 81.3125 C50.11328125 81.71875 50.11328125 81.71875 47.5625 81.8125 C43.95015519 82.05090439 42.01599108 82.41740055 38.625 83.9375 C35.2647783 85.30647921 34.38185543 85.40994804 31 84.875 C27.18157246 83.87279232 27.18157246 83.87279232 24.25 86.3125 C20.40093259 86.73777149 16.52605606 86.59961261 12.75 85.75 C10.15796524 85.29639392 8.45498992 85.53356218 5.875 85.9375 C1.2193096 86.52526158 -1.62344546 85.69320454 -5.75 83.3125 C-8.6875 80.625 -8.6875 80.625 -10.75 78.3125 C-6.47867227 88.78691173 -0.67143744 94.89723493 9.75 99.4375 C23.63488244 104.71180844 38.32065271 107.70522366 52.99609375 109.70703125 C53.84099869 109.82585663 54.68590363 109.94468201 55.55641174 110.06710815 C59.77198363 110.65857506 63.98567264 111.21057987 68.21508789 111.69335938 C78.43760124 112.99533888 83.59720412 115.03228225 90.25 123.3125 C91.52419282 124.48419921 92.82625058 125.62642737 94.15625 126.734375 C99.24634784 131.11387503 103.99005853 135.82987526 108.75 140.5625 C110.09771484 141.87927734 110.09771484 141.87927734 111.47265625 143.22265625 C127.20243006 158.86084477 127.20243006 158.86084477 128.25 167 C128.25 168.093125 128.25 169.18625 128.25 170.3125 C127.59 170.3125 126.93 170.3125 126.25 170.3125 C126.58 170.9725 126.91 171.6325 127.25 172.3125 C127.38415472 174.9848621 127.29318541 177.63500488 127.25 180.3125 C122.85310526 179.81511153 120.92216645 178.47218724 117.8515625 175.33984375 C117.04203125 174.52193359 116.2325 173.70402344 115.3984375 172.86132812 C114.56570313 171.99958984 113.73296875 171.13785156 112.875 170.25 C112.05 169.41533203 111.225 168.58066406 110.375 167.72070312 C106.01374573 163.27983866 101.81165123 158.7430752 97.74707031 154.0300293 C87.64669378 142.44226854 75.54705871 133.38985939 63.25 124.3125 C64.11625 125.36050781 64.11625 125.36050781 65 126.4296875 C65.7425 127.33976563 66.485 128.24984375 67.25 129.1875 C67.9925 130.09242188 68.735 130.99734375 69.5 131.9296875 C71.25 134.3125 71.25 134.3125 71.25 136.3125 C69.64729248 136.29678955 69.64729248 136.29678955 68.01220703 136.28076172 C64.00524312 136.24425245 59.99829358 136.22148826 55.99121094 136.20263672 C54.26494871 136.19264901 52.53870309 136.17905417 50.8125 136.16162109 C41.70883727 136.0720596 33.12672903 135.99762405 24.25 138.3125 C23.92 139.9625 23.59 141.6125 23.25 143.3125 C23.86875 143.56 24.4875 143.8075 25.125 144.0625 C27.60068687 145.51878639 28.20125002 146.69062506 29.25 149.3125 C27.6 149.6425 25.95 149.9725 24.25 150.3125 C24.94520752 150.37058838 25.64041504 150.42867676 26.35668945 150.48852539 C38.49799593 151.85364515 50.07072878 155.35513553 61.78540039 158.70727539 C65.46307758 159.75730275 69.14613757 160.78664373 72.83007812 161.81445312 C75.17222232 162.47794182 77.51403211 163.14261239 79.85546875 163.80859375 C80.95537643 164.11494247 82.05528412 164.4212912 83.18852234 164.73692322 C84.20420792 165.03055252 85.21989349 165.32418182 86.26635742 165.62670898 C87.15900803 165.88048813 88.05165863 166.13426727 88.97135925 166.39573669 C91.42508922 167.38294348 92.66603198 168.20388632 94.25 170.3125 C94.61248449 173.69568857 94.83433618 176.18034865 93.25 179.25 C86.36983453 182.9050879 77.03702162 178.85834145 70.18041992 176.87182617 C68.87402727 176.50143849 67.56737915 176.13195091 66.26049805 175.76329041 C62.73116986 174.76467579 59.20575857 173.75285482 55.6810739 172.73798919 C51.98609929 171.6759418 48.28814606 170.62435775 44.59065247 169.57112122 C38.38743971 167.80227301 32.18679202 166.02464977 25.98754883 164.24194336 C18.82117742 162.18125721 11.65070735 160.13535974 4.47792929 158.09709567 C-2.42953526 156.13378706 -9.33377019 154.15934218 -16.23666954 152.18004799 C-19.17213576 151.33861153 -22.10871588 150.50123765 -25.04627419 149.66713524 C-28.50201345 148.68541183 -31.95483261 147.69402145 -35.40563202 146.6950779 C-37.27695255 146.1558908 -39.15107346 145.62645276 -41.0252533 145.09729004 C-42.1368985 144.77342819 -43.2485437 144.44956635 -44.39387512 144.1158905 C-45.36150693 143.83843081 -46.32913874 143.56097113 -47.32609272 143.27510357 C-49.859113 142.26916808 -51.13517123 141.49431275 -52.75 139.3125 C-53.40427669 133.20591756 -53.40427669 133.20591756 -51.48376465 130.58345032 C-48.68921463 128.53488263 -46.49856049 129.34813331 -43.21606445 129.83895874 C-39.28208154 130.5943742 -35.44487769 131.57751121 -31.59375 132.67578125 C-30.76540649 132.9090361 -29.93706299 133.14229095 -29.08361816 133.38261414 C-27.3514995 133.87378006 -25.62050548 134.36892839 -23.890625 134.86791992 C-21.23385148 135.62962986 -18.57057604 136.36481681 -15.90625 137.09960938 C-14.21829135 137.58173042 -12.53077366 138.06539863 -10.84375 138.55078125 C-10.04594116 138.76761063 -9.24813232 138.98444 -8.42614746 139.20783997 C-6.20898438 139.86450195 -6.20898438 139.86450195 -2.75 141.3125 C-2.06506348 143.23503113 -2.06506348 143.23503113 -1.75 145.3125 C-1.36025739 148.60893873 -1.36025739 148.60893873 0.25 151.3125 C0.62125 150.549375 0.9925 149.78625 1.375 149 C3.6130915 145.79206885 5.69211433 144.8147184 9.25 143.3125 C8.775625 142.77625 8.30125 142.24 7.8125 141.6875 C6.25 139.3125 6.25 139.3125 5.875 136.1875 C5.66875 135.23875 5.4625 134.29 5.25 133.3125 C3.60084268 132.60362598 1.92989415 131.94509612 0.25 131.3125 C-18.44871399 119.38545143 -32.22108711 102.23187849 -41.8125 82.4375 C-42.18286377 81.67735596 -42.55322754 80.91721191 -42.93481445 80.1340332 C-47.11136624 71.07452155 -47.95939442 62.30967346 -48.125 52.4375 C-48.36736708 44.0415651 -49.24482058 37.04019788 -52.75 29.3125 C-51.59371094 28.91417969 -51.59371094 28.91417969 -50.4140625 28.5078125 C-49.41117188 28.15460938 -48.40828125 27.80140625 -47.375 27.4375 C-46.37726563 27.08945313 -45.37953125 26.74140625 -44.3515625 26.3828125 C-41.64557882 25.46467498 -41.64557882 25.46467498 -39.75 23.3125 C-40.3996875 23.01859375 -41.049375 22.7246875 -41.71875 22.421875 C-45.59748871 20.33884866 -48.27666185 18.87714556 -49.59375 14.5234375 C-49.86439071 9.17828357 -49.2715476 5.150044 -45.9375 0.875 C-32.86661889 -11.87707913 -13.54676737 -11.22190961 0 0 Z M-30.75 9.3125 C-31.41 10.9625 -32.07 12.6125 -32.75 14.3125 C-31.52190909 15.95805699 -31.52190909 15.95805699 -29.75 17.3125 C-27.61254078 17.06103421 -26.29074221 16.85324221 -24.75 15.3125 C-24.58333333 12.8125 -24.58333333 12.8125 -24.75 10.3125 C-25.81645115 9.01616379 -25.81645115 9.01616379 -28.3125 9.25 C-29.116875 9.270625 -29.92125 9.29125 -30.75 9.3125 Z " fill="#000000" transform="translate(236.75,167.6875)"/>
<path d="M0 0 C8.79757901 8.70107906 17.96377956 17.79748037 25 28 C25 28.66 25 29.32 25 30 C-41.43276794 26.59367394 -41.43276794 26.59367394 -61 13 C-61 12.67 -61 12.34 -61 12 C-59.20909747 11.80533668 -57.41723495 11.61948787 -55.625 11.4375 C-54.12839844 11.28087891 -54.12839844 11.28087891 -52.6015625 11.12109375 C-50 11 -50 11 -48 12 C-45.89044938 12.19738723 -45.89044938 12.19738723 -43.5625 12.1875 C-42.38880859 12.20876953 -42.38880859 12.20876953 -41.19140625 12.23046875 C-38.70794013 12.14086064 -38.70794013 12.14086064 -36 10 C-33.94921875 10.12890625 -33.94921875 10.12890625 -31.6875 10.5625 C-27.24797973 11.19155255 -24.84857706 10.44056106 -21 8 C-19 7 -19 7 -16.6875 7.625 C-13.07180377 8.12951575 -12.00192706 7.02455546 -9 5 C-6.90553244 3.92295881 -4.79092229 2.89484577 -2.671875 1.8671875 C-1.01272939 1.113434 -1.01272939 1.113434 0 0 Z " fill="#000000" transform="translate(303,246)"/>
<path d="M0 0 C-0.165 1.051875 -0.33 2.10375 -0.5 3.1875 C-0.42810364 6.96828293 -0.42810364 6.96828293 1.78125 8.578125 C3.81591026 9.82471262 5.85299109 10.96004256 8 12 C5.02727946 15.43809851 2.26928622 16.07262645 -2.10546875 16.84765625 C-9.40898244 17.23205171 -16.74066959 14.65127607 -23 11 C-19.25390108 7.78702712 -15.34208874 5.42660483 -10.9375 3.25 C-10.32583984 2.93417969 -9.71417969 2.61835938 -9.08398438 2.29296875 C-5.71869981 0.61214554 -3.84710026 0 0 0 Z " fill="#000000" transform="translate(183,179)"/>
</svg>
