<?xml version="1.0" encoding="UTF-8"?>
<svg version="1.1" xmlns="http://www.w3.org/2000/svg" width="512" height="512">
<path d="M0 0 C5.58003158 3.05322483 9.15543317 6.79541885 11.3125 12.8125 C12.33336106 20.10792173 10.66709703 25.39260147 7.3125 31.8125 C9.27509766 31.98072266 9.27509766 31.98072266 11.27734375 32.15234375 C16.04074713 32.68740078 20.35046098 33.82484215 24.875 35.375 C25.64730957 35.63676025 26.41961914 35.89852051 27.21533203 36.16821289 C35.28930578 39.00441266 42.81197028 42.71927261 50.3125 46.8125 C51.405625 47.40160156 52.49875 47.99070313 53.625 48.59765625 C66.51709453 55.81657143 85.16312761 68.40742678 92.3125 81.8125 C92 84.5625 92 84.5625 91.3125 86.8125 C89.05615234 87.52832031 89.05615234 87.52832031 86.3125 87.8125 C84.33056641 86.44824219 84.33056641 86.44824219 82.4140625 84.359375 C81.69565186 83.60019775 80.97724121 82.84102051 80.23706055 82.05883789 C79.47820557 81.23504639 78.71935059 80.41125488 77.9375 79.5625 C61.84484278 62.86330707 43.34433379 51.31857225 21.3125 43.8125 C20.9825 44.1425 20.6525 44.4725 20.3125 44.8125 C20.99054688 45.5653125 21.66859375 46.318125 22.3671875 47.09375 C38.18537875 64.99735292 49.9818164 86.43539807 55.3125 109.8125 C55.55589111 110.86945068 55.55589111 110.86945068 55.80419922 111.94775391 C59.62785259 129.44816949 62.04764856 153.60705431 56.3125 170.8125 C56.90834396 170.8027565 57.50418793 170.793013 58.11808777 170.78297424 C64.5179274 170.7245479 70.80404283 171.07985471 77.17578125 171.65234375 C78.17079147 171.73875626 79.1658017 171.82516876 80.19096375 171.91419983 C82.27601004 172.09624482 84.36087408 172.28038859 86.44555664 172.46655273 C89.63317307 172.75072863 92.82139008 173.02721994 96.00976562 173.30273438 C98.04431057 173.48131873 100.07881723 173.66033983 102.11328125 173.83984375 C103.53680656 173.9633445 103.53680656 173.9633445 104.98908997 174.08934021 C105.87738998 174.16934769 106.76569 174.24935516 107.6809082 174.33178711 C108.45682816 174.40062607 109.23274811 174.46946503 110.03218079 174.54039001 C112.49373568 174.83412681 114.88849063 175.29715811 117.3125 175.8125 C114.82442038 149.34838039 110.03139671 125.53118847 95.81640625 102.765625 C94.28145453 99.75153798 93.87659613 98.13253496 94.3125 94.8125 C95.3125 93.8125 95.3125 93.8125 98.375 93.75 C99.344375 93.770625 100.31375 93.79125 101.3125 93.8125 C116.22698586 118.95406188 125.60100414 144.61341331 125.47935486 174.20565796 C125.47671062 175.15628219 125.47406639 176.10690642 125.47134203 177.08633745 C125.38850248 186.82071466 124.6463026 196.4573221 123.76782227 206.14697266 C123.60115294 208.06481556 123.43531621 209.98273096 123.27023315 211.90071106 C122.82630983 217.03046129 122.37073962 222.15911254 121.912637 227.28761339 C121.43277531 232.6809468 120.96339656 238.0751937 120.49266052 243.46932983 C119.70291039 252.50193422 118.90605105 261.5338876 118.10424805 270.56542969 C117.07500904 282.15925754 116.05777728 293.75410695 115.04420567 305.34931374 C114.17041418 315.34429807 113.29113534 325.33879853 112.41098666 335.33322477 C112.12896697 338.53837247 111.84771121 341.74358653 111.56656075 344.94881058 C111.12569276 349.97090559 110.68140345 354.99268679 110.23443222 360.01424217 C110.07087124 361.8572478 109.90839985 363.7003505 109.74708748 365.54355431 C109.52709902 368.05483576 109.30314822 370.56573265 109.07814026 373.0765686 C109.01490698 373.80864552 108.9516737 374.54072244 108.88652426 375.29498351 C108.59084226 378.54923641 108.24818484 381.67420967 107.3125 384.8125 C108.385 384.874375 109.4575 384.93625 110.5625 385 C114.3125 385.8125 114.3125 385.8125 116.51953125 387.8671875 C118.76164827 391.55031654 118.87033864 394.5692027 118.75 398.75 C118.75708984 399.44029297 118.76417969 400.13058594 118.77148438 400.84179688 C118.71356153 405.54245881 117.84522612 408.85696038 115.3125 412.8125 C110.1791926 415.87274095 107.06522482 415.81028122 101.3125 414.8125 C101.27511719 415.92367188 101.23773438 417.03484375 101.19921875 418.1796875 C100.60606615 432.7029391 98.56009327 444.18284073 87.5625 454.625 C79.96254429 460.71062561 73.34240384 462.08805826 63.76919556 462.01045227 C62.84492693 462.00592491 61.9206583 462.00139756 60.96838152 461.99673301 C50.99959151 461.88799211 41.11744167 461.09430675 31.19287109 460.20776367 C29.17815417 460.0345504 27.16337119 459.86210399 25.14852905 459.69035339 C19.74762039 459.22755381 14.34776157 458.75346655 8.94808149 458.27657104 C4.42013261 457.87779692 -0.10831551 457.48486203 -4.63677347 457.09191781 C-15.31862579 456.16499551 -25.99965593 455.22900871 -36.68017578 454.28686523 C-47.6703523 453.31753719 -58.66168145 452.36220998 -69.65369093 451.413912 C-79.13171987 450.59581651 -88.60903688 449.76982057 -98.08581483 448.93735868 C-103.72884251 448.44169335 -109.37207423 447.9487938 -115.01597977 447.46321678 C-120.31441177 447.00695512 -125.61187953 446.54075904 -130.90877914 446.06704903 C-132.84538699 445.89547213 -134.78229967 445.72729462 -136.7195282 445.56287384 C-152.34431736 444.23338487 -166.19305274 443.05114124 -177.5 431 C-186.70441855 419.85218913 -186.22811649 407.74256366 -185.00390625 394.0625 C-184.6875 391.8125 -184.6875 391.8125 -183.6875 389.8125 C-185.2653125 389.9053125 -185.2653125 389.9053125 -186.875 390 C-191.67239573 389.76406251 -194.06644806 388.55854872 -197.30859375 385.06640625 C-200.3855282 380.03696949 -199.28210109 372.39683426 -197.9375 366.8125 C-196.32916917 362.95250602 -194.43298149 360.68524075 -190.6875 358.8125 C-188.68789988 358.772508 -186.68702758 358.76903201 -184.6875 358.8125 C-184.63311705 357.65541062 -184.57873409 356.49832125 -184.52270317 355.30616856 C-183.9693097 343.95362494 -183.15570082 332.64674683 -182.15283203 321.32592773 C-181.99965712 319.56912475 -181.84675217 317.81229821 -181.6940918 316.05545044 C-181.28397178 311.34655225 -180.86962139 306.63803623 -180.45403528 301.92961764 C-180.19345835 298.97507055 -179.93383157 296.02044149 -179.67452621 293.06578255 C-178.76674474 282.72234364 -177.85548411 272.37921811 -176.94091797 262.03637695 C-176.09334655 252.45012391 -175.25350626 242.86321467 -174.41724503 233.27596897 C-173.69439862 224.99297412 -172.96608112 216.71047176 -172.23362243 208.42832142 C-171.79824042 203.50428017 -171.36496528 198.58007757 -170.93725967 193.65536308 C-170.53474472 189.02284912 -170.12533663 184.39099216 -169.71095276 179.7595253 C-169.56141892 178.07571203 -169.41419557 176.39169141 -169.26966476 174.70744133 C-168.53331787 166.14346049 -167.6072882 157.6539303 -166.21603394 149.16908264 C-166.09881961 148.44876403 -165.98160528 147.72844542 -165.86083901 146.98629898 C-160.31831893 114.779466 -142.07267873 83.38324828 -116.6875 62.8125 C-115.75421875 62.04164062 -114.8209375 61.27078125 -113.859375 60.4765625 C-87.87103905 39.45435906 -57.54815052 30.69576716 -24.6875 27.8125 C-25.01129639 27.0383374 -25.33509277 26.2641748 -25.66870117 25.46655273 C-27.68837244 20.20514693 -27.38343472 14.75379158 -25.5 9.5 C-19.19025377 0.14416938 -10.69494831 -3.4441359 0 0 Z M-16.6875 10.8125 C-19.27857284 14.22800511 -19.19038306 17.64575464 -18.6875 21.8125 C-16.90273759 24.78489241 -14.83541945 27.23854027 -11.6875 28.8125 C-6.75371607 29.30587839 -4.61830765 29.33713704 -0.25 26.875 C2.6408465 23.42008589 3.33755885 21.44274803 3.55078125 17.03125 C3.16696191 13.45732569 1.68009726 11.43605372 -0.6875 8.8125 C-6.33640336 4.66997087 -11.68462578 6.71923927 -16.6875 10.8125 Z M-110.6875 68.8125 C-111.22713379 69.26850586 -111.76676758 69.72451172 -112.32275391 70.19433594 C-135.20988298 89.74669423 -151.66361077 117.24068013 -157.6875 146.8125 C-157.6875 148.4625 -157.6875 150.1125 -157.6875 151.8125 C-151.7475 152.4725 -145.8075 153.1325 -139.6875 153.8125 C-140.0175 155.7925 -140.3475 157.7725 -140.6875 159.8125 C-146.9575 159.8125 -153.2275 159.8125 -159.6875 159.8125 C-161.25728563 177.37153233 -162.82237785 194.93097403 -164.38131714 212.49097252 C-165.105339 220.6450754 -165.8309939 228.79902669 -166.56054688 236.95263672 C-167.19670619 244.06251048 -167.82974691 251.17265397 -168.45910454 258.28313315 C-168.79219327 262.04514628 -169.12680113 265.80700983 -169.46514893 269.56855392 C-169.78415715 273.11564601 -170.09896547 276.66308686 -170.41068268 280.21082687 C-170.57949426 282.12000131 -170.75264342 284.02879069 -170.92596436 285.93756104 C-171.50543992 292.58384405 -171.83871072 299.14085571 -171.6875 305.8125 C-160.78822162 307.15593953 -149.8884046 308.31717296 -138.94580078 309.24511719 C-136.66003715 309.43983954 -134.3749631 309.64162165 -132.08984375 309.84375 C-130.60159873 309.97177602 -129.11331865 310.09939525 -127.625 310.2265625 C-126.31402344 310.3395166 -125.00304687 310.4524707 -123.65234375 310.56884766 C-120.72186454 310.74893499 -117.86978021 310.83822169 -114.93969727 310.82772827 C-113.7403933 310.8244304 -113.7403933 310.8244304 -112.51686096 310.8210659 C-111.61132729 310.81682578 -111.61132729 310.81682578 -110.6875 310.8125 C-109.56567487 298.23095618 -108.44402271 285.64939695 -107.32257366 273.0678196 C-106.80147376 267.2216382 -106.2803208 261.37546154 -105.7590332 255.52929688 C-105.65835981 254.40018513 -105.55768642 253.27107338 -105.45396233 252.10774612 C-105.25189574 249.84152638 -105.0498046 247.57530882 -104.84768867 245.30909348 C-104.3497988 239.72529917 -103.85267728 234.14143834 -103.35714722 228.55743408 C-101.74836256 210.43562634 -101.74836256 210.43562634 -100.95337582 201.80362129 C-100.66364959 198.65557206 -100.37725778 195.50722396 -100.09122658 192.35883713 C-99.96299032 190.95850586 -99.83302684 189.55833135 -99.70108604 188.15834427 C-99.52258359 186.26401807 -99.35063451 184.36907783 -99.17895508 182.47412109 C-99.08310623 181.44225677 -98.98725739 180.41039246 -98.88850403 179.34725952 C-98.61341582 174.50969155 -98.6875 169.65788311 -98.6875 164.8125 C-107.5975 163.8225 -116.5075 162.8325 -125.6875 161.8125 C-126.6875 157.8125 -126.6875 157.8125 -125.6875 155.8125 C-111.8275 156.3075 -111.8275 156.3075 -97.6875 156.8125 C-97.419375 154.75 -97.15125 152.6875 -96.875 150.5625 C-96.58764679 148.42698669 -96.29582591 146.29212004 -96.00390625 144.15722656 C-95.79059835 142.57650967 -95.58237241 140.99509974 -95.37890625 139.41308594 C-90.45738753 101.27131588 -73.55487406 68.21379341 -43.7265625 43.34375 C-42.2114323 42.17752991 -40.68184903 41.02943577 -39.12890625 39.9140625 C-38.65324219 39.55054688 -38.17757812 39.18703125 -37.6875 38.8125 C-37.6875 38.4825 -37.6875 38.1525 -37.6875 37.8125 C-63.32457447 36.81881494 -91.81467468 52.68664674 -110.6875 68.8125 Z M-52.484375 61.57421875 C-67.96380435 78.03913971 -78.65714919 98.12108146 -84.6875 119.8125 C-85.00332031 120.93269531 -85.31914062 122.05289063 -85.64453125 123.20703125 C-87.5169718 130.83515112 -88.15283739 138.45894201 -88.765625 146.2734375 C-88.85537598 147.38485107 -88.94512695 148.49626465 -89.03759766 149.64135742 C-89.25711646 152.364854 -89.47367104 155.08855179 -89.6875 157.8125 C-82.35998613 158.53267723 -75.03162748 159.24374314 -67.70263672 159.94873047 C-65.21383041 160.18918705 -62.72521845 160.43166477 -60.23681641 160.67626953 C-56.6427556 161.02919334 -53.04803916 161.37464047 -49.453125 161.71875 C-48.35575012 161.8281189 -47.25837524 161.93748779 -46.12774658 162.0501709 C-38.95932753 162.72701499 -31.88635711 162.93969899 -24.6875 162.8125 C-23.78320346 160.09961039 -23.43629185 158.00595058 -23.18760681 155.18441772 C-23.10209061 154.23408661 -23.0165744 153.28375549 -22.9284668 152.30462646 C-22.83855469 151.2635675 -22.74864258 150.22250854 -22.65600586 149.14990234 C-22.50948326 147.50306961 -22.50948326 147.50306961 -22.36000061 145.82296753 C-22.03707752 142.18177402 -21.71953908 138.54013412 -21.40234375 134.8984375 C-21.17977718 132.3683595 -20.95700111 129.83829992 -20.73402405 127.30825806 C-20.26681748 121.99721603 -19.80222448 116.6859541 -19.33959961 111.37451172 C-18.80622388 105.25134655 -18.26740715 99.12867831 -17.72574323 93.0062412 C-17.20372851 87.10391441 -16.68614846 81.20120467 -16.17038155 75.2983284 C-15.95106943 72.79368498 -15.73058487 70.28914392 -15.50889397 67.78470993 C-15.19866929 64.27394735 -14.89349504 60.76278021 -14.58959961 57.25146484 C-14.49766327 56.22255127 -14.40572693 55.1936377 -14.31100464 54.13354492 C-13.81518835 48.33427855 -13.60079849 42.63306947 -13.6875 36.8125 C-28.42926707 36.8125 -42.69353511 51.90644808 -52.484375 61.57421875 Z M-5.6875 37.8125 C-6.82847745 50.40165584 -7.96752062 62.99098515 -9.10423851 75.58052635 C-9.63238225 81.42925552 -10.16113916 87.27792777 -10.69140625 93.12646484 C-13.91963626 128.45036463 -13.91963626 128.45036463 -16.6875 163.8125 C-13.69175699 164.811081 -11.2241681 165.1163742 -8.08618164 165.38500977 C-6.36408226 165.53505211 -6.36408226 165.53505211 -4.60719299 165.68812561 C-3.36654587 165.79233322 -2.12589874 165.89654083 -0.84765625 166.00390625 C0.42598282 166.11347153 1.69962189 166.2230368 3.01185608 166.33592224 C5.70750429 166.56760945 8.40334635 166.79683743 11.09936523 167.02416992 C14.55077597 167.31526867 18.00176215 167.61107522 21.45262814 167.90855503 C24.74820103 168.19229002 28.04402262 168.4730687 31.33984375 168.75390625 C32.57846664 168.86013809 33.81708954 168.96636993 35.09324646 169.07582092 C36.24446487 169.17269699 37.39568329 169.26957306 38.58178711 169.36938477 C39.59421982 169.45519302 40.60665253 169.54100128 41.64976501 169.62940979 C43.86628143 169.78181792 46.09074995 169.8125 48.3125 169.8125 C57.47032801 142.33901596 48.39089583 106.92033074 36.24951172 81.67919922 C28.05261723 65.34948186 14.09412349 44.30963166 -3.6875 37.8125 C-4.3475 37.8125 -5.0075 37.8125 -5.6875 37.8125 Z M-90.6875 165.8125 C-92.25689415 183.51922428 -93.82177136 201.22634173 -95.38131714 218.93393612 C-96.10559463 227.15642413 -96.8313327 235.37877828 -97.56054688 243.60083008 C-98.19634975 250.76969123 -98.82937383 257.93879149 -99.45910454 265.10818869 C-99.7924345 268.902004 -100.12712601 272.69568776 -100.46514893 276.48908806 C-100.78374234 280.06494179 -101.09859849 283.6411056 -101.41068268 287.21753311 C-101.5798088 289.14476171 -101.75281379 291.0716487 -101.92596436 292.9985199 C-102.4719852 299.29916263 -102.8067853 305.48829074 -102.6875 311.8125 C-88.69918099 313.60090592 -74.67918667 314.79873653 -60.625 315.9375 C-58.38995152 316.12082037 -56.1549253 316.30441233 -53.91992188 316.48828125 C-48.50936662 316.93281182 -43.09854846 317.3740159 -37.6875 317.8125 C-36.5649315 305.37867787 -35.44323986 292.94477694 -34.32257366 280.5107832 C-33.80179919 274.73298218 -33.28075731 268.95520558 -32.7590332 263.17749023 C-31.66628575 251.07442319 -30.57685078 238.97107232 -29.4966259 226.86688042 C-29.06353717 222.01407626 -28.62925465 217.16139359 -28.19000244 212.30914307 C-27.81909823 208.21130937 -27.45305604 204.11307381 -27.09122658 200.01442909 C-26.9630234 198.57160534 -26.83306248 197.12893637 -26.70108604 195.68645287 C-25.94135482 187.36944414 -25.51856587 179.16498972 -25.6875 170.8125 C-32.98084208 170.15641143 -40.27451825 169.50417662 -47.56863403 168.85674286 C-50.95624502 168.55593527 -54.34373097 168.25384439 -57.73095703 167.94873047 C-61.63279287 167.59732012 -65.53512767 167.25165371 -69.4375 166.90625 C-70.64301514 166.7968811 -71.84853027 166.68751221 -73.09057617 166.5748291 C-74.80144409 166.42467346 -74.80144409 166.42467346 -76.546875 166.27148438 C-77.54170898 166.18265991 -78.53654297 166.09383545 -79.56152344 166.00231934 C-83.281302 165.77644244 -86.96115402 165.7829398 -90.6875 165.8125 Z M-16.6875 171.8125 C-18.38490977 173.50990977 -18.05904429 175.74965253 -18.26332092 178.07997131 C-18.36566544 179.2225238 -18.46800995 180.36507629 -18.57345581 181.54225159 C-18.6820694 182.80713913 -18.79068298 184.07202667 -18.90258789 185.37524414 C-19.02058113 186.71218157 -19.13896285 188.04908475 -19.25770569 189.38595581 C-19.58002959 193.02851913 -19.89662326 196.67156021 -20.21204305 200.31472707 C-20.54286712 204.12693097 -20.87826209 207.93873301 -21.21299744 211.75059509 C-21.77514359 218.16052244 -22.33360615 224.5707628 -22.88989258 230.98120117 C-23.53210392 238.38130971 -24.17996649 245.78090661 -24.8309384 253.18024927 C-25.45728019 260.30104672 -26.07967119 267.4221842 -26.70025444 274.54348564 C-26.96414055 277.5708974 -27.22937788 280.59818622 -27.49571419 283.62538338 C-27.80999269 287.199628 -28.12078886 290.77415934 -28.42897606 294.34893417 C-28.5960468 296.27750578 -28.7664995 298.20578348 -28.93707275 300.13404846 C-29.44302145 306.04273054 -29.92755557 311.88141618 -29.6875 317.8125 C-27.99509947 319.50490053 -25.77646471 319.18157339 -23.45263672 319.38500977 C-22.33412323 319.48503799 -21.21560974 319.58506622 -20.0632019 319.68812561 C-18.84351715 319.79233322 -17.6238324 319.89654083 -16.3671875 320.00390625 C-15.1200296 320.11347153 -13.8728717 320.2230368 -12.58792114 320.33592224 C-9.93996128 320.56751147 -7.29191828 320.797326 -4.64355469 321.02416992 C-1.26398398 321.31379829 2.11496474 321.61004316 5.49376106 321.90855503 C8.72733515 322.19352429 11.9613343 322.4735661 15.1953125 322.75390625 C17.00662155 322.91325401 17.00662155 322.91325401 18.85452271 323.07582092 C24.36025998 323.54475162 29.78633609 323.94891742 35.3125 323.8125 C38.58281478 289.36839046 41.63623179 254.90702014 44.625 220.4375 C44.76207367 218.85665871 44.76207367 218.85665871 44.9019165 217.24388123 C46.04134726 204.10030939 47.17814473 190.95651081 48.3125 177.8125 C38.61407587 176.63826686 28.92397686 175.52234054 19.1875 174.70703125 C17.62902344 174.57454231 17.62902344 174.57454231 16.0390625 174.43937683 C13.88521576 174.25733914 11.73124366 174.0767785 9.57714844 173.89770508 C6.26183113 173.62076749 2.94735061 173.33492459 -0.3671875 173.04882812 C-2.47391333 172.87185924 -4.58068262 172.69540681 -6.6875 172.51953125 C-7.6789502 172.43314896 -8.67040039 172.34676666 -9.69189453 172.25776672 C-10.59794434 172.18406357 -11.50399414 172.11036041 -12.4375 172.03442383 C-13.23671875 171.96717606 -14.0359375 171.89992828 -14.859375 171.8306427 C-15.46265625 171.82465561 -16.0659375 171.81866852 -16.6875 171.8125 Z M55.3125 179.8125 C55.07004687 181.56206414 54.89092069 183.32043509 54.73667908 185.07997131 C54.63433456 186.2225238 54.53199005 187.36507629 54.42654419 188.54225159 C54.3179306 189.80713913 54.20931702 191.07202667 54.09741211 192.37524414 C53.97941887 193.71218157 53.86103715 195.04908475 53.74229431 196.38595581 C53.41997041 200.02851913 53.10337674 203.67156021 52.78795695 207.31472707 C52.45713288 211.12693097 52.12173791 214.93873301 51.78700256 218.75059509 C51.22485641 225.16052244 50.66639385 231.5707628 50.11010742 237.98120117 C49.46789608 245.38130971 48.82003351 252.78090661 48.1690616 260.18024927 C47.54271981 267.30104672 46.92032881 274.4221842 46.29974556 281.54348564 C46.03585945 284.5708974 45.77062212 287.59818622 45.50428581 290.62538338 C45.19000731 294.199628 44.87921114 297.77415934 44.57102394 301.34893417 C44.4039532 303.27750578 44.2335005 305.20578348 44.06292725 307.13404846 C43.55617496 313.05211521 43.18488052 318.87269852 43.3125 324.8125 C50.8743307 325.52913561 58.43662809 326.2406813 65.99926758 326.94873047 C68.57066634 327.1900775 71.14195701 327.43257925 73.71313477 327.67626953 C77.41394519 328.02681991 81.11512754 328.37318339 84.81640625 328.71875 C85.96146133 328.8281189 87.10651642 328.93748779 88.28627014 329.0501709 C93.6529893 329.54733247 98.92249769 329.94801231 104.3125 329.8125 C107.29901094 301.91117554 109.59203317 273.94447511 111.98240101 245.98737597 C112.5635805 239.1910736 113.14723762 232.3949846 113.73104703 225.59890771 C114.92751278 211.67033163 116.12104174 197.74150525 117.3125 183.8125 C112.90900594 183.33582669 108.50530241 182.86111496 104.1015625 182.38671875 C102.87187744 182.25358276 101.64219238 182.12044678 100.37524414 181.98327637 C76.97107313 177.43335191 76.97107313 177.43335191 55.3125 179.8125 Z M-172.6875 313.8125 C-173.96125907 323.14888298 -174.98532423 332.48858165 -175.8125 341.875 C-175.89999512 342.84961182 -175.98749023 343.82422363 -176.07763672 344.82836914 C-176.15771973 345.76285889 -176.23780273 346.69734863 -176.3203125 347.66015625 C-176.39137207 348.48523682 -176.46243164 349.31031738 -176.53564453 350.16040039 C-176.72006743 353.38127806 -176.7107917 356.58709483 -176.6875 359.8125 C-168.96486794 360.52840043 -161.24185156 361.24003843 -153.51855469 361.94873047 C-150.89183683 362.19026402 -148.26520813 362.43276909 -145.63867188 362.67626953 C-141.86090811 363.02632707 -138.08283636 363.37287662 -134.3046875 363.71875 C-132.54655228 363.88280334 -132.54655228 363.88280334 -130.75289917 364.0501709 C-129.652211 364.15027466 -128.55152283 364.25037842 -127.41748047 364.35351562 C-126.45373505 364.44234009 -125.48998962 364.53116455 -124.49703979 364.62268066 C-121.55215113 364.8216445 -118.63819302 364.84453978 -115.6875 364.8125 C-114.46185638 355.09862236 -113.42038912 345.37862321 -112.5625 335.625 C-112.43125732 334.1563147 -112.43125732 334.1563147 -112.29736328 332.65795898 C-112.21728027 331.72540283 -112.13719727 330.79284668 -112.0546875 329.83203125 C-111.98362793 329.00807861 -111.91256836 328.18412598 -111.83935547 327.33520508 C-111.66805452 324.48946126 -111.6631503 321.66271049 -111.6875 318.8125 C-119.41013206 318.09659957 -127.13314844 317.38496157 -134.85644531 316.67626953 C-137.48316317 316.43473598 -140.10979187 316.19223091 -142.73632812 315.94873047 C-146.51409189 315.59867293 -150.29216364 315.25212338 -154.0703125 314.90625 C-155.24240265 314.7968811 -156.4144928 314.68751221 -157.62210083 314.5748291 C-158.722789 314.47472534 -159.82347717 314.37462158 -160.95751953 314.27148438 C-162.40313766 314.13824768 -162.40313766 314.13824768 -163.87796021 314.00231934 C-166.82284887 313.8033555 -169.73680698 313.78046022 -172.6875 313.8125 Z M-103.6875 319.8125 C-104.17490008 324.10327138 -104.65077956 328.39525364 -105.125 332.6875 C-105.25970703 333.87214844 -105.39441406 335.05679687 -105.53320312 336.27734375 C-106.61122172 346.11097682 -107.21232453 355.93366564 -107.6875 365.8125 C-100.03835335 366.53103345 -92.38855779 367.24232931 -84.73828125 367.94873047 C-82.13884446 368.18959868 -79.53955744 368.43208918 -76.94042969 368.67626953 C-73.19244505 369.02809184 -69.4439506 369.37396853 -65.6953125 369.71875 C-63.96814499 369.88280334 -63.96814499 369.88280334 -62.20608521 370.0501709 C-55.67728783 370.64410533 -49.24309843 370.95819281 -42.6875 370.8125 C-41.41088032 361.45514938 -40.38786649 352.09532982 -39.5625 342.6875 C-39.43125732 341.21301392 -39.43125732 341.21301392 -39.29736328 339.70874023 C-38.90052307 335.06203683 -38.57745807 330.48142199 -38.6875 325.8125 C-41.20130897 324.55559552 -43.24581086 324.48543567 -46.05175781 324.23999023 C-47.73425629 324.08994789 -47.73425629 324.08994789 -49.45074463 323.93687439 C-50.66840515 323.83266678 -51.88606567 323.72845917 -53.140625 323.62109375 C-54.38873962 323.51152847 -55.63685425 323.4019632 -56.92279053 323.28907776 C-59.56898388 323.05770265 -62.21525755 322.82791928 -64.86181641 322.60083008 C-68.24252368 322.310618 -71.62268384 322.01453454 -75.00270462 321.71644497 C-78.23593858 321.43190238 -81.46953995 321.15161403 -84.703125 320.87109375 C-85.9126886 320.76486191 -87.1222522 320.65863007 -88.36846924 320.54917908 C-89.50274353 320.45230301 -90.63701782 320.35542694 -91.80566406 320.25561523 C-92.79890686 320.16980698 -93.79214966 320.08399872 -94.81549072 319.99559021 C-97.78075789 319.80655482 -100.71704408 319.78124854 -103.6875 319.8125 Z M-30.6875 325.8125 C-33.09243812 348.77912531 -33.09243812 348.77912531 -34.6875 371.8125 C-20.61030879 373.74756704 -6.48128718 374.96614167 7.671875 376.1953125 C10.19535115 376.41644773 12.71880869 376.63779539 15.24224854 376.85934448 C20.49662519 377.32002716 25.75116618 377.77878374 31.00585938 378.23583984 C37.07300246 378.76358434 43.13984472 379.29468373 49.2065351 379.82760537 C55.07329784 380.34291866 60.94023457 380.85622638 66.80725861 381.36855698 C69.29364159 381.58580904 71.77998527 381.80351137 74.26628876 382.0216713 C77.72653112 382.32493672 81.18696345 382.62593112 84.64746094 382.92626953 C85.67392731 383.01663483 86.70039368 383.10700012 87.75796509 383.20010376 C89.17034958 383.32198059 89.17034958 383.32198059 90.61126709 383.44631958 C91.83557749 383.55303828 91.83557749 383.55303828 93.08462143 383.66191292 C95.15646031 383.80195294 97.23593371 383.8125 99.3125 383.8125 C100.64261132 374.85547377 101.64110111 365.89483174 102.4375 356.875 C102.56874268 355.41984985 102.56874268 355.41984985 102.70263672 353.93530273 C103.16424835 348.53760461 103.4020387 343.2295912 103.3125 337.8125 C82.16115238 335.66882814 82.16115238 335.66882814 61 333.625 C60.14390137 333.54137207 59.28780273 333.45774414 58.40576172 333.37158203 C53.01810952 332.87361775 47.72345295 332.74194595 42.3125 332.8125 C41.88203896 336.9930857 41.45489581 341.17399341 41.03076172 345.35522461 C40.88615552 346.77621509 40.74065896 348.19711526 40.59423828 349.61791992 C40.38337189 351.66561903 40.17575861 353.71362649 39.96875 355.76171875 C39.84306641 356.99237061 39.71738281 358.22302246 39.58789062 359.4909668 C39.35592334 362.28876373 39.25664469 365.0080979 39.3125 367.8125 C37.31295254 367.85504356 35.31208364 367.85330783 33.3125 367.8125 C32.9825 367.4825 32.6525 367.1525 32.3125 366.8125 C32.36682427 364.81783398 32.49468843 362.82510529 32.65234375 360.8359375 C32.74580078 359.60746094 32.83925781 358.37898438 32.93554688 357.11328125 C33.03931641 355.81777344 33.14308594 354.52226562 33.25 353.1875 C33.44894589 350.65382781 33.64562906 348.11997674 33.83984375 345.5859375 C33.92999756 344.45591309 34.02015137 343.32588867 34.11303711 342.16162109 C34.31897133 338.70384181 34.34575108 335.27555903 34.3125 331.8125 C12.67190578 329.45487805 -8.98944378 327.55005785 -30.6875 325.8125 Z M-188.6875 366.8125 C-190.94241788 371.32233576 -191.01181261 374.86673265 -190.6875 379.8125 C-188.3311812 382.1688188 -187.63880411 382.13299989 -184.41800117 382.41732979 C-183.07200903 382.54279871 -183.07200903 382.54279871 -181.69882512 382.67080235 C-180.21729801 382.79497757 -180.21729801 382.79497757 -178.70584106 382.92166138 C-177.14935887 383.06284806 -177.14935887 383.06284806 -175.5614326 383.20688701 C-172.09651144 383.51903915 -168.63059941 383.8183232 -165.16455078 384.11767578 C-162.71370024 384.33588023 -160.26292163 384.55489407 -157.81221199 384.77467537 C-152.67422767 385.23385931 -147.53580731 385.68763489 -142.39694977 386.13694 C-135.12361244 386.77299783 -127.85144025 387.42153865 -120.57952881 388.07366943 C-106.07243669 389.37253039 -91.56371545 390.65265674 -77.0546875 391.9296875 C-75.76680659 392.04308928 -74.47892568 392.15649106 -73.15201807 392.27332926 C-60.96256906 393.34663477 -48.7730524 394.41916803 -36.58331108 395.48914909 C-33.82035096 395.7316874 -31.05739164 395.97423495 -28.29443359 396.21679688 C-27.60827237 396.27703459 -26.92211115 396.3372723 -26.21515717 396.3993354 C-14.95621311 397.38790661 -3.69776659 398.38203779 7.56050421 399.37824391 C19.22804476 400.41056864 30.89602794 401.4377622 42.56443489 402.46024811 C49.07428243 403.03083036 55.58391569 403.60364053 62.09308243 404.18194199 C68.16541021 404.72132593 74.2382546 405.25444746 80.3115654 405.78264427 C82.53869206 405.97745 84.7656184 406.17456128 86.99232483 406.37411308 C90.02222391 406.64529888 93.052725 406.90828382 96.08352661 407.16915894 C96.96886837 407.25037109 97.85421013 407.33158325 98.76638043 407.41525638 C99.57705782 407.48333315 100.38773522 407.55140991 101.22297859 407.62154961 C101.92125082 407.68301198 102.61952305 407.74447435 103.33895504 407.80779922 C105.5233679 407.81300227 107.25200221 407.53882595 109.3125 406.8125 C110.63479189 404.16791621 110.40927194 402.13488699 110.375 399.1875 C110.36146484 397.68316406 110.36146484 397.68316406 110.34765625 396.1484375 C110.33605469 395.37757813 110.32445312 394.60671875 110.3125 393.8125 C107.28196173 392.09230014 104.83982153 391.4776964 101.3788805 391.17597008 C100.38021546 391.08490309 99.38155042 390.9938361 98.35262281 390.90000951 C97.25760204 390.80856149 96.16258127 390.71711346 95.03437805 390.62289429 C93.86941447 390.51909663 92.70445089 390.41529897 91.50418538 390.30835593 C88.27023013 390.02189252 85.03573551 389.74279812 81.80087388 389.46679401 C78.31215026 389.16734045 74.8242607 388.85845139 71.33625793 388.55073547 C64.50168128 387.94929336 57.6663723 387.35660437 50.83077822 386.7668507 C42.86841154 386.0795587 34.90680299 385.38367384 26.94521441 384.68743606 C12.73497179 383.44505642 -1.47594523 382.21056601 -15.68725586 380.98046875 C-29.4706456 379.78740481 -43.25353249 378.58873497 -57.03588867 377.38378906 C-57.88402988 377.30963962 -58.7321711 377.23549018 -59.60601356 377.15909378 C-60.87604213 377.04805964 -60.87604213 377.04805964 -62.17172784 376.93478239 C-77.86526746 375.56279115 -93.55925095 374.19593913 -109.25345397 372.83155864 C-114.79978848 372.34927434 -120.34599185 371.86549958 -125.8921566 371.38126755 C-132.65736153 370.79070997 -139.42281852 370.20313725 -146.18860068 369.61922882 C-149.63894358 369.32140005 -153.08917073 369.02237292 -156.53911591 368.7199688 C-160.28392829 368.39241087 -164.02912525 368.0696624 -167.77445984 367.74813843 C-168.858327 367.65222896 -169.94219416 367.55631949 -171.05890578 367.45750368 C-176.96126815 366.95663907 -182.76381387 366.72025988 -188.6875 366.8125 Z " fill="#000000" transform="translate(279.6875,13.1875)"/>
<path d="M0 0 C1.2684375 0.12375 1.2684375 0.12375 2.5625 0.25 C4.85883824 3.69450737 5.10266485 6.18812283 5.5625 10.25 C8.2025 10.58 10.8425 10.91 13.5625 11.25 C13.94341797 10.29287109 13.94341797 10.29287109 14.33203125 9.31640625 C14.67621094 8.49011719 15.02039063 7.66382813 15.375 6.8125 C15.71144531 5.98878906 16.04789063 5.16507812 16.39453125 4.31640625 C17.5625 2.25 17.5625 2.25 20.5625 1.25 C21.5525 1.58 22.5425 1.91 23.5625 2.25 C25.16553519 8.05840024 23.36877049 12.10219171 20.5625 17.25 C17.52408509 20.11961408 15.87196666 20.22504301 11.6875 20.5625 C6.85381835 20.35233993 2.17836126 19.9197233 -1.3125 16.3125 C-3.21874409 12.81771917 -3.57391232 10.03942472 -3.5625 6.125 C-3.56507812 5.23554688 -3.56765625 4.34609375 -3.5703125 3.4296875 C-3.3813816 0.3289981 -3.09965407 0.31791324 0 0 Z " fill="#000000" transform="translate(131.4375,463.75)"/>
<path d="M0 0 C0.78375 0.04125 1.5675 0.0825 2.375 0.125 C3.8096589 2.6117421 4.4238814 4.4366189 4.875 7.3125 C5.04 8.240625 5.205 9.16875 5.375 10.125 C8.08379335 11.47939668 10.38433268 11.19001451 13.375 11.125 C13.75591797 10.16787109 13.75591797 10.16787109 14.14453125 9.19140625 C14.48871094 8.36511719 14.83289063 7.53882813 15.1875 6.6875 C15.52394531 5.86378906 15.86039062 5.04007812 16.20703125 4.19140625 C17.375 2.125 17.375 2.125 20.375 1.125 C21.695 2.445 23.015 3.765 24.375 5.125 C22.20072657 14.94737556 22.20072657 14.94737556 18.6875 18.25 C13.40665324 21.23915854 9.32988456 20.45081409 3.625 19.5 C-0.60238892 17.7114893 -1.69486204 16.28222022 -3.625 12.125 C-4.32026757 8.79180549 -4.8088625 5.53258496 -4.625 2.125 C-2.625 0.125 -2.625 0.125 0 0 Z " fill="#000000" transform="translate(314.625,479.875)"/>
<path d="M0 0 C5.06693071 2.13462713 9.38568715 5.11858161 13.8984375 8.234375 C14.82527344 8.8428125 15.75210937 9.45125 16.70703125 10.078125 C17.58230469 10.68140625 18.45757812 11.2846875 19.359375 11.90625 C20.15907715 12.44862305 20.9587793 12.99099609 21.78271484 13.54980469 C23.5234375 15.484375 23.5234375 15.484375 23.84619141 18.64550781 C23.5234375 21.484375 23.5234375 21.484375 22.5234375 22.484375 C18.27236944 22.94851942 16.19535776 21.982681 12.765625 19.52734375 C11.89292969 18.90923828 11.02023437 18.29113281 10.12109375 17.65429688 C9.22261719 17.00009766 8.32414062 16.34589844 7.3984375 15.671875 C6.49222656 15.02927734 5.58601563 14.38667969 4.65234375 13.72460938 C-3.43416695 7.94425173 -3.43416695 7.94425173 -5.4765625 5.484375 C-5.2890625 2.859375 -5.2890625 2.859375 -4.4765625 0.484375 C-2.4765625 -0.515625 -2.4765625 -0.515625 0 0 Z " fill="#000000" transform="translate(439.4765625,271.515625)"/>
<path d="M0 0 C0.66 0.66 1.32 1.32 2 2 C1.8828125 4.5 1.8828125 4.5 1 7 C-0.7578125 8.1875 -0.7578125 8.1875 -3.125 9 C-4.01832031 9.31453125 -4.91164063 9.6290625 -5.83203125 9.953125 C-7.40017578 10.47132813 -7.40017578 10.47132813 -9 11 C-10.27544318 11.45114075 -11.55014814 11.90437241 -12.82421875 12.359375 C-24.71826073 16.5227258 -24.71826073 16.5227258 -29 16 C-29.66 15.34 -30.32 14.68 -31 14 C-30.8828125 11.5 -30.8828125 11.5 -30 9 C-28.2421875 7.8125 -28.2421875 7.8125 -25.875 7 C-24.98167969 6.68546875 -24.08835937 6.3709375 -23.16796875 6.046875 C-22.12253906 5.70140625 -21.07710938 5.3559375 -20 5 C-18.72455682 4.54885925 -17.44985186 4.09562759 -16.17578125 3.640625 C-4.28173927 -0.5227258 -4.28173927 -0.5227258 0 0 Z " fill="#000000" transform="translate(478,185)"/>
<path d="M0 0 C3.95982774 0.30583368 6.26482921 1.63899747 9.3203125 4.08984375 C10.49400391 5.01893555 10.49400391 5.01893555 11.69140625 5.96679688 C12.49449219 6.61712891 13.29757813 7.26746094 14.125 7.9375 C15.73122206 9.21813651 17.33797104 10.49811249 18.9453125 11.77734375 C19.65187988 12.34702881 20.35844727 12.91671387 21.08642578 13.50366211 C22.66995512 14.74191821 24.32742506 15.88495004 26 17 C26.25 20.0625 26.25 20.0625 26 23 C25 24 25 24 22.70532227 24.24731445 C19.45072649 23.94978666 18.23717371 23.08044666 15.71484375 21.04296875 C14.93689453 20.42486328 14.15894531 19.80675781 13.35742188 19.16992188 C12.55884766 18.51572266 11.76027344 17.86152344 10.9375 17.1875 C10.13505859 16.54490234 9.33261719 15.90230469 8.50585938 15.24023438 C7.00841116 14.04103311 5.51501231 12.83674465 4.02709961 11.62573242 C2.64481373 10.51714015 1.22031452 9.45969388 -0.23608398 8.45043945 C-2 7 -2 7 -2.375 4.4375 C-2 2 -2 2 0 0 Z " fill="#000000" transform="translate(56,139)"/>
<path d="M0 0 C1 1 1 1 1.1875 3.4375 C1 6 1 6 -1 8 C-4.68004432 9.2760798 -8.47779348 10.16001694 -12.25 11.125 C-13.80654297 11.54072266 -13.80654297 11.54072266 -15.39453125 11.96484375 C-16.40386719 12.22652344 -17.41320312 12.48820313 -18.453125 12.7578125 C-19.83226074 13.11576904 -19.83226074 13.11576904 -21.23925781 13.48095703 C-24.25601149 14.04813233 -26.93784146 14.22333845 -30 14 C-30.66 13.34 -31.32 12.68 -32 12 C-31.625 9.375 -31.625 9.375 -31 7 C-27.15048201 5.81760633 -23.29473492 4.65694713 -19.4375 3.5 C-17.80844727 2.99919922 -17.80844727 2.99919922 -16.14648438 2.48828125 C-10.62806535 0.84449686 -5.77217453 -0.58288438 0 0 Z " fill="#000000" transform="translate(64,233)"/>
</svg>
