<?xml version="1.0" encoding="UTF-8"?>
<svg version="1.1" xmlns="http://www.w3.org/2000/svg" width="512" height="512">
<path d="M0 0 C0.94456055 0.16628906 1.88912109 0.33257813 2.86230469 0.50390625 C23.07330938 4.08812383 42.82387834 9.71543069 61.75 17.6875 C63.02653442 18.22165527 63.02653442 18.22165527 64.32885742 18.76660156 C69.82826295 21.18448695 74.85749743 23.77641815 78.27734375 28.921875 C81.39340725 37.55097393 78.99553062 45.07611756 75.5625 53.25 C75.20687988 54.11206055 74.85125977 54.97412109 74.48486328 55.86230469 C58.64216438 93.73957444 36.47018284 129.42384523 9 160 C8.51370117 160.54269531 8.02740234 161.08539063 7.52636719 161.64453125 C2.17826561 167.59238676 -3.28242001 173.4055258 -9 179 C-11.6673536 181.65383661 -14.31803032 184.32221279 -16.9453125 187.015625 C-22.73405728 192.92334147 -28.56463766 198.56273572 -35.07421875 203.6875 C-37.24400634 205.4024723 -39.35571023 207.14246541 -41.45703125 208.9375 C-55.2591568 220.59649524 -69.82780001 226.75293889 -87 232 C-86.21238281 232.60714844 -85.42476563 233.21429688 -84.61328125 233.83984375 C-80.83107201 236.96624391 -79.27966066 239.71155731 -78.6796875 244.62109375 C-78.43369405 250.66433293 -79.05233045 254.30543891 -83 259 C-86.15978883 262.40559563 -89.44254573 265.67584866 -92.75 268.9375 C-93.61882812 269.80568359 -94.48765625 270.67386719 -95.3828125 271.56835938 C-99.90307671 276.05808126 -104.49783428 280.39234496 -109.32910156 284.54516602 C-111.3163468 286.27543988 -113.17016076 288.10480936 -115 290 C-118.1498003 293.19261312 -121.41219489 296.17161279 -124.8125 299.09375 C-127.35511399 301.30945648 -129.83110198 303.59098592 -132.3125 305.875 C-137.71514946 310.79593174 -143.30438174 315.42434808 -149 320 C-150.22588849 321.00574536 -151.45111277 322.01230068 -152.67578125 323.01953125 C-171.39804347 338.33903651 -188.02199704 343.94296507 -212 345 C-211.76023438 345.54527344 -211.52046875 346.09054687 -211.2734375 346.65234375 C-208.91121335 352.66060951 -208.4964589 356.97826679 -211 363 C-213.08403339 367.41637714 -215.70695201 369.44402113 -220.1796875 371.3671875 C-224.38706691 372.82912082 -228.67931194 373.92938703 -233 375 C-234.27133789 375.32097656 -234.27133789 375.32097656 -235.56835938 375.6484375 C-245.23921723 378.05729587 -254.96490925 380.14283847 -264.8125 381.6875 C-265.60785156 381.81568115 -266.40320313 381.9438623 -267.22265625 382.07592773 C-272.02268815 382.77893874 -276.67436737 383.05684467 -281.52734375 383.0625 C-293.09009333 382.7674439 -293.09009333 382.7674439 -302.9765625 387.6640625 C-304.95833708 390.94268581 -306.05502868 394.47044582 -307.12304688 398.13232422 C-308.76520395 403.502251 -310.88153465 408.70688175 -312.89508057 413.94613647 C-313.6077228 415.82934379 -314.29034965 417.72382315 -314.97216797 419.6184082 C-318.65410172 429.75021069 -322.48358091 438.85899263 -331.1875 445.5625 C-331.75210938 446.01882813 -332.31671875 446.47515625 -332.8984375 446.9453125 C-334.04610549 447.87118398 -335.19887322 448.79077375 -336.35693359 449.70361328 C-338.76461959 451.60328827 -341.13014277 453.55345548 -343.5 455.5 C-344.82644531 456.57701172 -344.82644531 456.57701172 -346.1796875 457.67578125 C-348.79589859 459.83180008 -351.37010569 462.02781992 -353.93774414 464.2409668 C-356.60075062 466.52403921 -359.29765584 468.76357724 -362 471 C-362.79277344 471.6703125 -363.58554687 472.340625 -364.40234375 473.03125 C-369.54427311 476.97370579 -373.79562454 477.81463471 -380.26171875 477.453125 C-385.57677712 476.57360036 -388.06945139 474.18204824 -391.3125 470.0625 C-403.01231025 448.82951103 -389.92964474 406.36273534 -383.75 384.9375 C-378.69909729 368.03075365 -372.9828123 351.22098918 -365.1171875 335.40234375 C-362.85296229 328.50674878 -365.51533786 321.73628873 -367.4375 315 C-376.43276286 281.68695317 -372.39991328 246.53798603 -362 214 C-361.7220459 213.12633789 -361.4440918 212.25267578 -361.15771484 211.35253906 C-354.71749966 191.56278694 -345.77266142 172.46219192 -335.0625 154.625 C-334.63864014 153.9124707 -334.21478027 153.19994141 -333.77807617 152.46582031 C-330.80312475 147.70449559 -327.39306943 143.42290008 -322.0625 141.1875 C-321.381875 141.125625 -320.70125 141.06375 -320 141 C-318.39125 140.8453125 -318.39125 140.8453125 -316.75 140.6875 C-310.80661258 141.18278229 -306.65400276 143.30464717 -302.5 147.5625 C-301 150 -301 150 -301 153 C-300.34 153 -299.68 153 -299 153 C-298.84362061 152.42604492 -298.68724121 151.85208984 -298.52612305 151.26074219 C-295.15213085 139.4171494 -290.02868568 128.21755442 -285 117 C-284.66371582 116.24509277 -284.32743164 115.49018555 -283.98095703 114.71240234 C-277.51734434 100.66681832 -265.24637932 90.48072946 -253.75537109 80.5300293 C-251.64636645 78.69176336 -249.60713519 76.78435687 -247.5625 74.875 C-240.42214839 68.43661844 -232.70505003 62.73714839 -225 57 C-224.40703125 56.5551123 -223.8140625 56.11022461 -223.203125 55.65185547 C-185.5173341 27.48656957 -142.23703961 8.54903597 -96 0 C-95.15179688 -0.16516113 -94.30359375 -0.33032227 -93.4296875 -0.50048828 C-63.83384767 -6.03825475 -29.54395336 -5.62741969 0 0 Z M-137 136 C-139.77348194 137.30859314 -142.39852599 138.67981467 -145.0625 140.1875 C-145.86526367 140.63875244 -146.66802734 141.09000488 -147.49511719 141.55493164 C-164.00046567 151.01819205 -179.55237159 162.83019049 -193.5234375 175.734375 C-195.5867605 177.62195756 -197.675108 179.46616933 -199.78515625 181.30078125 C-211.95351332 191.92399512 -223.36779037 203.21104842 -234.27294922 215.12011719 C-235.93264985 216.92668983 -237.60585505 218.71946577 -239.28515625 220.5078125 C-244.6182169 226.20067609 -249.72202613 231.98921996 -254.60546875 238.078125 C-256.88101471 240.85481077 -259.22263606 243.55308168 -261.59570312 246.24584961 C-268.56044287 254.15724303 -274.98813759 262.38354062 -281.32763672 270.79980469 C-283.59794063 273.78666291 -285.9151002 276.73554806 -288.23266602 279.68579102 C-295.75648591 289.27167179 -302.95187362 299.06043976 -310 309 C-310.89066162 310.25079346 -310.89066162 310.25079346 -311.79931641 311.52685547 C-315.40744918 316.59962854 -318.98104456 321.69395104 -322.50488281 326.82568359 C-323.75051742 328.6371829 -325.0102402 330.43898475 -326.2734375 332.23828125 C-343.00122142 357.46651047 -354.72623656 392.88819673 -358 423 C-351.20994856 418.86995813 -348.56175508 415.11011827 -346.1875 407.625 C-345.52516885 405.7358339 -344.85559448 403.84919532 -344.1796875 401.96484375 C-343.6552002 400.4950708 -343.6552002 400.4950708 -343.12011719 398.99560547 C-326.0140581 353.24770988 -296.29695936 311.09594419 -265.38085938 273.68066406 C-263.51780455 271.4131129 -261.69562664 269.11418653 -259.875 266.8125 C-255.04685821 260.76472322 -250.02967031 254.87991633 -245 249 C-244.49307617 248.40525879 -243.98615234 247.81051758 -243.46386719 247.19775391 C-236.28769552 238.78824769 -228.91744853 230.60035115 -221.3359375 222.5546875 C-218.34972917 219.38450284 -215.421475 216.16740051 -212.5 212.9375 C-207.83219365 207.82086612 -202.98323705 202.91380889 -198.03320312 198.07006836 C-195.0711879 195.15341655 -192.25688568 192.18036912 -189.55078125 189.0234375 C-186.08974446 185.01804346 -182.34200051 181.44250493 -178.4375 177.875 C-173.00925146 172.85767495 -167.69555916 167.75795125 -162.5 162.5 C-158.50291618 158.46321005 -154.49068367 154.53710521 -150.15234375 150.86328125 C-147.03694541 148.16628487 -144.02317302 145.36204994 -141 142.5625 C-140.41081787 142.01706543 -139.82163574 141.47163086 -139.21459961 140.90966797 C-137.80896703 139.60727159 -136.40437284 138.30375466 -135 137 C-135.99 136.505 -135.99 136.505 -137 136 Z " fill="#000000" transform="translate(413,19)"/>
</svg>
