<?xml version="1.0" encoding="UTF-8"?>
<svg version="1.1" xmlns="http://www.w3.org/2000/svg" width="512" height="512">
<path d="M0 0 C6.32442428 4.63227062 12.48314032 10.74308792 14.5859375 18.5234375 C14.7109375 21.3359375 14.7109375 21.3359375 14.5859375 23.5234375 C15.28074219 23.20117188 15.97554687 22.87890625 16.69140625 22.546875 C23.02993555 20.30572159 30.92232704 20.33078701 37.0859375 23.1484375 C40.78260259 25.34137442 43.14148674 28.00953953 45.5859375 31.5234375 C45.5859375 32.1834375 45.5859375 32.8434375 45.5859375 33.5234375 C46.58560547 33.0903125 46.58560547 33.0903125 47.60546875 32.6484375 C56.39878852 29.1065129 63.89716895 27.92112521 72.9609375 31.2109375 C76.99964548 33.02579995 79.73085308 35.08054158 82.5859375 38.5234375 C83.2871875 39.2453125 83.9884375 39.9671875 84.7109375 40.7109375 C89.19771062 47.44109719 89.9824793 54.06398685 89.10546875 61.98046875 C88.55650612 64.66749635 87.68077028 67.01388253 86.5859375 69.5234375 C87.45605469 69.76126953 87.45605469 69.76126953 88.34375 70.00390625 C95.34565993 72.09523578 100.03138322 74.6362434 103.8984375 81.0859375 C106.55394321 86.49530098 107.44369337 91.52846984 106.5859375 97.5234375 C104.94721267 101.69973996 102.83977647 105.62343759 100.36889648 109.36767578 C99.32785831 111.53549517 99.32785831 111.53549517 100.34936523 113.78735352 C100.81802002 114.60905029 101.2866748 115.43074707 101.76953125 116.27734375 C102.53801392 117.6682019 102.53801392 117.6682019 103.32202148 119.0871582 C103.88348877 120.07675537 104.44495605 121.06635254 105.0234375 122.0859375 C110.58861295 132.31753947 115.05216485 142.43562071 118.5859375 153.5234375 C118.81861328 154.23709473 119.05128906 154.95075195 119.29101562 155.68603516 C120.9667345 160.91251163 122.35258921 166.17609784 123.5859375 171.5234375 C123.78348633 172.36358398 123.98103516 173.20373047 124.18457031 174.06933594 C130.54245073 202.46648106 130.34997054 235.23186551 123.5859375 263.5234375 C123.26447754 264.87888672 123.26447754 264.87888672 122.93652344 266.26171875 C118.64655707 283.72131985 112.21027669 300.43495161 103.4675293 316.14550781 C100.9237209 320.61749757 100.9237209 320.61749757 99.5859375 325.5234375 C100.8739103 327.22540155 102.21580411 328.88688929 103.5859375 330.5234375 C106.85558097 336.59563251 107.65485904 341.9825925 106.08203125 348.6640625 C103.96149221 355.01356226 100.54411424 359.71369064 94.5234375 362.8359375 C91.91468298 364.06024407 89.39697273 364.89111109 86.5859375 365.5234375 C86.89917969 366.24144531 87.21242188 366.95945312 87.53515625 367.69921875 C90.5520467 375.80781277 90.01608353 383.66773052 86.5859375 391.5234375 C83.38097597 398.06311608 78.02191911 401.4048643 71.5859375 404.5234375 C62.53526224 407.45159714 54.02248643 405.17873143 45.5859375 401.5234375 C45.33714844 402.28140625 45.08835937 403.039375 44.83203125 403.8203125 C43.45780267 406.8013977 42.29688294 407.89930478 39.6484375 409.7734375 C38.95878906 410.27359375 38.26914062 410.77375 37.55859375 411.2890625 C33.73901616 413.67913481 30.54719542 413.63087373 26.1484375 413.5859375 C25.01535156 413.57691406 23.88226563 413.56789063 22.71484375 413.55859375 C21.16603516 413.54119141 21.16603516 413.54119141 19.5859375 413.5234375 C18.2659375 413.5234375 16.9459375 413.5234375 15.5859375 413.5234375 C15.37839844 414.1525 15.17085937 414.7815625 14.95703125 415.4296875 C11.28775387 425.62383051 5.19799167 432.45040891 -4.4140625 437.5234375 C-13.47338992 441.20378926 -23.55208277 440.24660151 -32.4140625 436.5234375 C-39.7404098 432.88428466 -44.60799411 427.75712999 -48.4140625 420.5234375 C-49.42352054 417.47253083 -49.94989862 414.7210109 -50.4140625 411.5234375 C-51.11917969 411.84570312 -51.82429688 412.16796875 -52.55078125 412.5 C-58.57709791 414.65401769 -65.82745718 414.62733946 -71.7265625 412.0234375 C-76.18279689 409.44498741 -79.29076603 405.54468171 -82.4140625 401.5234375 C-83.00832031 401.8121875 -83.60257812 402.1009375 -84.21484375 402.3984375 C-91.45769743 405.64251504 -98.07863303 407.03812083 -105.86328125 404.828125 C-114.08002264 401.50794766 -119.83216897 396.47366988 -123.53515625 388.37109375 C-126.06441176 380.17630591 -125.00953917 372.16382543 -121.4140625 364.5234375 C-122.4453125 364.4409375 -123.4765625 364.3584375 -124.5390625 364.2734375 C-131.53114885 362.92013047 -135.30517091 359.00195962 -139.4140625 353.5234375 C-142.79149666 348.15509478 -142.07937934 341.60443341 -141.4140625 335.5234375 C-140.22108231 332.13720911 -138.79544402 329.22680864 -136.4140625 326.5234375 C-135.4240625 326.1934375 -134.4340625 325.8634375 -133.4140625 325.5234375 C-133.98253906 324.54246094 -134.55101562 323.56148438 -135.13671875 322.55078125 C-148.16991461 299.87250969 -157.26605493 276.45696164 -161.4140625 250.5234375 C-161.63835937 249.23824219 -161.86265625 247.95304688 -162.09375 246.62890625 C-168.93727699 200.36478885 -159.49430397 148.64379971 -133.4140625 109.5234375 C-134.8990625 109.0284375 -134.8990625 109.0284375 -136.4140625 108.5234375 C-141.5121342 102.73604906 -142.18813349 96.30365625 -141.8984375 88.8359375 C-140.98548823 82.59254248 -138.00798235 78.77820482 -133.4140625 74.6484375 C-129.16567038 71.63915975 -126.63874375 70.5234375 -121.4140625 70.5234375 C-121.9090625 69.4715625 -122.4040625 68.4196875 -122.9140625 67.3359375 C-125.69601893 59.77918085 -125.7397959 51.51898179 -122.4140625 44.1484375 C-118.5853925 37.51567117 -113.00253766 32.27704518 -105.60546875 29.9609375 C-97.01766669 28.24643869 -90.20122776 29.73965221 -82.4140625 33.5234375 C-81.91777344 32.90855469 -81.42148438 32.29367188 -80.91015625 31.66015625 C-73.71391106 23.09839964 -73.71391106 23.09839964 -67.4140625 21.5234375 C-61.28452728 21.03307468 -56.07529174 20.92093102 -50.4140625 23.5234375 C-50.3728125 22.5746875 -50.3315625 21.6259375 -50.2890625 20.6484375 C-49.19277183 13.14189164 -44.21407995 6.37447897 -38.34375 1.76953125 C-26.75021849 -5.71697999 -12.11038642 -7.40732373 0 0 Z " fill="#79BBFD" transform="translate(258.4140625,38.4765625)"/>
<path d="M0 0 C6.32442428 4.63227062 12.48314032 10.74308792 14.5859375 18.5234375 C14.7109375 21.3359375 14.7109375 21.3359375 14.5859375 23.5234375 C15.28074219 23.20117188 15.97554687 22.87890625 16.69140625 22.546875 C23.02993555 20.30572159 30.92232704 20.33078701 37.0859375 23.1484375 C40.78260259 25.34137442 43.14148674 28.00953953 45.5859375 31.5234375 C45.5859375 32.1834375 45.5859375 32.8434375 45.5859375 33.5234375 C46.58560547 33.0903125 46.58560547 33.0903125 47.60546875 32.6484375 C56.39878852 29.1065129 63.89716895 27.92112521 72.9609375 31.2109375 C76.99964548 33.02579995 79.73085308 35.08054158 82.5859375 38.5234375 C83.2871875 39.2453125 83.9884375 39.9671875 84.7109375 40.7109375 C89.19771062 47.44109719 89.9824793 54.06398685 89.10546875 61.98046875 C88.55650612 64.66749635 87.68077028 67.01388253 86.5859375 69.5234375 C87.45605469 69.76126953 87.45605469 69.76126953 88.34375 70.00390625 C95.34565993 72.09523578 100.03138322 74.6362434 103.8984375 81.0859375 C106.55394321 86.49530098 107.44369337 91.52846984 106.5859375 97.5234375 C104.94721267 101.69973996 102.83977647 105.62343759 100.36889648 109.36767578 C99.32785831 111.53549517 99.32785831 111.53549517 100.34936523 113.78735352 C100.81802002 114.60905029 101.2866748 115.43074707 101.76953125 116.27734375 C102.53801392 117.6682019 102.53801392 117.6682019 103.32202148 119.0871582 C103.88348877 120.07675537 104.44495605 121.06635254 105.0234375 122.0859375 C110.58861295 132.31753947 115.05216485 142.43562071 118.5859375 153.5234375 C118.81861328 154.23709473 119.05128906 154.95075195 119.29101562 155.68603516 C120.9667345 160.91251163 122.35258921 166.17609784 123.5859375 171.5234375 C123.78348633 172.36358398 123.98103516 173.20373047 124.18457031 174.06933594 C130.54245073 202.46648106 130.34997054 235.23186551 123.5859375 263.5234375 C123.26447754 264.87888672 123.26447754 264.87888672 122.93652344 266.26171875 C118.64655707 283.72131985 112.21027669 300.43495161 103.4675293 316.14550781 C100.9237209 320.61749757 100.9237209 320.61749757 99.5859375 325.5234375 C100.8739103 327.22540155 102.21580411 328.88688929 103.5859375 330.5234375 C106.85558097 336.59563251 107.65485904 341.9825925 106.08203125 348.6640625 C103.96149221 355.01356226 100.54411424 359.71369064 94.5234375 362.8359375 C91.91468298 364.06024407 89.39697273 364.89111109 86.5859375 365.5234375 C86.89917969 366.24144531 87.21242188 366.95945312 87.53515625 367.69921875 C90.5520467 375.80781277 90.01608353 383.66773052 86.5859375 391.5234375 C83.38097597 398.06311608 78.02191911 401.4048643 71.5859375 404.5234375 C62.53526224 407.45159714 54.02248643 405.17873143 45.5859375 401.5234375 C45.33714844 402.28140625 45.08835937 403.039375 44.83203125 403.8203125 C43.45780267 406.8013977 42.29688294 407.89930478 39.6484375 409.7734375 C38.95878906 410.27359375 38.26914062 410.77375 37.55859375 411.2890625 C33.73901616 413.67913481 30.54719542 413.63087373 26.1484375 413.5859375 C25.01535156 413.57691406 23.88226563 413.56789063 22.71484375 413.55859375 C21.16603516 413.54119141 21.16603516 413.54119141 19.5859375 413.5234375 C18.2659375 413.5234375 16.9459375 413.5234375 15.5859375 413.5234375 C15.37839844 414.1525 15.17085937 414.7815625 14.95703125 415.4296875 C11.28775387 425.62383051 5.19799167 432.45040891 -4.4140625 437.5234375 C-13.47338992 441.20378926 -23.55208277 440.24660151 -32.4140625 436.5234375 C-39.7404098 432.88428466 -44.60799411 427.75712999 -48.4140625 420.5234375 C-49.42352054 417.47253083 -49.94989862 414.7210109 -50.4140625 411.5234375 C-51.11917969 411.84570312 -51.82429688 412.16796875 -52.55078125 412.5 C-58.57709791 414.65401769 -65.82745718 414.62733946 -71.7265625 412.0234375 C-76.18279689 409.44498741 -79.29076603 405.54468171 -82.4140625 401.5234375 C-83.00832031 401.8121875 -83.60257812 402.1009375 -84.21484375 402.3984375 C-91.45769743 405.64251504 -98.07863303 407.03812083 -105.86328125 404.828125 C-114.08002264 401.50794766 -119.83216897 396.47366988 -123.53515625 388.37109375 C-126.06441176 380.17630591 -125.00953917 372.16382543 -121.4140625 364.5234375 C-122.4453125 364.4409375 -123.4765625 364.3584375 -124.5390625 364.2734375 C-131.53114885 362.92013047 -135.30517091 359.00195962 -139.4140625 353.5234375 C-142.79149666 348.15509478 -142.07937934 341.60443341 -141.4140625 335.5234375 C-140.22108231 332.13720911 -138.79544402 329.22680864 -136.4140625 326.5234375 C-135.4240625 326.1934375 -134.4340625 325.8634375 -133.4140625 325.5234375 C-133.98253906 324.54246094 -134.55101562 323.56148438 -135.13671875 322.55078125 C-148.16991461 299.87250969 -157.26605493 276.45696164 -161.4140625 250.5234375 C-161.63835937 249.23824219 -161.86265625 247.95304688 -162.09375 246.62890625 C-168.93727699 200.36478885 -159.49430397 148.64379971 -133.4140625 109.5234375 C-134.8990625 109.0284375 -134.8990625 109.0284375 -136.4140625 108.5234375 C-141.5121342 102.73604906 -142.18813349 96.30365625 -141.8984375 88.8359375 C-140.98548823 82.59254248 -138.00798235 78.77820482 -133.4140625 74.6484375 C-129.16567038 71.63915975 -126.63874375 70.5234375 -121.4140625 70.5234375 C-121.9090625 69.4715625 -122.4040625 68.4196875 -122.9140625 67.3359375 C-125.69601893 59.77918085 -125.7397959 51.51898179 -122.4140625 44.1484375 C-118.5853925 37.51567117 -113.00253766 32.27704518 -105.60546875 29.9609375 C-97.01766669 28.24643869 -90.20122776 29.73965221 -82.4140625 33.5234375 C-81.91777344 32.90855469 -81.42148438 32.29367188 -80.91015625 31.66015625 C-73.71391106 23.09839964 -73.71391106 23.09839964 -67.4140625 21.5234375 C-61.28452728 21.03307468 -56.07529174 20.92093102 -50.4140625 23.5234375 C-50.3728125 22.5746875 -50.3315625 21.6259375 -50.2890625 20.6484375 C-49.19277183 13.14189164 -44.21407995 6.37447897 -38.34375 1.76953125 C-26.75021849 -5.71697999 -12.11038642 -7.40732373 0 0 Z M-92.4140625 99.5234375 C-93.07921875 100.12414062 -93.744375 100.72484375 -94.4296875 101.34375 C-112.74709024 118.54423794 -124.80639254 143.60996526 -131.4140625 167.5234375 C-131.76339844 168.70421875 -132.11273438 169.885 -132.47265625 171.1015625 C-136.70222436 185.91279733 -137.76917772 200.50199042 -137.72973633 215.83154297 C-137.72657364 218.38943089 -137.75016099 220.94615965 -137.77539062 223.50390625 C-137.83292477 238.30216668 -135.97612924 252.61332111 -131.7890625 266.8359375 C-131.41273682 268.12769897 -131.41273682 268.12769897 -131.02880859 269.44555664 C-120.38060366 304.53377582 -98.78769759 337.12457102 -66.4140625 355.5234375 C-43.60669547 367.36154705 -17.06961555 372.07823306 8.01953125 364.71875 C9.19644531 364.32429688 10.37335938 363.92984375 11.5859375 363.5234375 C13.27396484 362.96269531 13.27396484 362.96269531 14.99609375 362.390625 C28.40585249 357.56375117 39.65639573 350.49349967 50.5859375 341.5234375 C51.74802734 340.57597656 51.74802734 340.57597656 52.93359375 339.609375 C76.11416361 320.04658194 92.95861152 288.02670371 98.5859375 258.5234375 C98.84890625 257.28851563 99.111875 256.05359375 99.3828125 254.78125 C101.26362889 245.72493749 102.34900652 236.78211237 102.5859375 227.5234375 C102.61316895 226.5010498 102.64040039 225.47866211 102.66845703 224.42529297 C102.99887619 209.79749125 102.84561958 195.81342173 99.5859375 181.5234375 C99.33650391 180.35022949 99.33650391 180.35022949 99.08203125 179.15332031 C91.23158759 142.44522726 71.70109181 106.93065686 40.33203125 85.27734375 C-4.18964729 56.9356254 -54.60979694 63.87579112 -92.4140625 99.5234375 Z " fill="#F8CA46" transform="translate(258.4140625,38.4765625)"/>
<path d="M0 0 C5.76092044 3.41387878 8.5819627 6.89253163 10.8984375 13.125 C11.38318122 16.13114703 11.37696128 19.02472419 11.2734375 22.0625 C11.26054687 22.86026855 11.24765625 23.65803711 11.234375 24.47998047 C11.11339569 29.09326172 10.59502442 33.25721396 9.3515625 37.70703125 C8.68378215 41.27044536 8.66775476 44.8243679 8.6484375 48.4375 C8.63941406 49.13246582 8.63039063 49.82743164 8.62109375 50.54345703 C8.64246548 54.20425654 8.76064996 57.07639453 10.8984375 60.125 C14.45382589 61.9026942 18.02421112 61.75500338 21.8984375 61.125 C25.46501477 59.46095863 28.65361604 57.34229466 31.8984375 55.125 C37.09727677 51.60939148 40.64158037 50.23116327 46.8984375 51.125 C50.16510663 52.88453039 52.33384292 55.24128674 54.3359375 58.375 C55.5449639 64.28579571 54.71286828 69.34742954 51.6484375 74.5625 C47.2374367 80.65692623 40.94918242 84.79775577 34.8984375 89.125 C28.65558714 93.60269938 22.98648435 97.81120482 19.8984375 105.125 C18.80522717 112.3706964 20.26653665 118.8211285 23.8984375 125.125 C29.48758349 132.65499229 36.75515673 138.85189909 43.6640625 145.14453125 C53.35663994 154.01142367 62.8765847 163.81724428 64.12060547 177.58349609 C64.45229581 185.04446428 64.72136877 192.83327492 62.8984375 200.125 C62.2384375 200.125 61.5784375 200.125 60.8984375 200.125 C60.35316406 199.09761719 59.80789063 198.07023438 59.24609375 197.01171875 C51.06471184 181.86562628 41.74814364 167.98184685 24.61279297 162.37744141 C15.50495082 159.81405143 6.25219922 158.48662058 -3.09570312 157.10742188 C-18.16007472 154.74812597 -30.71330616 149.45554074 -40.546875 137.29296875 C-46.32194534 129.23979278 -48.97825648 121.42917334 -51.19140625 111.92578125 C-54.58309552 97.76220331 -63.02092709 89.92501451 -73.48925781 80.38867188 C-85.48606484 69.42545785 -85.48606484 69.42545785 -86.31640625 60.92578125 C-86.51326265 56.16185632 -86.23287838 52.95216385 -83.1015625 49.125 C-79.29750034 46.58895856 -77.61647346 46.52301187 -73.1015625 47.125 C-69.18187689 49.54352942 -66.31997223 52.76853523 -63.6015625 56.4375 C-61.28369861 59.35517591 -61.28369861 59.35517591 -57.7890625 60.25 C-51.86928942 60.04932973 -47.83595588 57.90503531 -43.7265625 53.6875 C-40.62004603 48.7887625 -39.87008757 45.15972496 -40.046875 39.35546875 C-40.07136719 38.05416016 -40.09585938 36.75285156 -40.12109375 35.41210938 C-40.17053305 33.36478393 -40.22638008 31.3180664 -40.29345703 29.27124023 C-40.58329249 19.81507298 -40.53534754 13.40376763 -34.27734375 5.953125 C-24.09140118 -2.67396262 -12.57465218 -6.5370033 0 0 Z " fill="#FDFEFE" transform="translate(244.1015625,163.875)"/>
<path d="M0 0 C20.28201239 18.15359832 20.28201239 18.15359832 21.5703125 25.07421875 C19.9375 27.8359375 19.9375 27.8359375 17.4453125 30.76171875 C13.27590988 35.85969221 10.55786235 40.79189334 8.5703125 47.07421875 C5.3018466 44.01003197 2.47842028 40.77579841 -0.3046875 37.26171875 C-17.9450311 15.05525269 -41.9120801 -0.97132844 -70.3046875 -5.55078125 C-98.38892069 -8.58886295 -124.36131714 -2.05402253 -146.87109375 15.00390625 C-151.22164522 18.5241998 -155.35567714 22.23944216 -159.4296875 26.07421875 C-160.02136719 26.60144531 -160.61304688 27.12867188 -161.22265625 27.671875 C-179.22986163 44.3959066 -190.98628895 69.75525256 -197.4296875 93.07421875 C-197.77902344 94.255 -198.12835938 95.43578125 -198.48828125 96.65234375 C-202.71784936 111.46357858 -203.78480272 126.05277167 -203.74536133 141.38232422 C-203.74219864 143.94021214 -203.76578599 146.4969409 -203.79101562 149.0546875 C-203.84854977 163.85294793 -201.99175424 178.16410236 -197.8046875 192.38671875 C-197.42836182 193.67848022 -197.42836182 193.67848022 -197.04443359 194.99633789 C-188.41341495 223.43747663 -173.12889581 248.98480008 -150.40234375 268.35546875 C-148.31394408 270.1750645 -146.36816046 272.09671614 -144.4296875 274.07421875 C-149.18450396 273.49787736 -152.40016962 271.52353354 -156.4296875 269.07421875 C-156.50316406 270.6675 -156.50316406 270.6675 -156.578125 272.29296875 C-157.29116131 286.23093496 -157.29116131 286.23093496 -159.4296875 293.07421875 C-165.40450616 289.45788114 -170.34878329 284.83891393 -175.4296875 280.07421875 C-176.37199219 279.20925781 -177.31429687 278.34429687 -178.28515625 277.453125 C-186.97189845 269.2764327 -193.72231211 259.89970572 -200.4296875 250.07421875 C-200.93935059 249.34259521 -201.44901367 248.61097168 -201.97412109 247.85717773 C-216.44551096 226.75825068 -224.41990742 201.14353861 -228.4296875 176.07421875 C-228.65398437 174.78902344 -228.87828125 173.50382813 -229.109375 172.1796875 C-235.30138741 130.31998718 -227.70264736 86.23494692 -208.3671875 48.76171875 C-207.88499756 47.82537598 -207.40280762 46.8890332 -206.90600586 45.92431641 C-203.62966366 39.78897232 -199.81160938 34.46007632 -195.4296875 29.07421875 C-194.54865711 27.9199426 -193.67308049 26.76146963 -192.8046875 25.59765625 C-188.34775721 19.68929142 -183.85405692 14.13131316 -178.4296875 9.07421875 C-177.6665625 8.29046875 -176.9034375 7.50671875 -176.1171875 6.69921875 C-127.26332698 -41.01850548 -52.30259292 -45.46810705 0 0 Z " fill="#FED769" transform="translate(325.4296875,112.92578125)"/>
<path d="M0 0 C3.0524119 2.82419419 5.40844034 5.85857672 7.80322266 9.22729492 C28.81644836 38.60538722 59.25362719 59.53156875 95 66 C127.99245159 71.11406158 161.46155952 63.30912602 188.75 44.125 C190.5159189 42.77050547 192.26535407 41.39432008 194 40 C194.50450684 39.60087402 195.00901367 39.20174805 195.52880859 38.79052734 C207.59683643 29.19254225 217.7433613 18.4229306 226.43603516 5.67285156 C227.5550831 4.06498989 228.77034641 2.52493918 230 1 C230.99 1 231.98 1 233 1 C237.50518843 5.64597557 240.12927014 10.9479977 240.375 17.4375 C240.08132501 24.94536507 237.39376843 30.72609309 232 36 C228.18009657 38.38173261 224.39100757 40.01226779 220 41 C220.31324219 41.71800781 220.62648438 42.43601562 220.94921875 43.17578125 C223.9661092 51.28437527 223.43014603 59.14429302 220 67 C216.79503847 73.53967858 211.43598161 76.8814268 205 80 C195.94932474 82.92815964 187.43654893 80.65529393 179 77 C178.75121094 77.75796875 178.50242187 78.5159375 178.24609375 79.296875 C176.87186517 82.2779602 175.71094544 83.37586728 173.0625 85.25 C172.37285156 85.75015625 171.68320312 86.2503125 170.97265625 86.765625 C167.15307866 89.15569731 163.96125792 89.10743623 159.5625 89.0625 C158.42941406 89.05347656 157.29632813 89.04445313 156.12890625 89.03515625 C155.09636719 89.02355469 154.06382812 89.01195312 153 89 C151.68 89 150.36 89 149 89 C148.79246094 89.6290625 148.58492187 90.258125 148.37109375 90.90625 C144.70181637 101.10039301 138.61205417 107.92697141 129 113 C119.94067258 116.68035176 109.86197973 115.72316401 101 112 C93.6736527 108.36084716 88.80606839 103.23369249 85 96 C83.99054196 92.94909333 83.46416388 90.1975734 83 87 C82.29488281 87.32226562 81.58976562 87.64453125 80.86328125 87.9765625 C74.83696459 90.13058019 67.58660532 90.10390196 61.6875 87.5 C57.23126561 84.92154991 54.12329647 81.02124421 51 77 C50.40574219 77.28875 49.81148437 77.5775 49.19921875 77.875 C41.95636507 81.11907754 35.33542947 82.51468333 27.55078125 80.3046875 C19.33403986 76.98451016 13.58189353 71.95023238 9.87890625 63.84765625 C7.34965074 55.65286841 8.40452333 47.64038793 12 40 C10.96875 39.9175 9.9375 39.835 8.875 39.75 C1.88291365 38.39669297 -1.89110841 34.47852212 -6 29 C-9.37722736 23.63198599 -8.66601091 17.08067964 -8 11 C-6.26640686 6.13927155 -4.30862171 2.87241447 0 0 Z " fill="#FF9932" transform="translate(125,363)"/>
<path d="M0 0 C6.32442428 4.63227062 12.48314032 10.74308792 14.5859375 18.5234375 C14.7109375 21.3359375 14.7109375 21.3359375 14.5859375 23.5234375 C15.28074219 23.20117188 15.97554687 22.87890625 16.69140625 22.546875 C23.02993555 20.30572159 30.92232704 20.33078701 37.0859375 23.1484375 C40.78260259 25.34137442 43.14148674 28.00953953 45.5859375 31.5234375 C45.5859375 32.1834375 45.5859375 32.8434375 45.5859375 33.5234375 C46.58560547 33.0903125 46.58560547 33.0903125 47.60546875 32.6484375 C56.39878852 29.1065129 63.89716895 27.92112521 72.9609375 31.2109375 C76.99964548 33.02579995 79.73085308 35.08054158 82.5859375 38.5234375 C83.2871875 39.2453125 83.9884375 39.9671875 84.7109375 40.7109375 C89.19771062 47.44109719 89.9824793 54.06398685 89.10546875 61.98046875 C88.55650612 64.66749635 87.68077028 67.01388253 86.5859375 69.5234375 C87.45605469 69.76126953 87.45605469 69.76126953 88.34375 70.00390625 C95.34565993 72.09523578 100.03138322 74.6362434 103.8984375 81.0859375 C106.55961488 86.50685438 107.42527936 91.51748016 106.5859375 97.5234375 C104.6083506 102.99739804 102.5138481 107.25922321 97.5859375 110.5234375 C96.99167969 109.73582031 96.39742187 108.94820313 95.78515625 108.13671875 C71.57307314 76.23786772 41.66913337 50.23018943 0.63134766 44.23803711 C-36.82669525 39.71601942 -69.62077975 49.76192252 -99.0390625 72.8359375 C-101.63073313 74.95835215 -104.08314376 77.1184144 -106.4140625 79.5234375 C-107.0740625 80.1834375 -107.7340625 80.8434375 -108.4140625 81.5234375 C-109.0740625 81.5234375 -109.7340625 81.5234375 -110.4140625 81.5234375 C-110.81818359 82.42642578 -110.81818359 82.42642578 -111.23046875 83.34765625 C-112.42446385 85.54255814 -113.49976769 86.69241301 -115.3515625 88.3359375 C-119.71078018 92.52996377 -123.09677044 97.37075466 -126.59350586 102.28051758 C-127.0447583 102.9123999 -127.49601074 103.54428223 -127.9609375 104.1953125 C-128.36151367 104.7634668 -128.76208984 105.33162109 -129.17480469 105.91699219 C-130.47214466 107.59872918 -131.88276416 109.05432387 -133.4140625 110.5234375 C-138.05813254 106.25591368 -140.99699267 102.51938911 -141.8828125 96.15625 C-141.96056127 87.42895061 -141.06222609 82.25677687 -134.921875 76.00390625 C-130.62944988 72.14517175 -127.1431795 70.5234375 -121.4140625 70.5234375 C-121.9090625 69.4715625 -122.4040625 68.4196875 -122.9140625 67.3359375 C-125.69601893 59.77918085 -125.7397959 51.51898179 -122.4140625 44.1484375 C-118.5853925 37.51567117 -113.00253766 32.27704518 -105.60546875 29.9609375 C-97.01766669 28.24643869 -90.20122776 29.73965221 -82.4140625 33.5234375 C-81.91777344 32.90855469 -81.42148438 32.29367188 -80.91015625 31.66015625 C-73.71391106 23.09839964 -73.71391106 23.09839964 -67.4140625 21.5234375 C-61.28452728 21.03307468 -56.07529174 20.92093102 -50.4140625 23.5234375 C-50.3728125 22.5746875 -50.3315625 21.6259375 -50.2890625 20.6484375 C-49.19277183 13.14189164 -44.21407995 6.37447897 -38.34375 1.76953125 C-26.75021849 -5.71697999 -12.11038642 -7.40732373 0 0 Z " fill="#FFAC58" transform="translate(258.4140625,38.4765625)"/>
<path d="M0 0 C4.16241684 1.38747228 5.18449581 4.21393421 7.1875 7.875 C7.7757959 8.9427063 7.7757959 8.9427063 8.37597656 10.03198242 C15.75857231 23.73551744 20.93911641 37.75124352 24.49951172 52.88720703 C24.99872648 54.99462388 25.52756237 57.09280478 26.0625 59.19140625 C29.78841646 74.32794187 29.30505524 89.50703705 29 105 C28.98598145 105.80211914 28.97196289 106.60423828 28.95751953 107.43066406 C28.70743555 118.23326071 26.46720596 128.52808139 24 139 C23.78601563 139.96164062 23.57203125 140.92328125 23.3515625 141.9140625 C16.25140904 170.96014483 0.1268331 199.76908502 -23 219 C-23.73992187 219.639375 -24.47984375 220.27875 -25.2421875 220.9375 C-39.20363053 232.6559571 -55.44588402 239.52928881 -73 244 C-73.77859375 244.19980469 -74.5571875 244.39960938 -75.359375 244.60546875 C-79.18155085 245.17653348 -82.95446764 245.10454059 -86.8125 245.0625 C-87.99489258 245.05573242 -87.99489258 245.05573242 -89.20117188 245.04882812 C-91.13414761 245.03711312 -93.06708393 245.01917998 -95 245 C-91.375 239.125 -91.375 239.125 -88 238 C-88 237.34 -88 236.68 -88 236 C-86.90042969 235.50371094 -85.80085937 235.00742187 -84.66796875 234.49609375 C-72.44774975 228.91299245 -61.78457565 223.10393731 -51.99609375 213.72265625 C-50 212 -50 212 -48 212 C-47.62488281 211.16275391 -47.62488281 211.16275391 -47.2421875 210.30859375 C-45.79552582 207.61998666 -44.05579053 205.42680765 -42.125 203.0625 C-41.44695312 202.22847656 -40.76890625 201.39445313 -40.0703125 200.53515625 C-39.04550781 199.28025391 -39.04550781 199.28025391 -38 198 C-36.66497731 196.33468623 -35.33114831 194.66841234 -34 193 C-30.78634109 194.10815825 -30.0085776 194.98529554 -28.25 198 C-27 201 -27 201 -27 203 C-26.34 203 -25.68 203 -25 203 C-25.01047363 202.02240723 -25.02094727 201.04481445 -25.03173828 200.03759766 C-25.06828974 196.36608631 -25.09102662 192.69459061 -25.10986328 189.02294922 C-25.11984159 187.44219242 -25.13342907 185.86145369 -25.15087891 184.28076172 C-25.2337848 176.57051386 -25.3114521 169.17137939 -23.49462891 161.62939453 C-22.84487611 158.17537796 -22.66959987 154.7298127 -22.5078125 151.2265625 C-22.45785629 150.18195358 -22.45785629 150.18195358 -22.40689087 149.11624146 C-22.27427786 146.22959262 -22.15100795 143.34288405 -22.04638672 140.45507812 C-21.61077054 128.92559597 -20.837126 116.73042054 -12.4609375 107.93359375 C-8.54944265 104.86027637 -4.21300811 102.54971049 0.22558594 100.31958008 C5.93640096 97.37978643 9.53399182 94.14144609 12.3125 88.1875 C14.93806158 76.01444178 10.26473322 66.09562173 4.5 55.5625 C-4.11562231 39.65215396 -6.90813498 23.95698874 -2 6.3125 C-1.3577766 4.20074459 -0.70080952 2.09304272 0 0 Z " fill="#65B0F9" transform="translate(332,161)"/>
<path d="M0 0 C3.0524119 2.82419419 5.40844034 5.85857672 7.80322266 9.22729492 C28.91576557 38.74424025 59.21009475 59.28989623 95 66 C99.98219459 66.81630415 104.98208314 67.44488838 110 68 C111.81130999 73.43392997 112.33659912 78.22600825 112.3125 83.9375 C112.32861328 84.69740234 112.34472656 85.45730469 112.36132812 86.24023438 C112.36846318 94.59537955 110.14424716 100.41469862 104.3125 106.5 C103.50425781 107.3559375 102.69601563 108.211875 101.86328125 109.09375 C101.24839844 109.7228125 100.63351563 110.351875 100 111 C92.83462148 107.8651469 88.85749646 102.72125847 85 96 C83.92342991 92.9164906 83.42733162 90.2584036 83 87 C82.29488281 87.32226562 81.58976562 87.64453125 80.86328125 87.9765625 C74.83696459 90.13058019 67.58660532 90.10390196 61.6875 87.5 C57.23126561 84.92154991 54.12329647 81.02124421 51 77 C50.40574219 77.28875 49.81148437 77.5775 49.19921875 77.875 C41.95636507 81.11907754 35.33542947 82.51468333 27.55078125 80.3046875 C19.33403986 76.98451016 13.58189353 71.95023238 9.87890625 63.84765625 C7.34965074 55.65286841 8.40452333 47.64038793 12 40 C10.96875 39.9175 9.9375 39.835 8.875 39.75 C1.88291365 38.39669297 -1.89110841 34.47852212 -6 29 C-9.37722736 23.63198599 -8.66601091 17.08067964 -8 11 C-6.26640686 6.13927155 -4.30862171 2.87241447 0 0 Z " fill="#FFA347" transform="translate(125,363)"/>
<path d="M0 0 C8.75827657 3.0839002 14.28046116 9.38924396 18.22265625 17.60546875 C19.06555526 20.20193655 19.14934927 22.2876245 19 25 C19.69480469 24.67773438 20.38960938 24.35546875 21.10546875 24.0234375 C27.44399805 21.78228409 35.33638954 21.80734951 41.5 24.625 C45.19666509 26.81793692 47.55554924 29.48610203 50 33 C50 33.66 50 34.32 50 35 C50.66644531 34.71125 51.33289063 34.4225 52.01953125 34.125 C60.81285102 30.5830754 68.31123145 29.39768771 77.375 32.6875 C81.41370798 34.50236245 84.14491558 36.55710408 87 40 C87.70125 40.721875 88.4025 41.44375 89.125 42.1875 C93.61177312 48.91765969 94.3965418 55.54054935 93.51953125 63.45703125 C92.97056862 66.14405885 92.09483278 68.49044503 91 71 C91.87011719 71.23783203 91.87011719 71.23783203 92.7578125 71.48046875 C99.75972243 73.57179828 104.44544572 76.1128059 108.3125 82.5625 C110.97367738 87.98341688 111.83934186 92.99404266 111 99 C109.0224131 104.47396054 106.9279106 108.73578571 102 112 C101.40574219 111.21238281 100.81148438 110.42476563 100.19921875 109.61328125 C74.71282661 76.035558 43.96193207 51.04329156 1.03735352 45.1550293 C-1.973157 44.75355789 -4.98586756 44.37329176 -8 44 C-7.36303055 28.71273332 -4.89626292 14.51480987 0 0 Z " fill="#FFA346" transform="translate(254,37)"/>
<path d="M0 0 C18.21253086 0.54637593 34.67451098 4.95451038 51 13 C51.97066406 13.47179687 52.94132812 13.94359375 53.94140625 14.4296875 C71.00172308 23.22059311 90.28154785 37.95236611 100.52734375 54.4609375 C101 57 101 57 99.3671875 59.76171875 C98.13355469 61.20998047 98.13355469 61.20998047 96.875 62.6875 C92.70559738 67.78547346 89.98754985 72.71767459 88 79 C84.7315341 75.93581322 81.90810778 72.70157966 79.125 69.1875 C60.42259412 45.64406169 34.7707214 29.4459608 4.5625 25.75 C3.34691406 25.62109375 2.13132813 25.4921875 0.87890625 25.359375 C-2 25 -2 25 -4 24 C-2.68 16.08 -1.36 8.16 0 0 Z " fill="#FDD259" transform="translate(246,81)"/>
<path d="M0 0 C0.65226563 0.33773438 1.30453125 0.67546875 1.9765625 1.0234375 C7.44178133 3.82381103 7.44178133 3.82381103 13.15625 6.04296875 C16.92546401 7.31145423 20.09650316 9.28173716 23.5 11.3125 C30.76598361 15.52756403 37.94567052 18.5392294 46 21 C47.53140625 21.52400391 47.53140625 21.52400391 49.09375 22.05859375 C54.56337668 23.60239721 60.29503467 23.73365221 65.9375 24.125 C67.09830078 24.21136719 68.25910156 24.29773438 69.45507812 24.38671875 C72.30297446 24.59767403 75.15118513 24.80190466 78 25 C78 25.33 78 25.66 78 26 C74.7 26 71.4 26 68 26 C66.93690433 31.17317421 66.88306062 36.12369336 66.9375 41.375 C66.94201172 42.20644531 66.94652344 43.03789062 66.95117188 43.89453125 C66.96286836 45.92971897 66.98080065 47.96486923 67 50 C42.55889514 49.28846856 19.01773999 41.46712234 -0.69067383 26.73632812 C-2.62223986 24.17483314 -2.15914721 22.38694742 -1.85546875 19.23828125 C-1.75556641 18.12001953 -1.65566406 17.00175781 -1.55273438 15.84960938 C-1.43220703 14.68236328 -1.31167969 13.51511719 -1.1875 12.3125 C-1.07857422 11.13365234 -0.96964844 9.95480469 -0.85742188 8.74023438 C-0.58597643 5.82514632 -0.29961469 2.91230544 0 0 Z " fill="#FED358" transform="translate(168,381)"/>
<path d="M0 0 C3.05297634 2.82471642 5.40890868 5.8602261 7.80517578 9.22875977 C17.07570232 22.19778464 28.18216241 34.76244297 42 43 C41.01 43.495 41.01 43.495 40 44 C39.65193103 45.66365167 39.32167046 47.33104314 39 49 C34.43244382 59.97439673 28.27853065 68.61504703 19 76 C11.53323247 68.12409452 8.46579523 62.22201858 8.6953125 51.1796875 C9.09899657 46.96688197 10.2046606 43.81509623 12 40 C10.96875 39.9175 9.9375 39.835 8.875 39.75 C1.88291365 38.39669297 -1.89110841 34.47852212 -6 29 C-9.37722736 23.63198599 -8.66601091 17.08067964 -8 11 C-6.26640686 6.13927155 -4.30862171 2.87241447 0 0 Z " fill="#FFAC58" transform="translate(125,363)"/>
<path d="M0 0 C0.65226563 0.33773438 1.30453125 0.67546875 1.9765625 1.0234375 C3.28753906 1.69246094 3.28753906 1.69246094 4.625 2.375 C5.91277344 3.03628906 5.91277344 3.03628906 7.2265625 3.7109375 C9.96734827 5.05917561 9.96734827 5.05917561 12.8671875 5.89453125 C16.73078833 7.25787169 19.99357026 9.22032024 23.5 11.3125 C30.76598361 15.52756403 37.94567052 18.5392294 46 21 C47.53140625 21.52400391 47.53140625 21.52400391 49.09375 22.05859375 C54.56337668 23.60239721 60.29503467 23.73365221 65.9375 24.125 C67.09830078 24.21136719 68.25910156 24.29773438 69.45507812 24.38671875 C72.30297446 24.59767403 75.15118513 24.80190466 78 25 C78 25.33 78 25.66 78 26 C74.7 26 71.4 26 68 26 C67.34 29.96 66.68 33.92 66 38 C41.49678245 35.35851839 20.76060907 27.44836243 1.1015625 12.5625 C-0.57644269 10.1823508 -0.28849183 8.1739351 -0.1875 5.3125 C-0.16042969 4.31863281 -0.13335937 3.32476562 -0.10546875 2.30078125 C-0.07066406 1.54152344 -0.03585938 0.78226562 0 0 Z " fill="#F3CA57" transform="translate(168,381)"/>
<path d="M0 0 C0.60585938 0.3609375 1.21171875 0.721875 1.8359375 1.09375 C7.95861495 4.48477136 12.98950046 6.29231068 20 5 C22.24097017 4.11350416 24.24470876 3.11591624 26.30859375 1.875 C28 1 28 1 31 1 C30.360625 1.928125 29.72125 2.85625 29.0625 3.8125 C25.46216778 9.37664979 25.32961244 14.52546754 26 21 C27.02354848 23.8938507 28.37907948 26.40262134 30 29 C30.33 29.66 30.66 30.32 31 31 C30.484375 30.731875 29.96875 30.46375 29.4375 30.1875 C28.633125 29.795625 27.82875 29.40375 27 29 C25.96875 28.46375 24.9375 27.9275 23.875 27.375 C18.64359862 25.19058187 12.99527833 24.89359103 7.65234375 26.8671875 C5.70722929 27.8344495 3.85337233 28.86889777 2 30 C1.34 30.33 0.68 30.66 0 31 C0.268125 30.484375 0.53625 29.96875 0.8125 29.4375 C1.204375 28.633125 1.59625 27.82875 2 27 C2.53625 25.948125 3.0725 24.89625 3.625 23.8125 C5.69315135 18.84893675 6.08874781 13.81995491 4.1328125 8.75390625 C3.44854776 7.39286871 2.73109028 6.04770565 1.97265625 4.7265625 C1 3 1 3 0 0 Z " fill="#FFCF46" transform="translate(59,85)"/>
<path d="M0 0 C0.60585938 0.3609375 1.21171875 0.721875 1.8359375 1.09375 C7.95861495 4.48477136 12.98950046 6.29231068 20 5 C22.24097017 4.11350416 24.24470876 3.11591624 26.30859375 1.875 C28 1 28 1 31 1 C30.360625 1.928125 29.72125 2.85625 29.0625 3.8125 C25.46216778 9.37664979 25.32961244 14.52546754 26 21 C27.02354848 23.8938507 28.37907948 26.40262134 30 29 C30.33 29.66 30.66 30.32 31 31 C28.73190254 29.86595127 26.584187 28.73631371 24.4375 27.375 C18.95809996 25.18323998 13.19867233 24.85281865 7.58203125 26.8671875 C5.65348979 27.82970182 3.82743209 28.85957245 2 30 C1.34 30.33 0.68 30.66 0 31 C0.268125 30.484375 0.53625 29.96875 0.8125 29.4375 C1.204375 28.633125 1.59625 27.82875 2 27 C2.53625 25.948125 3.0725 24.89625 3.625 23.8125 C5.69315135 18.84893675 6.08874781 13.81995491 4.1328125 8.75390625 C3.44854776 7.39286871 2.73109028 6.04770565 1.97265625 4.7265625 C1 3 1 3 0 0 Z " fill="#65CCFF" transform="translate(391,53)"/>
<path d="M0 0 C1.0725 0.639375 2.145 1.27875 3.25 1.9375 C8.3491794 4.81787479 13.09613025 5.91427308 19 5 C22.7933329 3.57062818 26.39749362 1.85423123 30 0 C29.70351563 0.58136719 29.40703125 1.16273438 29.1015625 1.76171875 C26.29268483 7.46911913 24.20422799 12.52014222 25 19 C25.92860876 21.39991095 26.96788631 23.68621864 28.125 25.984375 C29 28 29 28 29 31 C28.56171875 30.6390625 28.1234375 30.278125 27.671875 29.90625 C21.69400949 25.53220207 16.2769071 24.88201153 9 26 C6.26693766 27.06101554 4.41165918 28.26989667 2 30 C1.34 30.33 0.68 30.66 0 31 C0.268125 30.360625 0.53625 29.72125 0.8125 29.0625 C1.204375 28.051875 1.59625 27.04125 2 26 C2.27585937 25.32195312 2.55171875 24.64390625 2.8359375 23.9453125 C4.9211458 18.41664094 5.3979561 14.77821853 4 9 C2.80477963 6.55172602 1.43930632 4.3214618 0 2 C0 1.34 0 0.68 0 0 Z " fill="#F25959" transform="translate(397,373)"/>
<path d="M0 0 C2.85057335 1.12295314 5.61159886 2.29447353 8.375 3.625 C15.31051943 6.25571427 20.50944895 4.91740233 27 2 C28.33750845 1.34174977 29.67200899 0.67724597 31 0 C30.6390625 0.70125 30.278125 1.4025 29.90625 2.125 C26.98623818 8.09480194 25.03558752 12.35626955 26 19 C27.12646273 22.11788792 28.47945362 25.05661302 30 28 C30.33 28.66 30.66 29.32 31 30 C30.34 29.731875 29.68 29.46375 29 29.1875 C28.01 28.795625 27.02 28.40375 26 28 C25.40703125 27.72414063 24.8140625 27.44828125 24.203125 27.1640625 C18.89162199 24.84824719 14.62370919 24.51853761 9 26 C6.18367393 27.16214454 3.66341501 28.49880245 1 30 C1.29390625 29.43539063 1.5878125 28.87078125 1.890625 28.2890625 C5.19124772 21.47862266 6.6850543 15.72452471 4.81640625 8.2734375 C3.65811245 5.0479495 2.11955507 2.68476976 0 0 Z " fill="#65CCFF" transform="translate(49,238)"/>
<path d="M0 0 C2.16107756 7.90033274 1.22056034 13.57113267 -2.515625 20.8359375 C-4.09729314 23.14184316 -5.68163272 24.46432937 -8 26 C-9.36946622 24.26194659 -10.72015954 22.50908767 -12.0625 20.75 C-12.81660156 19.77546875 -13.57070313 18.8009375 -14.34765625 17.796875 C-16 15 -16 15 -16.11328125 13 C-14.35977536 9.84984205 -11.7832352 7.62186794 -9.125 5.25 C-8.58230469 4.74339844 -8.03960937 4.23679687 -7.48046875 3.71484375 C-3.38512887 0 -3.38512887 0 0 0 Z " fill="#FF9933" transform="translate(364,123)"/>
<path d="M0 0 C2.5 0.625 2.5 0.625 4.875 2.5625 C6.85896195 6.30150521 6.66296249 8.440123 6.15234375 12.5390625 C5.38529923 14.99176772 4.50231062 16.03983743 2.5 17.625 C0.0625 18.1875 0.0625 18.1875 -2.5 17.625 C-5.12646721 14.64360478 -6.35832131 12.492782 -7 8.5625 C-6.23922181 4.09292813 -4.55274797 1.13818699 0 0 Z " fill="#505050" transform="translate(225.5,200.375)"/>
<path d="M0 0 C1.70703125 1.01171875 1.70703125 1.01171875 2.70703125 4.01171875 C-0.6565358 9.14841221 -5.48729874 13.26095191 -10.29296875 17.01171875 C-11.61296875 16.35171875 -12.93296875 15.69171875 -14.29296875 15.01171875 C-13.84382138 10.63514319 -10.94605646 8.1494606 -7.98046875 5.19921875 C-7.49384766 4.68423828 -7.00722656 4.16925781 -6.50585938 3.63867188 C-2.90142067 0.01482839 -2.90142067 0.01482839 0 0 Z " fill="#99CC32" transform="translate(66.29296875,392.98828125)"/>
<path d="M0 0 C2.125 0.9375 2.125 0.9375 4 2 C2.62170116 6.17935777 0.74081436 8.66524027 -2.375 11.75 C-3.14585937 12.52859375 -3.91671875 13.3071875 -4.7109375 14.109375 C-6.93151166 15.94343284 -8.13918456 16.82956844 -11 17 C-11.66 16.34 -12.32 15.68 -13 15 C-12.84471437 10.78901915 -9.93292273 8.60055766 -7.0625 5.8125 C-6.16660156 4.93207031 -5.27070313 4.05164063 -4.34765625 3.14453125 C-2 1 -2 1 0 0 Z " fill="#98CD31" transform="translate(459,202)"/>
<path d="M0 0 C0.32421875 2.1328125 0.32421875 2.1328125 0 5 C-1.67682917 7.20249015 -3.22546576 8.97089488 -5.1875 10.875 C-5.67025391 11.38546875 -6.15300781 11.8959375 -6.65039062 12.421875 C-8.10546875 13.8671875 -8.10546875 13.8671875 -11 16 C-13.86328125 15.8203125 -13.86328125 15.8203125 -16 15 C-15.55042492 10.2016506 -13.60770673 8.04023971 -10.25 4.6875 C-9.38890625 3.80449219 -8.5278125 2.92148437 -7.640625 2.01171875 C-4.73707468 -0.20030553 -3.55009259 -0.4788794 0 0 Z " fill="#99CB33" transform="translate(90,372)"/>
<path d="M0 0 C4.83118367 0.28716826 6.97082184 2.48782495 10.25 5.875 C11.55710937 7.20144531 11.55710937 7.20144531 12.890625 8.5546875 C15 11 15 11 16 14 C15.67 14.66 15.34 15.32 15 16 C11.44990741 16.4788794 10.26292532 16.20030553 7.359375 13.98828125 C6.06773437 12.66376953 6.06773437 12.66376953 4.75 11.3125 C3.87859375 10.44238281 3.0071875 9.57226562 2.109375 8.67578125 C-0.03443148 5.95632303 -0.78423211 4.42231841 -1 1 C-0.67 0.67 -0.34 0.34 0 0 Z " fill="#A1D02E" transform="translate(447,224)"/>
<path d="M0 0 C0.70511719 0.27070313 1.41023438 0.54140625 2.13671875 0.8203125 C1.68714367 5.6186619 -0.25557452 7.78007279 -3.61328125 11.1328125 C-4.474375 12.01582031 -5.33546875 12.89882812 -6.22265625 13.80859375 C-9.12620657 16.02061803 -10.31318866 16.2991919 -13.86328125 15.8203125 C-14.1875 13.6875 -14.1875 13.6875 -13.86328125 10.8203125 C-12.18645208 8.61782235 -10.63781549 6.84941762 -8.67578125 4.9453125 C-8.19302734 4.43484375 -7.71027344 3.924375 -7.21289062 3.3984375 C-3.56618008 -0.22379848 -3.56618008 -0.22379848 0 0 Z " fill="#98CB33" transform="translate(438.86328125,224.1796875)"/>
<path d="M0 0 C4.37061518 0.44746774 6.81937348 3.33956785 9.75 6.3125 C10.50990234 7.04243164 10.50990234 7.04243164 11.28515625 7.78710938 C14.30480946 10.8108322 15 11.54705326 15 16 C13.19067383 16.64697266 13.19067383 16.64697266 11 17 C8.65435964 15.1919648 6.73386821 13.47720032 4.6875 11.375 C4.12482422 10.84003906 3.56214844 10.30507813 2.98242188 9.75390625 C1.38671875 8.1484375 1.38671875 8.1484375 -1 5 C-0.85546875 2.1015625 -0.85546875 2.1015625 0 0 Z " fill="#99CB33" transform="translate(75,393)"/>
<path d="M0 0 C4.95745581 0.39042234 7.5454374 2.90806628 10.875 6.3125 C11.38546875 6.79912109 11.8959375 7.28574219 12.421875 7.78710938 C13.8671875 9.23828125 13.8671875 9.23828125 16 12 C15.8203125 14.35546875 15.8203125 14.35546875 15 16 C10.04254419 15.60957766 7.4545626 13.09193372 4.125 9.6875 C3.61453125 9.20087891 3.1040625 8.71425781 2.578125 8.21289062 C1.1328125 6.76171875 1.1328125 6.76171875 -1 4 C-0.8203125 1.64453125 -0.8203125 1.64453125 0 0 Z " fill="#98CB33" transform="translate(53,372)"/>
<path d="M0 0 C3.82016306 1.91651278 6.8050398 4.42582512 9.875 7.375 C10.67679687 8.12523437 11.47859375 8.87546875 12.3046875 9.6484375 C14 12 14 12 13.7578125 14.7890625 C13.50773437 15.51867187 13.25765625 16.24828125 13 17 C8.62938482 16.55253226 6.18062652 13.66043215 3.25 10.6875 C2.74339844 10.20087891 2.23679687 9.71425781 1.71484375 9.21289062 C-1.30480946 6.1891678 -2 5.45294674 -2 1 C-1.34 0.67 -0.68 0.34 0 0 Z " fill="#99CC33" transform="translate(427,202)"/>
<path d="M0 0 C0.99 0 1.98 0 3 0 C4.35439668 2.70879335 4.06501451 5.00933268 4 8 C2.02 8.99 2.02 8.99 0 10 C-2 8 -2 8 -2.25 5 C-2 2 -2 2 0 0 Z " fill="#525252" transform="translate(237,186)"/>
<path d="M0 0 C1.32 0.66 2.64 1.32 4 2 C4 3.98 4 5.96 4 8 C2.02 8.99 2.02 8.99 0 10 C-2 8 -2 8 -2.25 5 C-2 2 -2 2 0 0 Z " fill="#4F4F4F" transform="translate(215,186)"/>
<path d="M0 0 C3.2826932 1.49076434 5.93077441 3.38620321 8.75 5.625 C9.94882813 6.57246094 9.94882813 6.57246094 11.171875 7.5390625 C11.77515625 8.02117187 12.3784375 8.50328125 13 9 C10 10 10 10 7.51953125 8.92578125 C6.62621094 8.39339844 5.73289063 7.86101562 4.8125 7.3125 C3.91144531 6.79300781 3.01039063 6.27351563 2.08203125 5.73828125 C1.39496094 5.16464844 0.70789063 4.59101563 0 4 C0 2.68 0 1.36 0 0 Z " fill="#F8D260" transform="translate(168,377)"/>
</svg>
