<?xml version="1.0" encoding="UTF-8"?>
<svg version="1.1" xmlns="http://www.w3.org/2000/svg" width="512" height="512">
<path d="M0 0 C0.96696685 -0.00445668 0.96696685 -0.00445668 1.95346838 -0.0090034 C4.12919383 -0.01772514 6.30486449 -0.01920155 8.48060608 -0.02069092 C10.03414021 -0.0253166 11.58767319 -0.03034091 13.14120483 -0.03573608 C17.37254948 -0.04888521 21.60387823 -0.05530978 25.83524013 -0.05974674 C28.47571895 -0.06267309 31.11619338 -0.06677702 33.75667 -0.07125092 C42.00918494 -0.08493172 50.26168991 -0.09459583 58.51421541 -0.09845281 C68.05734328 -0.10293684 77.60032816 -0.12049825 87.14341253 -0.1494534 C94.50901109 -0.17103009 101.8745693 -0.18115491 109.24019915 -0.18249393 C113.6445426 -0.18354474 118.04875173 -0.18951087 122.45306206 -0.20731354 C126.59396741 -0.22372536 130.7346365 -0.22598357 134.87556267 -0.21717453 C136.3985965 -0.21640047 137.92164267 -0.22079511 139.44464493 -0.23063278 C141.51766332 -0.24324192 143.58983082 -0.23753715 145.6628418 -0.22705078 C147.40584769 -0.22925062 147.40584769 -0.22925062 149.18406582 -0.2314949 C150.52593503 -0.04738619 150.52593503 -0.04738619 151.89491272 0.14044189 C154.04993803 3.37297986 154.36347407 4.39195113 153.89491272 8.14044189 C152.83241272 9.95294189 152.83241272 9.95294189 150.89491272 11.14044189 C147.20741272 11.32794189 147.20741272 11.32794189 143.89491272 11.14044189 C144.22491272 13.78044189 144.55491272 16.42044189 144.89491272 19.14044189 C145.40280334 18.65833252 145.91069397 18.17622314 146.43397522 17.67950439 C147.46651428 16.73204346 147.46651428 16.73204346 148.51991272 15.76544189 C149.19280334 15.13895752 149.86569397 14.51247314 150.55897522 13.86700439 C157.51633173 8.72461045 166.63528947 9.33387029 174.89491272 10.14044189 C184.53169308 12.12239056 192.48854153 17.3983194 198.20741272 25.39044189 C199.14376314 26.95015652 200.04003611 28.53462504 200.89491272 30.14044189 C201.30870178 30.91645752 201.72249084 31.69247314 202.14881897 32.49200439 C206.85856266 43.09303027 206.54650204 56.43605279 202.95741272 67.32794189 C197.69645407 80.02834066 190.48460562 91.44073733 181.89491272 102.14044189 C181.17561584 103.05180908 180.45631897 103.96317627 179.71522522 104.90216064 C174.51425608 111.38949047 168.97134267 117.52796116 163.31092834 123.61114502 C161.88688618 125.14911056 160.47505947 126.69740668 159.06678772 128.24981689 C152.35364273 135.64607022 145.61089786 143.00228426 138.01991272 149.51544189 C134.57655216 152.48672883 131.27119914 155.58633552 128.01991272 158.76544189 C127.09436584 159.66520752 126.16881897 160.56497314 125.21522522 161.49200439 C121.66231723 165.54734382 120.58946888 168.79517478 120.89491272 174.14044189 C124.43362249 175.32001182 127.23158142 175.20208957 130.95741272 175.14044189 C137.6731345 175.02955278 137.6731345 175.02955278 139.89491272 176.14044189 C139.89491272 178.12044189 139.89491272 180.10044189 139.89491272 182.14044189 C133.37334995 184.92864627 127.85773878 185.89298995 120.89491272 184.14044189 C116.82472344 181.99434209 114.5413379 179.82074747 111.89491272 176.14044189 C106.73014332 181.67292951 105.12329309 186.61896846 103.65663147 193.96075439 C101.76862102 201.84198776 96.80762727 208.67453197 90.89491272 214.14044189 C90.23491272 214.14044189 89.57491272 214.14044189 88.89491272 214.14044189 C86.31773415 236.78279647 86.43013911 258.18421318 101.20741272 276.82794189 C103.87243172 280.55631415 103.87243172 280.55631415 107.6856842 282.38995361 C108.83919373 282.47914063 108.83919373 282.47914063 110.01600647 282.57012939 C110.86437073 282.6413501 111.71273499 282.7125708 112.58680725 282.78594971 C113.49285706 282.86168213 114.39890686 282.93741455 115.33241272 283.01544189 C126.79970377 284.09220177 139.1140664 285.73339605 147.37538147 294.75762939 C150.6013388 299.43934365 151.0184129 303.35084146 151.00843811 308.90679932 C151.00858414 309.58998734 151.00873016 310.27317535 151.00888062 310.97706604 C151.00818441 313.23337996 151.00040568 315.48961115 150.99256897 317.74591064 C150.99070375 319.31103978 150.98928034 320.87616951 150.98828125 322.44129944 C150.98446424 326.55947483 150.9746409 330.67761492 150.96357727 334.79577637 C150.95334563 338.99855064 150.94877987 343.20133063 150.94374084 347.40411377 C150.93301791 355.64957267 150.91595126 363.89500289 150.89491272 372.14044189 C153.20491272 372.14044189 155.51491272 372.14044189 157.89491272 372.14044189 C157.89491272 378.08044189 157.89491272 384.02044189 157.89491272 390.14044189 C101.79491272 390.14044189 45.69491272 390.14044189 -12.10508728 390.14044189 C-12.10508728 384.20044189 -12.10508728 378.26044189 -12.10508728 372.14044189 C-9.79508728 372.14044189 -7.48508728 372.14044189 -5.10508728 372.14044189 C-5.11174911 371.27680023 -5.11841095 370.41315857 -5.12527466 369.52334595 C-5.18546001 361.37250109 -5.23109941 353.22173119 -5.2605238 345.07071495 C-5.27615989 340.88048169 -5.29736034 336.69043251 -5.33140564 332.50030518 C-5.36407281 328.45433373 -5.38195576 324.40853901 -5.38971901 320.36244583 C-5.39524935 318.82111455 -5.40604882 317.27979261 -5.42227745 315.73853683 C-5.44415021 313.57460604 -5.4470502 311.41139957 -5.44566345 309.24737549 C-5.45232529 308.01715668 -5.45898712 306.78693787 -5.46585083 305.5194397 C-4.74880466 298.80341359 -1.41331838 294.88418723 3.60194397 290.74591064 C11.54335905 285.18556721 21.51010186 283.25795375 31.07850647 283.08184814 C36.87601259 283.04253811 36.87601259 283.04253811 41.99256897 280.65216064 C43.87535471 278.58730332 45.38399964 276.49031957 46.89491272 274.14044189 C47.42729553 273.37087158 47.95967834 272.60130127 48.50819397 271.80841064 C59.29590577 255.23869947 59.55553374 235.45869708 56.82069397 216.45294189 C55.56413924 213.31420603 53.56161662 212.16902758 50.89491272 210.14044189 C45.25432428 202.83069973 42.16200047 195.38980544 40.01991272 186.51544189 C38.62194668 182.32154377 36.59642346 179.62396891 33.89491272 176.14044189 C32.93585022 177.53262939 32.93585022 177.53262939 31.95741272 178.95294189 C28.62922254 182.89815609 24.93172655 184.33010276 19.89491272 185.14044189 C14.74371005 185.18576039 10.4307528 184.66265961 5.89491272 182.14044189 C5.89491272 180.16044189 5.89491272 178.18044189 5.89491272 176.14044189 C10.67245709 175.32724285 15.03729736 175.11044378 19.87928772 175.39825439 C21.99095531 175.29901088 21.99095531 175.29901088 23.65272522 173.80059814 C25.14749179 172.12661724 25.14749179 172.12661724 25.01991272 169.45294189 C23.37434196 164.6076502 20.44064796 161.76261918 16.89491272 158.14044189 C16.40845276 157.64028564 15.9219928 157.14012939 15.42079163 156.62481689 C9.69044763 150.7493345 3.90321443 145.00549178 -2.34336853 139.67559814 C-7.33385486 135.32690385 -11.74896986 130.48299555 -16.05039978 125.46466064 C-18.03276294 123.22225364 -20.09091068 121.06743021 -22.16368103 118.90899658 C-41.14261103 98.95647212 -59.82052994 74.38039271 -59.38243103 45.92559814 C-59.1536818 40.09078576 -57.85556296 35.29865486 -55.10508728 30.14044189 C-54.46893494 28.94548096 -54.46893494 28.94548096 -53.81993103 27.72637939 C-48.80849627 19.37864127 -41.50856018 13.81576684 -32.26914978 10.79669189 C-23.41593444 8.96046945 -13.14977458 8.67117117 -5.10508728 13.14044189 C-2.88899687 15.02555776 -1.04729795 16.95545489 0.89491272 19.14044189 C1.22491272 16.50044189 1.55491272 13.86044189 1.89491272 11.14044189 C0.80178772 11.22294189 -0.29133728 11.30544189 -1.41758728 11.39044189 C-5.10508728 11.14044189 -5.10508728 11.14044189 -7.10508728 9.51544189 C-8.43395429 6.35938276 -7.97517831 4.40328324 -7.10508728 1.14044189 C-5.28613787 -0.67850752 -2.44534251 0.00626197 0 0 Z M-44.10508728 29.14044189 C-49.89630714 37.95316776 -52.15981677 46.51755581 -50.54258728 56.95294189 C-45.281938 78.57251344 -30.12076697 96.50068499 -15.44102478 112.55841064 C-14.1810268 113.95115089 -12.92706624 115.35005083 -11.71128845 116.78155518 C-6.04981626 123.41866733 0.14455711 129.50095029 6.33241272 135.64044189 C7.45699602 136.75999822 8.58134677 137.87978819 9.70545959 138.99981689 C12.43260616 141.71605723 15.16287179 144.42912481 17.89491272 147.14044189 C18.22491272 146.48044189 18.55491272 145.82044189 18.89491272 145.14044189 C18.11322426 143.00828777 17.2401369 140.90956503 16.33241272 138.82794189 C6.50875859 115.25580989 3.73739036 91.37426687 2.32460022 66.13262939 C2.0189683 60.77043929 1.55958452 55.46947724 0.89491272 50.14044189 C0.02092834 50.68184814 0.02092834 50.68184814 -0.87071228 51.23419189 C-7.68652538 55.09219931 -13.32113144 56.0025889 -21.10508728 55.14044189 C-21.76508728 54.81044189 -22.42508728 54.48044189 -23.10508728 54.14044189 C-23.10508728 52.49044189 -23.10508728 50.84044189 -23.10508728 49.14044189 C-22.01840759 49.08436768 -22.01840759 49.08436768 -20.90977478 49.02716064 C-11.61235061 48.40419216 -11.61235061 48.40419216 -4.23008728 43.07794189 C-2.35680187 38.18658553 -2.07301619 33.07019209 -3.83164978 28.07794189 C-6.44614087 23.14654406 -9.82765738 19.89958519 -15.10508728 18.14044189 C-26.94157418 17.05631922 -36.2440779 19.95825447 -44.10508728 29.14044189 Z M151.51991272 24.70294189 C148.29291533 29.54343797 148.2630914 34.49792652 148.89491272 40.14044189 C150.5866265 43.64918159 151.66180493 45.53655691 155.17616272 47.25762939 C158.07926723 48.20030413 160.66714806 48.54566373 163.70741272 48.76544189 C164.68323303 48.84020752 165.65905334 48.91497314 166.66444397 48.99200439 C167.40049866 49.04098877 168.13655334 49.08997314 168.89491272 49.14044189 C168.93763372 50.80656095 168.93555104 52.47427074 168.89491272 54.14044189 C167.06201824 55.97333637 164.29887447 55.39913848 161.83241272 55.45294189 C155.65621183 55.42579376 152.09619092 54.37897361 146.89491272 51.14044189 C146.23491272 50.81044189 145.57491272 50.48044189 144.89491272 50.14044189 C144.16873769 55.27723738 143.76438797 60.31243198 143.60487366 65.49615479 C142.77974182 91.78419124 138.34005755 116.82069409 128.57167053 141.27545166 C127.86995993 143.2092061 127.35998155 145.13781555 126.89491272 147.14044189 C133.21841252 141.96171361 138.95774718 136.22995106 144.71961975 130.44610596 C146.38762338 128.7727546 148.06088945 127.10480073 149.73475647 125.43731689 C155.33255651 119.84368181 160.82029189 114.22097869 165.89491272 108.14044189 C166.39281311 107.54924561 166.8907135 106.95804932 167.40370178 106.34893799 C181.17681268 89.83299229 197.92719466 69.12935657 196.76991272 46.51544189 C195.61241032 37.26857615 191.56553091 30.54946722 184.89491272 24.14044189 C174.5979258 16.15502346 160.81639215 14.67252987 151.51991272 24.70294189 Z " fill="#EDBD05" transform="translate(183.10508728027344,60.85955810546875)"/>
<path d="M0 0 C0.96696685 -0.00445668 0.96696685 -0.00445668 1.95346838 -0.0090034 C4.12919383 -0.01772514 6.30486449 -0.01920155 8.48060608 -0.02069092 C10.03414021 -0.0253166 11.58767319 -0.03034091 13.14120483 -0.03573608 C17.37254948 -0.04888521 21.60387823 -0.05530978 25.83524013 -0.05974674 C28.47571895 -0.06267309 31.11619338 -0.06677702 33.75667 -0.07125092 C42.00918494 -0.08493172 50.26168991 -0.09459583 58.51421541 -0.09845281 C68.05734328 -0.10293684 77.60032816 -0.12049825 87.14341253 -0.1494534 C94.50901109 -0.17103009 101.8745693 -0.18115491 109.24019915 -0.18249393 C113.6445426 -0.18354474 118.04875173 -0.18951087 122.45306206 -0.20731354 C126.59396741 -0.22372536 130.7346365 -0.22598357 134.87556267 -0.21717453 C136.3985965 -0.21640047 137.92164267 -0.22079511 139.44464493 -0.23063278 C141.51766332 -0.24324192 143.58983082 -0.23753715 145.6628418 -0.22705078 C147.40584769 -0.22925062 147.40584769 -0.22925062 149.18406582 -0.2314949 C150.52593503 -0.04738619 150.52593503 -0.04738619 151.89491272 0.14044189 C154.04993803 3.37297986 154.36347407 4.39195113 153.89491272 8.14044189 C152.770401 9.77618408 152.770401 9.77618408 150.89491272 11.14044189 C148.03504944 11.49688721 148.03504944 11.49688721 144.57460022 11.46856689 C142.68741272 11.46083252 142.68741272 11.46083252 140.76210022 11.45294189 C138.78596741 11.42200439 138.78596741 11.42200439 136.76991272 11.39044189 C134.82858459 11.38270752 134.82858459 11.38270752 132.84803772 11.37481689 C126.11984728 11.32000475 119.56868827 10.96220525 112.89491272 10.14044189 C112.89935394 10.82994934 112.90379517 11.51945679 112.90837097 12.2298584 C112.94920183 18.87281385 112.979267 25.51573209 112.99853706 32.15878677 C113.00877827 35.57037142 113.02255408 38.98184874 113.04579163 42.39337158 C113.35539231 91.60166872 107.62885923 138.00145112 86.89491272 183.14044189 C85.34041586 184.69493876 83.81781302 184.32142716 81.65394592 184.38092041 C80.75243301 184.40666641 79.8509201 184.43241241 78.92208862 184.4589386 C74.78011043 184.54300508 70.63831856 184.60900528 66.4957428 184.65533447 C64.31217907 184.68694743 62.12878631 184.73467332 59.94593811 184.79888916 C56.79936601 184.89023587 53.65589266 184.92896602 50.50819397 184.95684814 C49.53610489 184.99500137 48.56401581 185.0331546 47.56246948 185.07246399 C40.88472095 185.05336533 40.88472095 185.05336533 37.90379333 182.3039856 C36.39758837 180.30926389 35.09133683 178.33274919 33.89491272 176.14044189 C32.93585022 177.53262939 32.93585022 177.53262939 31.95741272 178.95294189 C28.62922254 182.89815609 24.93172655 184.33010276 19.89491272 185.14044189 C14.74371005 185.18576039 10.4307528 184.66265961 5.89491272 182.14044189 C5.89491272 180.16044189 5.89491272 178.18044189 5.89491272 176.14044189 C10.67245709 175.32724285 15.03729736 175.11044378 19.87928772 175.39825439 C21.99095531 175.29901088 21.99095531 175.29901088 23.65272522 173.80059814 C25.14749179 172.12661724 25.14749179 172.12661724 25.01991272 169.45294189 C23.37434196 164.6076502 20.44064796 161.76261918 16.89491272 158.14044189 C16.40845276 157.64028564 15.9219928 157.14012939 15.42079163 156.62481689 C9.69044763 150.7493345 3.90321443 145.00549178 -2.34336853 139.67559814 C-7.33385486 135.32690385 -11.74896986 130.48299555 -16.05039978 125.46466064 C-18.03276294 123.22225364 -20.09091068 121.06743021 -22.16368103 118.90899658 C-41.14261103 98.95647212 -59.82052994 74.38039271 -59.38243103 45.92559814 C-59.1536818 40.09078576 -57.85556296 35.29865486 -55.10508728 30.14044189 C-54.46893494 28.94548096 -54.46893494 28.94548096 -53.81993103 27.72637939 C-48.80849627 19.37864127 -41.50856018 13.81576684 -32.26914978 10.79669189 C-23.41593444 8.96046945 -13.14977458 8.67117117 -5.10508728 13.14044189 C-2.88899687 15.02555776 -1.04729795 16.95545489 0.89491272 19.14044189 C1.22491272 16.50044189 1.55491272 13.86044189 1.89491272 11.14044189 C0.80178772 11.22294189 -0.29133728 11.30544189 -1.41758728 11.39044189 C-5.10508728 11.14044189 -5.10508728 11.14044189 -7.10508728 9.51544189 C-8.43395429 6.35938276 -7.97517831 4.40328324 -7.10508728 1.14044189 C-5.28613787 -0.67850752 -2.44534251 0.00626197 0 0 Z M-44.10508728 29.14044189 C-49.89630714 37.95316776 -52.15981677 46.51755581 -50.54258728 56.95294189 C-45.281938 78.57251344 -30.12076697 96.50068499 -15.44102478 112.55841064 C-14.1810268 113.95115089 -12.92706624 115.35005083 -11.71128845 116.78155518 C-6.04981626 123.41866733 0.14455711 129.50095029 6.33241272 135.64044189 C7.45699602 136.75999822 8.58134677 137.87978819 9.70545959 138.99981689 C12.43260616 141.71605723 15.16287179 144.42912481 17.89491272 147.14044189 C18.22491272 146.48044189 18.55491272 145.82044189 18.89491272 145.14044189 C18.11322426 143.00828777 17.2401369 140.90956503 16.33241272 138.82794189 C6.50875859 115.25580989 3.73739036 91.37426687 2.32460022 66.13262939 C2.0189683 60.77043929 1.55958452 55.46947724 0.89491272 50.14044189 C0.02092834 50.68184814 0.02092834 50.68184814 -0.87071228 51.23419189 C-7.68652538 55.09219931 -13.32113144 56.0025889 -21.10508728 55.14044189 C-21.76508728 54.81044189 -22.42508728 54.48044189 -23.10508728 54.14044189 C-23.10508728 52.49044189 -23.10508728 50.84044189 -23.10508728 49.14044189 C-22.01840759 49.08436768 -22.01840759 49.08436768 -20.90977478 49.02716064 C-11.61235061 48.40419216 -11.61235061 48.40419216 -4.23008728 43.07794189 C-2.35680187 38.18658553 -2.07301619 33.07019209 -3.83164978 28.07794189 C-6.44614087 23.14654406 -9.82765738 19.89958519 -15.10508728 18.14044189 C-26.94157418 17.05631922 -36.2440779 19.95825447 -44.10508728 29.14044189 Z " fill="#FBC900" transform="translate(183.10508728027344,60.85955810546875)"/>
<path d="M0 0 C51.48 0 102.96 0 156 0 C156 20.79 156 41.58 156 63 C158.31 63 160.62 63 163 63 C163 68.94 163 74.88 163 81 C106.9 81 50.8 81 -7 81 C-7 75.06 -7 69.12 -7 63 C-4.69 63 -2.38 63 0 63 C0 42.21 0 21.42 0 0 Z " fill="#471E12" transform="translate(178,370)"/>
<path d="M0 0 C10.23 0.33 20.46 0.66 31 1 C31.495 4.96 31.495 4.96 32 9 C32.76183594 8.27683594 32.76183594 8.27683594 33.5390625 7.5390625 C34.22742188 6.90742187 34.91578125 6.27578125 35.625 5.625 C36.29789062 4.99851562 36.97078125 4.37203125 37.6640625 3.7265625 C44.62141901 -1.41583144 53.74037675 -0.8065716 62 0 C71.63678036 1.98194867 79.59362881 7.25787751 85.3125 15.25 C86.24885042 16.80971462 87.14512339 18.39418314 88 20 C88.41378906 20.77601562 88.82757813 21.55203125 89.25390625 22.3515625 C93.96364994 32.95258837 93.65158932 46.2956109 90.0625 57.1875 C84.80154135 69.88789876 77.5896929 81.30029543 69 92 C68.28070313 92.91136719 67.56140625 93.82273437 66.8203125 94.76171875 C61.61934336 101.24904858 56.07642995 107.38751927 50.41601562 113.47070312 C48.99197346 115.00866867 47.58014675 116.55696479 46.171875 118.109375 C39.45873001 125.50562832 32.71598514 132.86184237 25.125 139.375 C21.68163944 142.34628693 18.37628642 145.44589363 15.125 148.625 C14.19945312 149.52476562 13.27390625 150.42453125 12.3203125 151.3515625 C8.76740451 155.40690193 7.69455617 158.65473289 8 164 C11.53870977 165.17956992 14.3366687 165.06164767 18.0625 165 C24.77822178 164.88911089 24.77822178 164.88911089 27 166 C27 167.98 27 169.96 27 172 C20.47843723 174.78820437 14.96282606 175.75254806 8 174 C3.92981072 171.8539002 1.64642518 169.68030558 -1 166 C-1.30550781 166.56589844 -1.61101562 167.13179687 -1.92578125 167.71484375 C-4.04089719 171.10498733 -5.58754639 173.57931551 -9.53125 174.75390625 C-12.37864207 175.00585246 -15.14254475 175.05903833 -18 175 C-18.89460938 175.01160156 -19.78921875 175.02320313 -20.7109375 175.03515625 C-22.80719665 175.05830107 -24.90389472 175.03436238 -27 175 C-25.05100418 168.92446581 -22.8471558 163.00837927 -20.48486328 157.08227539 C-15.38928513 144.23976915 -11.20282893 131.43594448 -8 118 C-7.70270996 116.77724365 -7.70270996 116.77724365 -7.39941406 115.52978516 C-0.75927216 87.82146957 -0.87607431 59.21891409 -0.46777344 30.88165283 C-0.4166563 27.38785853 -0.36148958 23.894128 -0.30664062 20.40039062 C-0.20016969 13.60031273 -0.10022222 6.80018419 0 0 Z M38.625 14.5625 C35.39800261 19.40299608 35.36817868 24.35748462 36 30 C37.69171378 33.50873969 38.76689221 35.39611502 42.28125 37.1171875 C45.18435451 38.05986224 47.77223534 38.40522183 50.8125 38.625 C51.78832031 38.69976562 52.76414062 38.77453125 53.76953125 38.8515625 C54.50558594 38.90054688 55.24164063 38.94953125 56 39 C56.042721 40.66611905 56.04063832 42.33382885 56 44 C54.16710552 45.83289448 51.40396175 45.25869659 48.9375 45.3125 C42.76129911 45.28535186 39.2012782 44.23853171 34 41 C33.34 40.67 32.68 40.34 32 40 C31.27382497 45.13679548 30.86947525 50.17199009 30.70996094 55.35571289 C29.8848291 81.64374935 25.44514483 106.6802522 15.67675781 131.13500977 C14.97504721 133.0687642 14.46506883 134.99737366 14 137 C20.3234998 131.82127171 26.06283446 126.08950916 31.82470703 120.30566406 C33.49271066 118.63231271 35.16597673 116.96435883 36.83984375 115.296875 C42.43764379 109.70323991 47.92537917 104.08053679 53 98 C53.49790039 97.40880371 53.99580078 96.81760742 54.50878906 96.20849609 C68.28189996 79.6925504 85.03228194 58.98891467 83.875 36.375 C82.7174976 27.12813426 78.67061819 20.40902532 72 14 C61.70301308 6.01458157 47.92147943 4.53208798 38.625 14.5625 Z " fill="#FBC901" transform="translate(296,71)"/>
<path d="M0 0 C38.28 0 76.56 0 116 0 C116 12.21 116 24.42 116 37 C77.72 37 39.44 37 0 37 C0 24.79 0 12.58 0 0 Z " fill="#D9CC70" transform="translate(198,383)"/>
<path d="M0 0 C1.96234221 -0.00389693 3.9246836 -0.00823361 5.88702393 -0.01298523 C9.98525739 -0.02041123 14.08340466 -0.02018304 18.18164062 -0.01489258 C23.39027914 -0.00910949 28.59856072 -0.02601881 33.80714035 -0.04923725 C37.85677089 -0.06409051 41.9063178 -0.06483055 45.95597076 -0.06172752 C47.87418574 -0.06223515 49.79240611 -0.06736574 51.71059418 -0.07753944 C84.64027647 -0.23076424 84.64027647 -0.23076424 97.578125 10.73828125 C102.11958549 16.21474831 102.703125 18.9512447 102.703125 26.30078125 C51.223125 26.30078125 -0.256875 26.30078125 -53.296875 26.30078125 C-53.296875 19.41183619 -53.21957807 16.51084842 -48.66796875 11.51171875 C-35.45209768 -1.03668409 -17.03192679 -0.01419354 0 0 Z " fill="#F9C600" transform="translate(231.296875,343.69921875)"/>
<path d="M0 0 C56.1 0 112.2 0 170 0 C170 5.94 170 11.88 170 18 C113.9 18 57.8 18 0 18 C0 12.06 0 6.12 0 0 Z " fill="#2E130A" transform="translate(171,433)"/>
<path d="M0 0 C5.55450523 3.96750374 9.34097348 8.48483488 12.5390625 14.4921875 C12.95285156 15.26820312 13.36664063 16.04421875 13.79296875 16.84375 C18.50271244 27.44477587 18.19065182 40.7877984 14.6015625 51.6796875 C9.34060385 64.38008626 2.1287554 75.79248293 -6.4609375 86.4921875 C-7.18023437 87.40355469 -7.89953125 88.31492187 -8.640625 89.25390625 C-13.84159414 95.74123608 -19.38450755 101.87970677 -25.04492188 107.96289062 C-26.46896404 109.50085617 -27.88079075 111.04915229 -29.2890625 112.6015625 C-36.00220749 119.99781582 -42.74495236 127.35402987 -50.3359375 133.8671875 C-53.77929806 136.83847443 -57.08465108 139.93808113 -60.3359375 143.1171875 C-61.26148438 144.01695312 -62.18703125 144.91671875 -63.140625 145.84375 C-66.69353299 149.89908943 -67.76638133 153.14692039 -67.4609375 158.4921875 C-63.92222773 159.67175742 -61.1242688 159.55383517 -57.3984375 159.4921875 C-50.68271572 159.38129839 -50.68271572 159.38129839 -48.4609375 160.4921875 C-48.4609375 162.4721875 -48.4609375 164.4521875 -48.4609375 166.4921875 C-54.98250027 169.28039187 -60.49811144 170.24473556 -67.4609375 168.4921875 C-71.27437707 166.48146482 -74.45505422 164.38596093 -76.4609375 160.4921875 C-74.45724548 138.11052131 -51.02627869 120.05710411 -35.9785614 105.8678894 C-18.62227627 89.40292805 6.42999482 61.77128176 7.5390625 36.4921875 C7.61223849 25.9987504 4.60939062 17.93573215 -2.5234375 10.21875 C-8.89142312 4.54405314 -16.13694434 3.11840739 -24.4453125 3.21875 C-28.95385503 3.62755567 -30.93296607 4.62571071 -34.4609375 7.4921875 C-38.23897385 12.33582384 -39.06000447 16.07348522 -38.78125 22.1875 C-38.34837179 25.3021115 -37.57765015 27.15650458 -35.4609375 29.4921875 C-31.84890393 31.23873406 -28.69570712 31.80160078 -24.7109375 32.0546875 C-19.56108056 32.39204444 -19.56108056 32.39204444 -18.4609375 33.4921875 C-18.2734375 35.9296875 -18.2734375 35.9296875 -18.4609375 38.4921875 C-21.1850937 41.2163437 -22.7828109 40.8230677 -26.5859375 40.8671875 C-33.36514127 40.76969895 -37.67794407 39.3282526 -43.02636719 35.31860352 C-46.01256876 31.51673592 -45.05931393 25.90457559 -45.07177734 21.26025391 C-45.08579313 19.2627623 -45.15395167 17.26589014 -45.22265625 15.26953125 C-45.29936686 4.45333575 -45.29936686 4.45333575 -41.13671875 0.19140625 C-29.63474881 -9.21539221 -12.07809868 -7.40023189 0 0 Z " fill="#C09B00" transform="translate(371.4609375,76.5078125)"/>
<path d="M0 0 C3.3057001 2.71732261 4.94548048 4.74445704 5.82250977 9.00195312 C6.06803755 12.83059589 6.06714986 16.58363784 5.97412109 20.41870117 C6.0021582 22.38323242 6.0021582 22.38323242 6.03076172 24.38745117 C5.94175836 33.55011293 5.94175836 33.55011293 3.94433594 36.73413086 C-0.75423205 40.85197696 -5.88876126 42.07415038 -11.96337891 42.04370117 C-13.51412109 42.05143555 -13.51412109 42.05143555 -15.09619141 42.05932617 C-17.83837891 41.79370117 -17.83837891 41.79370117 -20.83837891 39.79370117 C-21.08837891 37.23120117 -21.08837891 37.23120117 -20.83837891 34.79370117 C-19.16037583 33.11569809 -16.95133041 33.54909114 -14.65087891 33.41870117 C-10.09112038 33.03378649 -6.68315838 32.45547158 -2.83837891 29.79370117 C-0.06349146 25.35772192 -0.22134073 20.86278696 -0.83837891 15.79370117 C-2.15659542 11.61803329 -4.43597107 9.12065754 -7.83837891 6.35620117 C-13.54764246 3.52607267 -20.29175136 3.854234 -26.33056641 5.45385742 C-34.11641915 8.56550445 -40.02817422 13.51607658 -43.77587891 21.04370117 C-48.4780648 32.65619405 -46.9038287 42.91095524 -42.46337891 54.29370117 C-35.10016133 70.80243104 -23.27560706 84.97443436 -11.17431641 98.21166992 C-9.91340505 99.60541976 -8.65988343 101.00690148 -7.45336914 102.44799805 C-3.83689699 106.72910417 0.0349251 110.64747886 4.11083984 114.48901367 C35.17048772 143.92395486 35.17048772 143.92395486 37.16162109 161.79370117 C34.19811355 166.7328804 31.15539545 168.82682552 25.63818359 170.39526367 C19.81718439 171.33176512 14.32092246 170.6626033 9.16162109 167.79370117 C9.16162109 165.81370117 9.16162109 163.83370117 9.16162109 161.79370117 C13.93916546 160.98050213 18.30400574 160.76370306 23.14599609 161.05151367 C25.25766368 160.95227016 25.25766368 160.95227016 26.91943359 159.45385742 C28.41420016 157.77987651 28.41420016 157.77987651 28.28662109 155.10620117 C26.64105033 150.26090948 23.70735633 147.41587846 20.16162109 143.79370117 C19.67516113 143.29354492 19.18870117 142.79338867 18.6875 142.27807617 C12.95715601 136.40259377 7.16992281 130.65875106 0.92333984 125.32885742 C-4.06714649 120.98016313 -8.48226149 116.13625482 -12.78369141 111.11791992 C-14.76605457 108.87551292 -16.8242023 106.72068948 -18.89697266 104.56225586 C-37.87590265 84.6097314 -56.55382157 60.03365198 -56.11572266 31.57885742 C-55.88697343 25.74404503 -54.58885459 20.95191414 -51.83837891 15.79370117 C-51.20222656 14.59874023 -51.20222656 14.59874023 -50.55322266 13.37963867 C-45.5417879 5.03190055 -38.24185181 -0.53097388 -29.00244141 -3.55004883 C-19.19903259 -5.58334843 -8.54042563 -5.60401634 0 0 Z " fill="#C09B00" transform="translate(179.83837890625,75.206298828125)"/>
<path d="M0 0 C0.96696685 -0.00445668 0.96696685 -0.00445668 1.95346838 -0.0090034 C4.12919383 -0.01772514 6.30486449 -0.01920155 8.48060608 -0.02069092 C10.03414021 -0.0253166 11.58767319 -0.03034091 13.14120483 -0.03573608 C17.37254948 -0.04888521 21.60387823 -0.05530978 25.83524013 -0.05974674 C28.47571895 -0.06267309 31.11619338 -0.06677702 33.75667 -0.07125092 C42.00918494 -0.08493172 50.26168991 -0.09459583 58.51421541 -0.09845281 C68.05734328 -0.10293684 77.60032816 -0.12049825 87.14341253 -0.1494534 C94.50901109 -0.17103009 101.8745693 -0.18115491 109.24019915 -0.18249393 C113.6445426 -0.18354474 118.04875173 -0.18951087 122.45306206 -0.20731354 C126.59396741 -0.22372536 130.7346365 -0.22598357 134.87556267 -0.21717453 C136.3985965 -0.21640047 137.92164267 -0.22079511 139.44464493 -0.23063278 C141.51766332 -0.24324192 143.58983082 -0.23753715 145.6628418 -0.22705078 C147.40584769 -0.22925062 147.40584769 -0.22925062 149.18406582 -0.2314949 C150.52593503 -0.04738619 150.52593503 -0.04738619 151.89491272 0.14044189 C154.04993803 3.37297986 154.36347407 4.39195113 153.89491272 8.14044189 C152.76681519 9.77246189 152.76681519 9.77246189 150.89491272 11.14044189 C148.09783936 11.52075863 148.09783936 11.52075863 144.63197327 11.52812195 C142.66337845 11.5429789 142.66337845 11.5429789 140.65501404 11.55813599 C139.19721892 11.55389771 137.7394247 11.54933982 136.28163147 11.54449463 C134.74912517 11.5501957 133.21662313 11.55715894 131.68412781 11.56529236 C127.5188866 11.58326695 123.35385556 11.5820475 119.18858719 11.57634997 C115.71421502 11.57326467 112.23988361 11.57934313 108.76551723 11.58538872 C100.57131004 11.59944612 92.37720708 11.59786226 84.18299866 11.58648682 C75.72196167 11.57500072 67.26124148 11.58908665 58.80024624 11.61588329 C51.54157747 11.63801357 44.28300833 11.64468383 37.0243082 11.63880688 C32.68645201 11.6354301 28.34879898 11.63790003 24.01097107 11.65505791 C19.93314442 11.67048287 15.85578855 11.66662157 11.7779808 11.64775276 C10.27956103 11.64405463 8.78110671 11.64721087 7.28271866 11.65763855 C5.24113173 11.67076421 3.19942398 11.65694538 1.15785217 11.64164734 C0.01411636 11.64143806 -1.12961945 11.64122877 -2.30801392 11.64101315 C-5.10508728 11.14044189 -5.10508728 11.14044189 -7.012146 9.3083353 C-8.53914583 6.27946914 -7.96090536 4.34975968 -7.10508728 1.14044189 C-5.28613787 -0.67850752 -2.44534251 0.00626197 0 0 Z " fill="#EDBE05" transform="translate(183.10508728027344,60.85955810546875)"/>
<path d="M0 0 C21.12 0 42.24 0 64 0 C62.86565189 11.34348114 62.86565189 11.34348114 60.375 16.125 C59.90835938 17.05570312 59.44171875 17.98640625 58.9609375 18.9453125 C58.31382812 19.95335937 57.66671875 20.96140625 57 22 C56.61956543 22.69996094 56.23913086 23.39992188 55.84716797 24.12109375 C54.09156669 26.77185747 52.69301978 28.2761984 50 30 C44.88738047 30.95277322 39.97816495 30.98607257 34.79296875 30.82324219 C32.37329384 30.74994832 29.95973464 30.74120548 27.5390625 30.7421875 C25.99213485 30.72252936 24.44524841 30.69921704 22.8984375 30.671875 C22.18062103 30.66742371 21.46280457 30.66297241 20.72323608 30.65838623 C15.89286455 30.47650891 13.41515661 29.39437075 10 26 C3.75268813 17.90399381 0 10.24027898 0 0 Z " fill="#C09B00" transform="translate(224,245)"/>
<path d="M0 0 C2.97 0 5.94 0 9 0 C9.07092267 8.06990587 9.12350572 16.1396721 9.15543652 24.20981693 C9.17079629 27.9610383 9.19145513 31.71203994 9.22631836 35.46313477 C9.64449846 81.75294017 3.03809657 124.55465068 -14.96606445 167.51831055 C-16.00127965 170.00307145 -17.00596119 172.49851773 -18 175 C-20.97 175 -23.94 175 -27 175 C-25.05100418 168.92446581 -22.8471558 163.00837927 -20.48486328 157.08227539 C-15.38928513 144.23976915 -11.20282893 131.43594448 -8 118 C-7.70270996 116.77724365 -7.70270996 116.77724365 -7.39941406 115.52978516 C-0.75927216 87.82146957 -0.87607431 59.21891409 -0.46777344 30.88165283 C-0.4166563 27.38785848 -0.36145156 23.89412864 -0.30664062 20.40039062 C-0.20053632 13.60031671 -0.0987926 6.80018399 0 0 Z " fill="#FDFBF1" transform="translate(296,71)"/>
</svg>
