<?xml version="1.0" encoding="UTF-8"?>
<svg version="1.1" xmlns="http://www.w3.org/2000/svg" width="512" height="512">
<path d="M0 0 C0.94939453 0.45246094 0.94939453 0.45246094 1.91796875 0.9140625 C7.55957634 5.26449804 8.97118418 11.54956294 10.5625 18.125 C10.89314453 19.41857422 10.89314453 19.41857422 11.23046875 20.73828125 C12.8125 27.01727484 12.8125 27.01727484 12.8125 29.375 C13.51221924 29.35405273 14.21193848 29.33310547 14.93286133 29.31152344 C18.16342264 29.22737066 21.39375226 29.17602929 24.625 29.125 C25.72521484 29.09148437 26.82542969 29.05796875 27.95898438 29.0234375 C35.80736958 28.93083118 44.35430978 29.50464148 50.56225586 34.89404297 C54.02198106 38.93417653 55.18750479 41.90884929 55.08203125 47.23046875 C54.18616226 54.35846982 48.07596289 59.98878093 42.8125 64.375 C42.1525 64.375 41.4925 64.375 40.8125 64.375 C41.08964844 64.96667969 41.36679687 65.55835937 41.65234375 66.16796875 C42.01457031 66.95816406 42.37679687 67.74835938 42.75 68.5625 C43.10964844 69.33980469 43.46929687 70.11710937 43.83984375 70.91796875 C48.27627919 82.12486791 46.4576228 95.58677101 41.8125 106.375 C37.55179607 114.77498884 33.19150158 118.81588748 25.8125 125.375 C72.3425 125.705 118.8725 126.035 166.8125 126.375 C163.8425 133.635 160.8725 140.895 157.8125 148.375 C160.1225 148.705 162.4325 149.035 164.8125 149.375 C166.43164699 149.85374472 168.04309957 150.35950786 169.64453125 150.89453125 C177.47453701 153.09818557 185.42559973 152.94496501 193.5 153.0625 C195.08791746 153.09574717 196.67580929 153.13024339 198.26367188 153.16601562 C202.11329626 153.25236609 205.96209703 153.31313757 209.8125 153.375 C209.8125 158.655 209.8125 163.935 209.8125 169.375 C208.54656006 169.37387207 207.28062012 169.37274414 205.97631836 169.37158203 C201.25890798 169.37526571 196.54251405 169.41817171 191.82543945 169.47265625 C189.78774582 169.4907734 187.74992974 169.49839256 185.7121582 169.49511719 C182.77459775 169.49224778 179.83955436 169.52768954 176.90234375 169.5703125 C175.54567848 169.5566716 175.54567848 169.5566716 174.16160583 169.54275513 C173.30124222 169.56232269 172.4408786 169.58189026 171.55444336 169.60205078 C170.80609726 169.606492 170.05775116 169.61093323 169.28672791 169.61550903 C165.67107146 170.54518129 165.67107146 170.54518129 159.8125 176.375 C162.4525 181.985 165.0925 187.595 167.8125 193.375 C140.0925 193.375 112.3725 193.375 83.8125 193.375 C83.85890625 203.05328125 83.9053125 212.7315625 83.953125 222.703125 C83.97357091 228.84635846 83.99299324 234.98956715 84.0078125 241.1328125 C84.03150695 250.8767137 84.05929597 260.62047609 84.11425781 270.36425781 C84.1542748 277.46199172 84.17996799 284.55961256 84.18885398 291.65745616 C84.19404375 295.41164456 84.20613873 299.16550961 84.23542023 302.91959381 C84.2628252 306.46221861 84.27089524 310.00439077 84.26493073 313.54711151 C84.26653428 315.44854039 84.28792465 317.3499214 84.31018066 319.2512207 C84.25216856 331.49814983 81.28978138 341.36190851 72.8125 350.375 C68.58384901 354.30160449 65.08134302 356.17242473 59.3125 356.6875 C54.88227666 356.29194434 52.4192507 355.20529862 49.46484375 351.83984375 C49.02269531 351.29457031 48.58054687 350.74929688 48.125 350.1875 C47.361875 349.259375 46.59875 348.33125 45.8125 347.375 C45.1525 347.375 44.4925 347.375 43.8125 347.375 C41.99540825 349.62145535 41.99540825 349.62145535 40.1875 352.375 C39.55585938 353.303125 38.92421875 354.23125 38.2734375 355.1875 C37.79132813 355.909375 37.30921875 356.63125 36.8125 357.375 C30.19266449 354.06508224 24.63220016 348.94762155 18.8125 344.375 C18.4825 360.545 18.1525 376.715 17.8125 393.375 C12.5325 393.375 7.2525 393.375 1.8125 393.375 C1.4825 377.205 1.1525 361.035 0.8125 344.375 C-2.4875 347.345 -5.7875 350.315 -9.1875 353.375 C-11.6625 355.355 -11.6625 355.355 -14.1875 357.375 C-17.44579371 355.9917621 -19.12412383 354.52701519 -21.203125 351.6796875 C-21.73164063 350.96425781 -22.26015625 350.24882812 -22.8046875 349.51171875 C-23.34351563 348.76535156 -23.88234375 348.01898438 -24.4375 347.25 C-25.26894531 346.11884766 -25.26894531 346.11884766 -26.1171875 344.96484375 C-27.48134103 343.10677256 -28.83770178 341.24351184 -30.1875 339.375 C-31.30367556 340.30643839 -32.41625647 341.24218528 -33.52734375 342.1796875 C-34.45728149 342.96061768 -34.45728149 342.96061768 -35.40600586 343.75732422 C-37.05155294 345.25155403 -38.38501018 346.75248112 -39.75 348.5 C-43.2287807 352.60317723 -46.36350875 354.86833576 -51.5625 356.3125 C-58.15422245 356.42615039 -63.58623523 353.9426169 -68.44921875 349.515625 C-74.69584371 341.82315202 -78.31693655 332.51928927 -78.30775452 322.64860535 C-78.30981651 320.93442917 -78.30981651 320.93442917 -78.31192017 319.18562317 C-78.30652725 317.31906319 -78.30652725 317.31906319 -78.30102539 315.41479492 C-78.30117142 314.09733276 -78.30131744 312.77987061 -78.3014679 311.42248535 C-78.30175444 307.81751081 -78.29588074 304.21256963 -78.28889394 300.60760283 C-78.28263668 296.837306 -78.28205472 293.06700838 -78.28086853 289.29670715 C-78.27776221 282.16054889 -78.26955825 275.02440597 -78.25951904 267.88825446 C-78.24624459 258.2427372 -78.24085235 248.59721573 -78.23501682 238.95169163 C-78.2256179 223.75944959 -78.2056943 208.56723994 -78.1875 193.375 C-105.5775 193.375 -132.9675 193.375 -161.1875 193.375 C-159.69498294 188.89744882 -158.18502948 185.15277506 -156.0625 181 C-155.52367187 179.94039062 -154.98484375 178.88078125 -154.4296875 177.7890625 C-154.01976562 176.99242187 -153.60984375 176.19578125 -153.1875 175.375 C-153.765 175.106875 -154.3425 174.83875 -154.9375 174.5625 C-157.1875 173.375 -157.1875 173.375 -158.79785156 171.83276367 C-162.27724612 169.71021924 -165.71067733 169.89537487 -169.671875 169.86328125 C-170.48746887 169.84533005 -171.30306274 169.82737885 -172.14337158 169.80888367 C-174.74136223 169.7548198 -177.33916958 169.72089818 -179.9375 169.6875 C-181.7018484 169.65432339 -183.46617263 169.61983341 -185.23046875 169.58398438 C-189.54950495 169.49662852 -193.86770995 169.43652943 -198.1875 169.375 C-198.1875 164.095 -198.1875 158.815 -198.1875 153.375 C-196.25648438 153.34921875 -194.32546875 153.3234375 -192.3359375 153.296875 C-174.64758112 153.17907294 -174.64758112 153.17907294 -157.5234375 149.21484375 C-155.1875 148.375 -155.1875 148.375 -152.1875 148.375 C-152.42984375 147.81514404 -152.6721875 147.25528809 -152.921875 146.6784668 C-154.01602775 144.14218915 -155.10184254 141.60242496 -156.1875 139.0625 C-156.5690625 138.18142578 -156.950625 137.30035156 -157.34375 136.39257812 C-157.7046875 135.54501953 -158.065625 134.69746094 -158.4375 133.82421875 C-158.77265625 133.04393311 -159.1078125 132.26364746 -159.453125 131.4597168 C-160.1875 129.375 -160.1875 129.375 -160.1875 126.375 C-117.9475 126.045 -75.7075 125.715 -32.1875 125.375 C-34.8275 123.065 -37.4675 120.755 -40.1875 118.375 C-46.95329004 109.76508312 -50.45974258 101.21607605 -51.1875 90.375 C-52.46625 90.436875 -53.745 90.49875 -55.0625 90.5625 C-63.3108553 90.52359266 -69.83089343 88.39887384 -75.91015625 82.77734375 C-78.86384806 79.53460565 -78.5252452 76.15382534 -78.453125 71.96484375 C-77.73030417 64.91734066 -72.95613693 60.73499897 -67.83203125 56.3671875 C-62.05117164 52.01233019 -55.67907617 48.55140069 -49.1875 45.375 C-49.5484375 44.18003906 -49.909375 42.98507813 -50.28125 41.75390625 C-50.75063137 40.14862198 -51.21934574 38.54314257 -51.6875 36.9375 C-51.92597656 36.15439453 -52.16445312 35.37128906 -52.41015625 34.56445312 C-54.19541336 28.3670606 -55.42411432 22.16213136 -53.375 15.88671875 C-52.7871875 14.98373047 -52.7871875 14.98373047 -52.1875 14.0625 C-51.81625 13.44761719 -51.445 12.83273438 -51.0625 12.19921875 C-45.00059661 6.30149191 -36.08355753 4.7238505 -28.15112305 2.65527344 C-26.12242752 2.12432673 -24.09938964 1.57484575 -22.07617188 1.0234375 C-20.76852582 0.675965 -19.46059196 0.32957341 -18.15234375 -0.015625 C-16.9830835 -0.32532227 -15.81382324 -0.63501953 -14.60913086 -0.95410156 C-9.51462477 -1.95301007 -4.72386418 -2.39602183 0 0 Z " fill="#333333" transform="translate(238.1875,54.625)"/>
<path d="M0 0 C42.24 0 84.48 0 128 0 C128.1209091 46.65300117 128.1209091 46.65300117 128.14648438 66.1796875 C128.16429595 79.67060765 128.18525253 93.16147166 128.22631836 106.65234375 C128.25621008 116.4769984 128.27557249 126.30160756 128.28226548 136.12630641 C128.28617811 141.32892224 128.29538061 146.53140794 128.31719017 151.73398209 C128.33755166 156.63079786 128.34383445 161.52742989 128.33932304 166.42428398 C128.34014839 168.22138785 128.34611603 170.01849785 128.35761642 171.81556511 C128.37255536 174.27034543 128.36894867 176.72443319 128.36076355 179.17922974 C128.36950207 179.88936002 128.3782406 180.5994903 128.38724393 181.33113968 C128.33310741 187.3432127 126.26528719 191.10206921 123 196 C119.42796087 194.55352788 117.88698281 192.83047421 115.765625 189.6484375 C115.19199219 188.79765625 114.61835938 187.946875 114.02734375 187.0703125 C113.44082031 186.18085938 112.85429687 185.29140625 112.25 184.375 C111.64800781 183.4778125 111.04601562 182.580625 110.42578125 181.65625 C108.94230088 179.4428031 107.46749074 177.22406656 106 175 C103.13607206 178.52830761 100.41215722 182.12984917 97.75 185.8125 C97.04359375 186.78832031 96.3371875 187.76414062 95.609375 188.76953125 C95.07828125 189.50558594 94.5471875 190.24164063 94 191 C88.05392202 187.83191074 83.18488098 183.16187673 78.15039062 178.7421875 C77.41884766 178.12085938 76.68730469 177.49953125 75.93359375 176.859375 C74.9444397 176.00037598 74.9444397 176.00037598 73.93530273 175.12402344 C72.06916556 173.7903518 72.06916556 173.7903518 69.91137695 174.19165039 C66.96918171 175.43594832 65.0484982 177.49079243 62.75 179.6875 C50.62598637 191 50.62598637 191 47 191 C45.29477963 188.97096601 43.69908132 186.9395749 42.125 184.8125 C41.25302718 183.65202578 40.38063672 182.49186524 39.5078125 181.33203125 C39.08790039 180.76822754 38.66798828 180.20442383 38.23535156 179.62353516 C37.08966692 178.11784289 35.88672052 176.65619295 34.6796875 175.19921875 C33 173 33 173 33 171 C29.65678045 172.11440652 28.93980381 172.97472343 26.75 175.625 C23.89743875 178.99293996 20.92312434 182.11525205 17.76171875 185.19140625 C15.21475715 187.80613623 12.94638836 190.64022275 10.67578125 193.49609375 C9 195 9 195 5 195 C0.33174161 190.06498399 -0.14671215 186.06955101 -0.12025452 179.53999329 C-0.12110894 178.77380572 -0.12196337 178.00761815 -0.12284368 177.21821278 C-0.12449468 174.64325436 -0.1189833 172.06836066 -0.11352539 169.4934082 C-0.11324341 167.65062461 -0.11340146 165.8078409 -0.1139679 163.96505737 C-0.11425545 158.95505443 -0.10836547 153.9450753 -0.10139394 148.93507791 C-0.09515344 143.70201503 -0.09455605 138.46895164 -0.09336853 133.23588562 C-0.09025727 123.323051 -0.08204664 113.41022737 -0.07201904 103.4973976 C-0.05876443 90.10450289 -0.05335634 76.71160518 -0.04751682 63.31870556 C-0.03810663 42.21246213 -0.01818633 21.10624191 0 0 Z " fill="#B28D84" transform="translate(177,197)"/>
<path d="M0 0 C19.47 0 38.94 0 59 0 C57.35 4.29 55.7 8.58 54 13 C54 13.99 54 14.98 54 16 C57.96 17.32 61.92 18.64 66 20 C61 25 61 25 58.625 26.9375 C58.08875 27.618125 57.5525 28.29875 57 29 C57.495 31.97 57.495 31.97 58 35 C38.86 35 19.72 35 0 35 C0 23.45 0 11.9 0 0 Z " fill="#FDD1B2" transform="translate(321,197)"/>
<path d="M0 0 C19.47 0 38.94 0 59 0 C59 11.55 59 23.1 59 35 C39.86 35 20.72 35 1 35 C1.66 33.02 2.32 31.04 3 29 C-0.3 26.36 -3.6 23.72 -7 21 C-4.65085508 18.65085508 -3.04320554 18.26859643 0.125 17.375 C1.49011719 16.98441406 1.49011719 16.98441406 2.8828125 16.5859375 C3.58148438 16.39257812 4.28015625 16.19921875 5 16 C5.17948954 11.14527476 5.17948954 11.14527476 0 0 Z " fill="#FDD2B2" transform="translate(102,197)"/>
<path d="M0 0 C3.77472771 9.50422512 4.15367223 16.76257232 0.3203125 26.359375 C-3.97307403 34.94614805 -11.49908058 40.62705437 -20.1875 44.375 C-31.56293123 46.23982479 -40.28649585 45.5237799 -50 39 C-55.57781409 34.7636855 -58.99042208 29.72295157 -61 23 C-61.25 19.4375 -61.25 19.4375 -61 17 C-56.69317294 15.88304252 -52.39600135 14.85674402 -48.03125 13.9921875 C-33.26939854 11.03660898 -17.33107964 7.78054069 -3.82299805 0.8894043 C-2 0 -2 0 0 0 Z " fill="#FCD1B1" transform="translate(265,127)"/>
<path d="M0 0 C-1.92085268 4.43733209 -4.87474455 6.06856124 -9 8.3125 C-9.712771 8.70348877 -10.42554199 9.09447754 -11.15991211 9.49731445 C-26.28497445 17.57773698 -42.35978981 22.14307834 -59 26 C-59.75635742 26.18079102 -60.51271484 26.36158203 -61.29199219 26.54785156 C-74.11864707 29.53895374 -86.88858414 29.32285972 -100 29 C-98.66278228 24.98834684 -96.16086102 23.86861599 -92.6875 21.8125 C-92.02669434 21.42030273 -91.36588867 21.02810547 -90.68505859 20.62402344 C-77.18297965 12.88810082 -62.06798325 7.73064761 -47 4 C-46.22140625 3.80390137 -45.4428125 3.60780273 -44.640625 3.40576172 C-29.74482992 -0.22034445 -15.27397087 -0.47214748 0 0 Z " fill="#F9C65E" transform="translate(276,100)"/>
<path d="M0 0 C1.32 5.61 2.64 11.22 4 17 C1.69 17.66 -0.62 18.32 -3 19 C-4.73590319 19.50182266 -6.47159626 20.00437303 -8.20703125 20.5078125 C-10.07550717 21.04692237 -11.94399701 21.58598396 -13.8125 22.125 C-15.24239258 22.54072266 -15.24239258 22.54072266 -16.70117188 22.96484375 C-18.06532227 23.35736328 -18.06532227 23.35736328 -19.45703125 23.7578125 C-20.28178955 23.9964502 -21.10654785 24.23508789 -21.95629883 24.48095703 C-24 25 -24 25 -26 25 C-26.67321284 22.75194998 -27.33834123 20.50147776 -28 18.25 C-28.37125 16.99703125 -28.7425 15.7440625 -29.125 14.453125 C-30 11 -30 11 -30 7 C-25.75222625 5.82512185 -21.50144326 4.661523 -17.25 3.5 C-16.0434375 3.16613281 -14.836875 2.83226563 -13.59375 2.48828125 C-11.85351562 2.01455078 -11.85351562 2.01455078 -10.078125 1.53125 C-9.00981445 1.23798828 -7.94150391 0.94472656 -6.84082031 0.64257812 C-4 0 -4 0 0 0 Z " fill="#F9C65E" transform="translate(231,70)"/>
</svg>
